<svg xmlns="http://www.w3.org/2000/svg" width="136" height="41" viewBox="0 0 136 41" fill="none">
<g clip-path="url(#clip0_1_1258)">
<path d="M128.5 0.950195H7.5C3.91015 0.950195 1 3.86034 1 7.4502V33.4502C1 37.04 3.91015 39.9502 7.5 39.9502H128.5C132.09 39.9502 135 37.04 135 33.4502V7.4502C135 3.86034 132.09 0.950195 128.5 0.950195Z" fill="#0F0F0F"/>
<path d="M128.5 0.950195H7.5C3.91015 0.950195 1 3.86034 1 7.4502V33.4502C1 37.04 3.91015 39.9502 7.5 39.9502H128.5C132.09 39.9502 135 37.04 135 33.4502V7.4502C135 3.86034 132.09 0.950195 128.5 0.950195Z" stroke="#59595D"/>
<path d="M82.026 19.6512V21.9422H80.59V23.4452H82.026V28.5502C82.026 30.2932 82.814 30.9902 84.798 30.9902C85.147 30.9902 85.478 30.9492 85.769 30.8992V29.4132C85.52 29.4382 85.363 29.4552 85.089 29.4552C84.201 29.4552 83.81 29.0402 83.81 28.0932V23.4452H85.77V21.9422H83.81V19.6522L82.026 19.6512ZM90.823 31.1152C93.463 31.1152 95.082 29.3472 95.082 26.4172C95.082 23.5032 93.455 21.7272 90.823 21.7272C88.183 21.7272 86.557 23.5032 86.557 26.4172C86.557 29.3472 88.175 31.1152 90.823 31.1152ZM90.823 29.5292C89.271 29.5292 88.399 28.3922 88.399 26.4162C88.399 24.4572 89.271 23.3122 90.823 23.3122C92.367 23.3122 93.247 24.4582 93.247 26.4172C93.247 28.3842 92.367 29.5292 90.823 29.5292ZM96.466 30.9402H98.251V25.6032C98.251 24.3332 99.206 23.4782 100.559 23.4782C100.874 23.4782 101.405 23.5362 101.555 23.5862V21.8262C101.364 21.7762 101.024 21.7512 100.758 21.7512C99.579 21.7512 98.575 22.3992 98.318 23.2872H98.185V21.9012H96.466V30.9402ZM105.986 23.2462C107.306 23.2462 108.169 24.1672 108.211 25.5862H103.645C103.745 24.1762 104.666 23.2462 105.986 23.2462ZM108.202 28.5002C107.87 29.2062 107.132 29.5962 106.052 29.5962C104.625 29.5962 103.703 28.5912 103.645 27.0062V26.9062H110.029V26.2842C110.029 23.4442 108.509 21.7262 105.994 21.7262C103.446 21.7262 101.827 23.5612 101.827 26.4502C101.827 29.3382 103.413 31.1152 106.003 31.1152C108.07 31.1152 109.514 30.1192 109.921 28.5002H108.202ZM70.322 27.6022C70.46 29.8222 72.309 31.2422 75.062 31.2422C78.005 31.2422 79.846 29.7532 79.846 27.3792C79.846 25.5122 78.796 24.4792 76.25 23.8862L74.882 23.5502C73.264 23.1712 72.611 22.6642 72.611 21.7782C72.611 20.6592 73.626 19.9282 75.149 19.9282C76.594 19.9282 77.592 20.6422 77.773 21.7862H79.648C79.537 19.6962 77.695 18.2242 75.174 18.2242C72.464 18.2242 70.658 19.6962 70.658 21.9072C70.658 23.7312 71.681 24.8152 73.927 25.3402L75.527 25.7272C77.171 26.1142 77.893 26.6822 77.893 27.6282C77.893 28.7292 76.757 29.5292 75.209 29.5292C73.549 29.5292 72.395 28.7812 72.232 27.6022H70.322ZM51.835 21.7512C50.606 21.7512 49.544 22.3662 48.995 23.3952H48.863V21.9012H47.145V33.9452H48.929V29.5712H49.071C49.544 30.5252 50.565 31.0902 51.851 31.0902C54.134 31.0902 55.587 29.2892 55.587 26.4162C55.587 23.5442 54.134 21.7512 51.835 21.7512ZM51.328 29.4882C49.834 29.4882 48.896 28.3092 48.896 26.4252C48.896 24.5322 49.834 23.3532 51.336 23.3532C52.847 23.3532 53.752 24.5072 53.752 26.4172C53.752 28.3342 52.847 29.4882 51.328 29.4882ZM61.832 21.7512C60.603 21.7512 59.541 22.3662 58.992 23.3952H58.86V21.9012H57.142V33.9452H58.926V29.5712H59.067C59.541 30.5252 60.562 31.0902 61.848 31.0902C64.131 31.0902 65.584 29.2892 65.584 26.4162C65.584 23.5442 64.131 21.7512 61.832 21.7512ZM61.325 29.4882C59.831 29.4882 58.893 28.3092 58.893 26.4252C58.893 24.5322 59.831 23.3532 61.333 23.3532C62.844 23.3532 63.749 24.5072 63.749 26.4172C63.749 28.3342 62.844 29.4882 61.325 29.4882ZM43.943 30.9402H45.99L41.508 18.5262H39.435L34.952 30.9402H36.931L38.075 27.6452H42.807L43.943 30.9402ZM40.373 20.7802H40.519L42.317 26.0282H38.566L40.373 20.7802ZM36.151 9.16023V15.1502H38.314C40.098 15.1502 41.132 14.0502 41.132 12.1372C41.132 10.2522 40.09 9.16123 38.314 9.16123H36.15L36.151 9.16023ZM37.081 10.0072H38.21C39.45 10.0072 40.185 10.7962 40.185 12.1492C40.185 13.5232 39.463 14.3032 38.21 14.3032H37.081V10.0072ZM44.297 15.2372C45.617 15.2372 46.427 14.3532 46.427 12.8872C46.427 11.4312 45.613 10.5432 44.297 10.5432C42.977 10.5432 42.164 11.4312 42.164 12.8882C42.164 14.3532 42.973 15.2372 44.297 15.2372ZM44.297 14.4442C43.521 14.4442 43.085 13.8752 43.085 12.8882C43.085 11.9082 43.521 11.3352 44.297 11.3352C45.069 11.3352 45.509 11.9082 45.509 12.8882C45.509 13.8712 45.069 14.4442 44.297 14.4442ZM53.318 10.6302H52.426L51.621 14.0792H51.551L50.621 10.6292H49.766L48.836 14.0792H48.769L47.96 10.6292H47.055L48.3 15.1502H49.218L50.148 11.8222H50.218L51.152 15.1512H52.077L53.318 10.6302ZM54.346 15.1502H55.238V12.5062C55.238 11.8002 55.658 11.3602 56.318 11.3602C56.978 11.3602 57.293 11.7212 57.293 12.4482V15.1502H58.185V12.2242C58.185 11.1492 57.629 10.5432 56.62 10.5432C55.94 10.5432 55.491 10.8462 55.271 11.3482H55.205V10.6302H54.345L54.346 15.1502ZM59.59 15.1502H60.483V8.86623H59.59V15.1502ZM63.839 15.2372C65.159 15.2372 65.968 14.3532 65.968 12.8872C65.968 11.4312 65.154 10.5432 63.838 10.5432C62.518 10.5432 61.705 11.4312 61.705 12.8882C61.705 14.3532 62.515 15.2372 63.839 15.2372ZM63.839 14.4442C63.063 14.4442 62.627 13.8752 62.627 12.8882C62.627 11.9082 63.062 11.3352 63.839 11.3352C64.611 11.3352 65.051 11.9082 65.051 12.8882C65.051 13.8712 64.611 14.4442 63.839 14.4442ZM68.626 14.4732C68.141 14.4732 67.788 14.2372 67.788 13.8302C67.788 13.4312 68.07 13.2202 68.693 13.1782L69.797 13.1082V13.4852C69.797 14.0452 69.298 14.4732 68.626 14.4732ZM68.398 15.2242C68.992 15.2242 69.486 14.9672 69.755 14.5142H69.826V15.1502H70.686V12.0622C70.686 11.1072 70.046 10.5422 68.913 10.5422C67.888 10.5422 67.157 11.0412 67.066 11.8172H67.929C68.029 11.4972 68.373 11.3152 68.871 11.3152C69.481 11.3152 69.797 11.5852 69.797 12.0622V12.4522L68.573 12.5222C67.498 12.5892 66.892 13.0582 66.892 13.8722C66.892 14.6972 67.527 15.2242 68.398 15.2242ZM73.713 15.2242C74.336 15.2242 74.863 14.9302 75.133 14.4362H75.203V15.1502H76.058V8.86623H75.166V11.3482H75.1C74.855 10.8502 74.332 10.5552 73.713 10.5552C72.572 10.5552 71.837 11.4602 71.837 12.8882C71.837 14.3202 72.564 15.2242 73.713 15.2242ZM73.966 11.3562C74.714 11.3562 75.183 11.9502 75.183 12.8922C75.183 13.8382 74.718 14.4232 73.966 14.4232C73.211 14.4232 72.759 13.8462 72.759 12.8882C72.759 11.9382 73.215 11.3562 73.966 11.3562ZM81.845 15.2372C83.165 15.2372 83.974 14.3532 83.974 12.8872C83.974 11.4312 83.16 10.5432 81.844 10.5432C80.524 10.5432 79.711 11.4312 79.711 12.8882C79.711 14.3532 80.521 15.2372 81.845 15.2372ZM81.845 14.4442C81.069 14.4442 80.633 13.8752 80.633 12.8882C80.633 11.9082 81.069 11.3352 81.845 11.3352C82.617 11.3352 83.057 11.9082 83.057 12.8882C83.057 13.8712 82.617 14.4442 81.845 14.4442ZM85.155 15.1502H86.047V12.5062C86.047 11.8002 86.467 11.3602 87.127 11.3602C87.787 11.3602 88.102 11.7212 88.102 12.4482V15.1502H88.994V12.2242C88.994 11.1492 88.438 10.5432 87.429 10.5432C86.749 10.5432 86.3 10.8462 86.081 11.3482H86.014V10.6302H85.155V15.1502ZM93.104 9.50523V10.6512H92.386V11.4012H93.104V13.9542C93.104 14.8262 93.498 15.1742 94.49 15.1742C94.664 15.1742 94.83 15.1542 94.976 15.1292V14.3862C94.851 14.3982 94.772 14.4062 94.636 14.4062C94.191 14.4062 93.996 14.1992 93.996 13.7262V11.4022H94.976V10.6502H93.996V9.50523H93.104ZM96.174 15.1502H97.066V12.5102C97.066 11.8252 97.473 11.3652 98.203 11.3652C98.833 11.3652 99.17 11.7302 99.17 12.4522V15.1502H100.062V12.2322C100.062 11.1572 99.469 10.5472 98.506 10.5472C97.826 10.5472 97.348 10.8502 97.128 11.3572H97.058V8.86523H96.173V15.1502H96.174ZM103.281 11.3022C103.941 11.3022 104.373 11.7632 104.394 12.4722H102.111C102.161 11.7672 102.622 11.3022 103.281 11.3022ZM104.39 13.9292C104.224 14.2822 103.854 14.4772 103.315 14.4772C102.601 14.4772 102.14 13.9752 102.111 13.1822V13.1322H105.303V12.8222C105.303 11.4022 104.543 10.5422 103.286 10.5422C102.011 10.5422 101.202 11.4602 101.202 12.9042C101.202 14.3492 101.995 15.2372 103.29 15.2372C104.323 15.2372 105.045 14.7392 105.249 13.9292H104.39ZM25.269 20.7512C25.2835 19.9173 25.5068 19.1003 25.9186 18.375C26.3303 17.6497 26.9174 17.0391 27.626 16.5992C27.1708 15.9573 26.5739 15.4288 25.8817 15.0546C25.1894 14.6804 24.4204 14.4705 23.634 14.4412C21.955 14.2652 20.327 15.4462 19.471 15.4462C18.599 15.4462 17.281 14.4592 15.863 14.4882C14.9463 14.5221 14.0536 14.7907 13.2704 15.2683C12.4872 15.746 11.8397 16.4167 11.39 17.2162C9.45599 20.5642 10.899 25.4862 12.751 28.1922C13.678 29.5172 14.761 30.9982 16.179 30.9452C17.566 30.8882 18.084 30.0612 19.759 30.0612C21.417 30.0612 21.903 30.9452 23.349 30.9112C24.838 30.8882 25.775 29.5812 26.669 28.2432C27.3356 27.2989 27.8486 26.255 28.189 25.1502C27.3274 24.7801 26.5923 24.167 26.0737 23.3857C25.5551 22.6044 25.2755 21.6889 25.269 20.7512ZM22.537 12.6612C23.3486 11.6873 23.7486 10.4353 23.652 9.17123C22.4119 9.30141 21.2665 9.89413 20.444 10.8312C19.6364 11.7576 19.2258 12.9646 19.301 14.1912C19.9204 14.1941 20.5326 14.0581 21.0926 13.7934C21.6525 13.5286 22.1461 13.1417 22.537 12.6612Z" fill="white"/>
</g>
<defs>
<clipPath id="clip0_1_1258">
<rect width="135" height="40" fill="white" transform="translate(0.5 0.450195)"/>
</clipPath>
</defs>
</svg>