<svg xmlns="http://www.w3.org/2000/svg" width="34" height="35" viewBox="0 0 34 35" fill="none">
<path d="M25.146 10.3969C24.7945 10.3445 24.4393 10.3211 24.084 10.3269H9.91699C9.51999 10.3269 9.13699 10.3549 8.76999 10.4109C8.98269 10.001 9.25989 9.62789 9.59099 9.30593L14.195 4.68793C15.1301 3.76221 16.3927 3.24292 17.7085 3.24292C19.0243 3.24292 20.2869 3.76221 21.222 4.68793L23.702 7.19493C24.5723 8.04032 25.0885 9.18501 25.146 10.3969ZM7.08399 21.6599C6.33972 21.6597 5.60268 21.8061 4.91501 22.0908C4.22734 22.3755 3.60251 22.7929 3.07623 23.3192C2.54995 23.8454 2.13253 24.4703 1.84783 25.1579C1.56313 25.8456 1.41673 26.5827 1.41699 27.3269C1.41699 28.3889 1.71399 29.3949 2.23899 30.2449C2.73844 31.0842 3.44786 31.779 4.2974 32.2609C5.14694 32.7427 6.10732 32.995 7.08399 32.9929C8.06067 32.995 9.02105 32.7427 9.87059 32.2609C10.7201 31.779 11.4295 31.0842 11.929 30.2449C12.453 29.3949 12.75 28.3889 12.75 27.3269C12.7503 26.5827 12.6039 25.8458 12.3192 25.1582C12.0346 24.4706 11.6173 23.8458 11.0911 23.3195C10.5649 22.7933 9.94022 22.3758 9.25266 22.0911C8.56511 21.8063 7.82818 21.6598 7.08399 21.6599ZM9.19399 28.3599H8.14599V29.4659C8.1439 29.7469 8.03134 30.0159 7.83263 30.2146C7.63391 30.4133 7.36501 30.5258 7.08399 30.5279C6.80281 30.5261 6.53364 30.4137 6.33471 30.2149C6.13579 30.0162 6.02309 29.7471 6.02099 29.4659V28.3599H4.97299C4.69163 28.3581 4.42232 28.2455 4.22337 28.0466C4.02441 27.8476 3.91183 27.5783 3.90999 27.2969C3.90999 26.7169 4.39199 26.2349 4.97299 26.2349H6.01999V25.2299C6.01999 24.6499 6.50199 24.1669 7.08299 24.1669C7.66299 24.1669 8.14499 24.6489 8.14499 25.2299V26.2359H9.19299C9.47478 26.2359 9.74504 26.3479 9.94429 26.5471C10.1436 26.7464 10.2555 27.0166 10.2555 27.2984C10.2555 27.5802 10.1436 27.8505 9.94429 28.0497C9.74504 28.249 9.47478 28.3609 9.19299 28.3609L9.19399 28.3599Z" fill="#56756C"/>
<path opacity="0.4" d="M31.166 17.4099V24.4939C31.166 28.7439 28.333 31.5769 24.083 31.5769H10.809C11.2557 31.2004 11.6342 30.7498 11.928 30.2449C12.452 29.3949 12.75 28.3899 12.75 27.3269C12.7503 26.5826 12.6039 25.8456 12.3192 25.1579C12.0345 24.4703 11.6171 23.8454 11.0908 23.3191C10.5645 22.7929 9.93966 22.3754 9.25199 22.0907C8.56431 21.806 7.82728 21.6596 7.08301 21.6599C5.38301 21.6599 3.86701 22.4109 2.83301 23.5869V17.4099C2.83301 13.5569 5.15601 10.8649 8.76901 10.4119C9.13701 10.3549 9.51901 10.3269 9.91601 10.3269H24.083C24.451 10.3269 24.806 10.3409 25.146 10.3969C28.8 10.8229 31.166 13.5289 31.166 17.4099Z" fill="#56756C"/>
<path d="M31.166 18.1179H26.916C26.1654 18.1203 25.4462 18.4195 24.9154 18.9503C24.3846 19.4811 24.0854 20.2003 24.083 20.9509C24.0851 21.7017 24.3842 22.4212 24.915 22.9522C25.4459 23.4832 26.1652 23.7825 26.916 23.7849H31.166" fill="#56756C"/>
</svg>