<svg xmlns="http://www.w3.org/2000/svg" width="109" height="48" viewBox="0 0 109 48" fill="none">
<g clip-path="url(#clip0_1_1103)">
<path d="M48.9874 30.6265C47.7065 30.6362 46.4643 30.6362 46.4643 30.6362C45.7151 30.6507 44.9659 30.6507 44.2216 30.6265H48.9874Z" fill="#56756C"/>
<path d="M88.6462 26.9457V26.9894H88.6172V26.9312C88.6172 26.9312 88.6317 26.9409 88.6462 26.9457Z" fill="#56756C"/>
<path d="M91.4834 10.2095C91.8943 9.72395 92.3051 9.23841 92.716 8.75287C92.7933 8.66548 92.8658 8.56351 92.9625 8.5101C93.093 8.43727 93.2525 8.40814 93.3975 8.35959C93.3588 8.50525 93.3588 8.69461 93.267 8.79172C92.6676 9.42291 89.5839 12.5692 88.622 13.4869C88.3997 13.7005 88.0323 13.8801 87.7278 13.8801L68.7564 13.8899C68.6065 13.8899 68.4567 13.8704 68.1715 13.851C68.3503 13.6228 68.4615 13.4577 68.5969 13.3169C69.4862 12.4041 70.3659 11.4816 71.2891 10.6028C71.497 10.4086 71.8643 10.292 72.1591 10.292H86.0409C86.6306 10.292 87.0704 10.1464 87.4523 9.69482C87.9598 9.09275 88.506 8.51982 89.086 7.87891L91.1596 10.1464C91.2659 10.1658 91.3723 10.1852 91.4834 10.2046V10.2095Z" fill="#56756C"/>
<path d="M20.3441 21.6782C20.2765 21.7074 20.1895 21.7219 20.0831 21.7219C20.0831 21.7219 19.4596 21.6976 18.7443 21.6928V21.6782H20.3441Z" fill="#56756C"/>
<path d="M25.7335 21.6782C25.6658 21.7074 25.5788 21.7219 25.4628 21.7219H23.6261C23.3941 21.7171 23.2394 21.7171 23.1476 21.6782H25.7335Z" fill="#56756C"/>
<path d="M31.3259 24.1787V24.1933H29.2765L31.3259 24.1787Z" fill="#56756C"/>
<path d="M3.75085 17.4927C3.80402 17.449 3.98769 17.4781 4.05053 17.5364L6.07092 19.4737C6.24493 19.6533 6.34643 19.9641 6.3561 20.2214L6.36577 22.3869C6.36577 22.6345 6.4431 22.7559 6.70894 22.7462H7.98499C8.22666 22.751 8.31366 22.6491 8.30883 22.4112L8.29433 20.7263C8.28466 20.5613 8.18799 20.3719 8.07682 20.2457L7.01345 19.1629C6.81045 18.9687 6.82495 18.8182 7.01345 18.6288L8.02849 17.6092C8.22666 17.3956 8.36683 17.3859 8.57467 17.6092L10.4791 19.5465C10.6337 19.7116 10.7642 19.9495 10.7642 20.202C10.7642 20.469 10.7642 24.8 10.7642 24.8C10.7836 25.1496 10.6724 25.271 10.3244 25.2661L6.65094 25.2516C6.45277 25.2516 6.22076 25.1253 6.07092 24.9894C6.04676 24.9602 4.09403 22.9938 4.09403 22.9938C3.96352 22.853 3.87652 22.6248 3.86685 22.4354C3.83785 21.9159 3.88135 21.3915 3.84269 20.872C3.82335 20.6438 3.72185 20.3865 3.57684 20.2117C3.19983 19.765 2.77448 19.362 2.26697 18.8376C2.76965 18.3715 3.24333 17.9248 3.73151 17.4975L3.75085 17.4927Z" fill="#56756C"/>
<path d="M21.248 11.6274C21.8957 12.3218 22.5192 12.9918 23.1766 13.7007C23.5536 13.3317 23.8436 13.0452 24.1336 12.7587C24.4333 12.4577 24.733 12.1518 25.0278 11.8459C25.1776 11.6906 25.3033 11.6808 25.4628 11.8459C26.067 12.4674 26.676 13.0841 27.2899 13.691C27.4687 13.8706 27.4349 13.992 27.2705 14.1522C26.6712 14.7446 26.0767 15.3369 25.4967 15.9439C25.2937 16.1575 25.1535 16.1187 24.9746 15.9293C24.53 15.468 24.0756 15.0165 23.6309 14.5601C23.2394 14.1619 23.2443 14.1619 22.8431 14.5747C22.4322 14.9922 22.0214 15.4098 21.6057 15.8225C21.4945 15.9342 21.3689 16.0313 21.2335 16.1575C20.5182 15.4438 19.8221 14.7494 19.1358 14.0454C19.0875 13.9969 19.102 13.8026 19.16 13.7492C19.8366 13.0501 20.523 12.3655 21.2529 11.6274H21.248Z" fill="#56756C"/>
<path d="M4.52414 11.6274C5.17183 12.3218 5.79535 12.9918 6.45271 13.7007C6.82972 13.3317 7.11973 13.0452 7.40974 12.7587C7.70941 12.4577 8.00909 12.1518 8.30393 11.8459C8.45377 11.6906 8.57944 11.6808 8.73895 11.8459C9.34313 12.4674 9.95215 13.0841 10.566 13.691C10.7448 13.8706 10.711 13.992 10.5467 14.1522C9.94732 14.7446 9.3528 15.3369 8.77278 15.9439C8.56977 16.1575 8.4296 16.1187 8.25076 15.9293C7.80608 15.468 7.35173 15.0165 6.90705 14.5601C6.51554 14.1619 6.52037 14.1619 6.11919 14.5747C5.70835 14.9922 5.2975 15.4098 4.88182 15.8225C4.77065 15.9342 4.64498 16.0313 4.50964 16.1575C3.79429 15.4438 3.09826 14.7494 2.41191 14.0454C2.36357 13.9969 2.37807 13.8026 2.43608 13.7492C3.11277 13.0501 3.79912 12.3655 4.52898 11.6274H4.52414Z" fill="#56756C"/>
<path d="M35.3763 2.35363C34.7431 1.77098 34.1051 1.18834 33.4816 0.586273C33.2931 0.396913 33.1674 0.474599 33.0224 0.625116C32.8532 0.795054 32.6889 0.960137 32.5294 1.13007C32.3554 0.960137 32.1959 0.795054 32.0267 0.625116C31.8817 0.479455 31.756 0.396913 31.5627 0.586273C30.944 1.18348 30.306 1.76613 29.6728 2.35363C29.4021 2.60125 29.2716 2.88772 29.2813 3.26644V3.87336H29.2571C29.2475 4.15983 29.2426 16.3759 29.2571 21.678H28.3629C28.3629 21.1245 28.3533 20.5855 28.3484 20.0369C28.3484 19.8475 28.2469 19.6193 28.1164 19.4834C27.4687 18.8133 26.8065 18.1482 26.1347 17.5072C25.9945 17.3761 25.7722 17.2742 25.5885 17.2645C24.2303 17.2402 22.8721 17.2499 21.5139 17.2499H20.4988V21.309C20.5085 21.5129 20.4553 21.6246 20.3442 21.6829C20.2765 21.712 20.1895 21.7266 20.0832 21.7266C20.0832 21.7266 19.4596 21.7023 18.7443 21.6974V21.6829C18.7443 20.7555 18.7443 18.7842 18.754 17.6529C18.754 17.3616 18.6718 17.2451 18.3673 17.2499C17.1154 17.2596 15.8684 17.2451 14.6117 17.2645C14.428 17.2645 14.2056 17.3664 14.0655 17.4975C13.3888 18.1482 12.7363 18.8133 12.0886 19.4882C11.9581 19.6193 11.8566 19.8524 11.8566 20.0369C11.8324 21.4013 11.8421 22.7656 11.8324 24.13V25.1496H15.878C16.197 25.1399 16.2937 25.2613 16.284 25.572L16.2937 29.1456C16.2937 29.7136 16.2405 30.204 16.0472 30.6265C15.9022 30.9421 15.6847 31.2188 15.3367 31.4567C15.2545 31.515 15.1772 31.6024 15.1337 31.6995C15.1047 31.7578 15.124 31.8549 15.124 32.0005C15.2642 31.9034 15.3512 31.8694 15.414 31.8112C15.8055 31.4179 16.1922 31.0246 16.5837 30.6313C17.2459 29.9661 17.9081 29.2961 18.5606 28.626C18.6718 28.5095 18.7298 28.2959 18.7346 28.1308C18.7491 27.7424 18.7443 25.0525 18.7443 24.2028C22.5241 24.1931 31.756 24.1737 31.756 24.1737V4.5434C31.756 4.44144 31.7657 4.34433 31.785 4.25693C31.8237 4.02873 31.9252 3.83937 32.1185 3.66458C32.2587 3.53348 32.3941 3.40239 32.5246 3.27129C32.6551 3.4121 32.7856 3.54319 32.9257 3.66458C33.0949 3.81995 33.1867 3.97047 33.2399 4.15497C33.2302 6.60693 33.2641 23.8726 33.2641 23.8726L35.7437 23.8581C35.7437 23.8581 35.7678 6.16995 35.7727 3.86365V3.26644C35.7727 2.88772 35.6422 2.60125 35.3812 2.35363H35.3763ZM16.284 22.0082C16.284 22.6442 16.284 22.6588 15.6654 22.6345C15.3608 22.6199 14.4908 22.5665 14.0316 22.6928C14.0606 22.6539 14.0993 22.6199 14.1331 22.5811C14.2491 22.4549 14.3216 22.2315 14.3313 22.047C14.3555 21.3915 14.341 20.0854 14.341 20.0854C14.341 19.8281 14.4376 19.7213 14.6987 19.7359L15.8539 19.7261C16.1825 19.7116 16.313 19.8135 16.2985 20.1583L16.2889 22.0033L16.284 22.0082ZM25.7335 21.678C25.6658 21.7071 25.5788 21.7217 25.4628 21.7217H23.6261C23.3941 21.7169 23.2394 21.7169 23.1476 21.678C22.9881 21.6246 22.9881 21.4789 23.0026 21.0954C23.0171 20.7895 23.0703 19.9058 22.9349 19.4445C22.9784 19.4737 23.0171 19.5125 23.0509 19.5465C23.1766 19.6727 23.3989 19.7456 23.5826 19.7504C24.2351 19.7747 25.5353 19.7553 25.5353 19.7553C25.7915 19.7504 25.8978 19.8427 25.8833 20.1049V21.2702C25.8978 21.4838 25.8592 21.6149 25.7287 21.6732L25.7335 21.678Z" fill="#56756C"/>
<path d="M31.7851 4.25684C31.7851 5.33473 31.7561 4.5433 31.7561 4.5433C31.7561 4.44134 31.7658 4.34423 31.7851 4.25684Z" fill="#56756C"/>
<path d="M14.9017 26.9848C9.01934 26.9848 4.7127 26.9897 4.15685 26.9945C3.89584 26.9945 3.5575 27.0577 3.39316 27.2179C2.27662 28.3201 1.19875 29.4514 0.00488281 30.6846C0.705739 31.3352 1.38243 31.9276 2.02045 32.5588C2.31046 32.8453 2.49896 32.8016 2.75514 32.5442C3.26749 32.0296 3.775 31.5052 4.33569 31.0439C4.60153 30.8303 4.98821 30.6361 5.31689 30.6361C8.01397 30.6361 11.2137 30.6312 14.6552 30.6264C14.8485 30.2039 14.9017 29.7136 14.9017 29.1455V26.98V26.9848Z" fill="#BBC8C4"/>
<path d="M58.8671 30.0825C58.8767 30.5292 58.7076 30.636 58.2871 30.636C57.127 30.6263 55.3386 30.6214 53.9272 30.6214H44.2216C36.9424 30.6214 26.7437 30.6214 17.9806 30.6312C18.6428 29.966 19.305 29.3008 19.9575 28.6259C20.0687 28.5094 20.1267 28.2957 20.1315 28.1306C20.146 27.7519 20.146 27.3635 20.1412 26.9848H47.2619C47.4069 26.9022 47.4745 26.742 47.4649 26.4604V21.8624C47.4649 21.8624 49.6593 23.9696 50.5583 24.8193C50.9595 25.198 51.119 25.601 51.0948 26.1497C51.0707 26.6837 51.0707 26.9022 51.2688 26.9896C51.3993 27.0576 51.6265 27.0576 52.0035 27.0576H54.6716C54.8553 27.0722 54.9858 27.0479 55.0776 26.9896C55.2468 26.9022 55.3048 26.7129 55.2806 26.4216V24.7367C55.2951 24.3483 55.1356 24.2172 54.7731 24.2172C54.7731 24.2172 52.8832 24.2415 51.9407 24.2026C51.6797 24.1929 51.351 24.091 51.1722 23.9162C50.162 22.9548 48.0836 20.7942 47.9386 20.5757H48.9391C50.9063 20.5854 52.8784 20.5757 54.8456 20.6048C55.1163 20.6145 55.4401 20.7602 55.6383 20.9495C56.6195 21.8818 57.5765 22.8383 58.5094 23.8239C58.6979 24.023 58.8526 24.3483 58.8526 24.6202C58.8816 26.4458 58.8574 28.2714 58.8767 30.0922L58.8671 30.0825Z" fill="#56756C"/>
<path d="M53.879 30.6265H53.9322C53.8742 30.6556 53.85 30.6653 53.879 30.6265Z" fill="#56756C"/>
<path d="M55.0777 26.9849C54.981 27.0431 54.8505 27.0674 54.6717 27.0577H52.0036C51.6266 27.0528 51.3994 27.0528 51.2689 26.9849H55.0777Z" fill="#56756C"/>
<path d="M43.9737 21.5416L41.26 18.8156C41.1203 18.6753 40.8938 18.6753 40.7542 18.8156L38.0404 21.5416C37.9008 21.6819 37.9008 21.9094 38.0404 22.0497L40.7542 24.7757C40.8938 24.9161 41.1203 24.9161 41.26 24.7757L43.9737 22.0497C44.1134 21.9094 44.1134 21.6819 43.9737 21.5416Z" fill="#BBC8C4"/>
<path d="M109 30.0826C109 30.5293 108.831 30.6361 108.42 30.6361C106.24 30.6215 95.0941 30.6458 94.3498 30.6215C94.1032 30.607 93.7987 30.5244 93.6296 30.3593C93.18 29.9126 92.8369 29.5873 92.5565 29.3009C92.2569 29.6067 91.962 29.9078 91.6478 30.1991C91.4158 30.4176 91.0291 30.5633 90.6956 30.6021C90.193 30.6604 60.5733 30.6409 60.5733 30.6409H60.4138V30.5001C60.4042 30.4564 60.4042 30.2525 60.3993 29.9078C60.3462 26.0769 60.3703 5.16966 60.3848 4.68412H60.3993C60.4138 4.1209 60.612 3.69848 61.0035 3.33433C61.975 2.43123 62.9562 1.53299 63.9181 0.610468C64.2178 0.324001 64.4063 0.45024 64.6286 0.678443C65.3198 1.37762 66.011 2.07193 66.7215 2.75654C67.0067 3.02844 66.9342 3.2178 66.6829 3.45572C66.0352 4.08206 65.431 4.75696 64.7736 5.35902C64.358 5.73774 64.2226 6.1553 64.2226 6.70881L64.2516 26.9509C69.96 26.98 85.8525 26.9897 88.6269 26.98H90.6618C91.0968 26.9946 91.2805 26.8489 91.266 26.3828C91.266 26.3828 91.2273 25.9507 91.2805 24.9019C91.295 24.596 91.4545 24.2318 91.6672 24.0036C92.3584 23.2753 93.0979 22.5956 93.9341 21.7945C92.7209 20.6049 91.6237 19.5173 90.4975 18.4588C90.3428 18.3132 90.0383 18.2695 89.8063 18.2695L70.2935 18.2403C69.7715 18.2403 69.38 18.3714 69.0223 18.7647C68.4568 19.391 67.8236 19.9688 67.2339 20.5806C67.0019 20.8137 66.8279 20.8816 66.5669 20.6097C65.9288 19.9397 65.2715 19.2794 64.6141 18.6239C64.4015 18.4103 64.2855 18.2306 64.5561 17.9441C65.4213 17.041 66.272 16.104 67.1227 15.1766C67.4804 14.7882 67.8864 14.5988 68.4471 14.5988C77.4615 14.6134 84.1559 14.6231 93.1704 14.5988C93.7214 14.5988 94.1081 14.759 94.4851 15.1523C95.4518 16.1816 96.462 17.1673 97.448 18.1723C97.5882 18.3034 97.7042 18.4588 97.8685 18.6482C97.0033 19.5319 96.1816 20.401 95.3164 21.2312C94.9539 21.5808 94.8089 21.945 94.8138 22.4499C94.8428 24.2901 94.8041 24.4698 94.8379 26.3099C94.8379 26.5721 94.7993 26.8003 94.7123 26.9946C95.882 26.9946 96.9937 27.0383 96.9937 27.0383C97.4384 27.048 97.6124 26.9072 97.5979 26.441V21.843C97.5979 21.843 99.7971 23.9502 100.701 24.7999C101.102 25.1786 101.262 25.5816 101.237 26.1303C101.194 27.0285 101.223 27.0334 102.136 27.0334H104.805C105.298 27.0577 105.443 26.8635 105.423 26.3973L105.414 24.7125C105.438 24.3241 105.273 24.193 104.911 24.193C104.911 24.193 103.016 24.2173 102.069 24.1784C101.808 24.1687 101.489 24.0668 101.3 23.892C100.29 22.9306 98.2117 20.77 98.0667 20.5515H99.0672C101.034 20.5612 103.007 20.5515 104.974 20.5806C105.244 20.5903 105.568 20.736 105.771 20.9253C106.743 21.8576 107.705 22.8141 108.633 23.7997C108.821 23.9988 108.976 24.3241 108.981 24.596C109.01 26.4216 108.981 28.2472 109.005 30.068L109 30.0826Z" fill="#56756C"/>
<path d="M6.37534 39.4438H5.3168V39.1136C5.03646 39.3321 4.72229 39.4438 4.37911 39.4438H3.01123V36.4237L5.92099 36.4334V38.832H6.36567V39.4438H6.37534ZM5.35547 35.1953L4.91562 35.6372L4.48544 35.1953L4.05526 35.6372L3.61542 35.1953L4.05526 34.7632L4.48544 35.1953L4.91562 34.7632L5.35547 35.1953ZM5.32164 37.0355H3.62992V38.832H4.37911C4.83829 38.832 5.1283 38.6232 5.24914 38.2008C5.3023 38.026 5.32647 37.6376 5.32647 37.0355H5.32164Z" fill="#56756C"/>
<path d="M7.76743 38.832V39.4438H6.31738V38.832H7.76743Z" fill="#56756C"/>
<path d="M9.17394 37.8902C9.17394 38.3174 9.0241 38.6816 8.72442 38.9875C8.42475 39.2934 8.0574 39.4439 7.62722 39.4439H7.61755L7.62722 38.8321C8.0864 38.8321 8.37641 38.6233 8.49725 38.2009C8.54558 38.0358 8.56492 37.6474 8.56492 37.0356L9.17394 36.4238V37.8902ZM8.66642 40.5121L8.22657 40.9442L7.79639 40.5121L8.22657 40.0799L8.66642 40.5121ZM9.52678 40.5121L9.0966 40.9442L8.66642 40.5121L9.0966 40.0799L9.52678 40.5121Z" fill="#56756C"/>
<path d="M11.4506 39.4439C11.4312 39.8566 11.2766 40.211 10.972 40.5072C10.6724 40.7985 10.3147 40.949 9.90384 40.949H9.26099L9.88934 40.3275H9.90384C10.16 40.3275 10.3824 40.2353 10.566 40.0508C10.7497 39.8663 10.8415 39.6478 10.8415 39.3856V37.0453L11.4506 36.4238V39.4439Z" fill="#56756C"/>
<path d="M12.8618 39.4438H12.2528V35.3798L12.8618 34.7681V39.4438Z" fill="#56756C"/>
<path d="M16.5643 37.8902C16.5643 38.3126 16.4145 38.6719 16.1196 38.9826C15.8199 39.2885 15.4623 39.4439 15.0466 39.4439H13.6545V38.8321H15.0273C15.2834 38.8321 15.5058 38.7398 15.6846 38.5553C15.8634 38.3708 15.9553 38.1523 15.9553 37.8902V37.0356H14.2732V37.6037L13.6642 38.2252V36.4238H16.5691V37.8902H16.5643Z" fill="#56756C"/>
<path d="M19.4161 37.8803C19.4161 38.3756 19.2421 38.764 18.8941 39.0456C18.5751 39.3127 18.1643 39.4438 17.6664 39.4438L17.0477 38.8223C17.6374 38.8223 18.0193 38.798 18.1933 38.7446C18.6041 38.6232 18.812 38.3367 18.812 37.8803V35.375L19.421 34.7632V37.8803H19.4161ZM18.0241 40.7887H17.2266V40.5411H17.3812C17.3812 40.0118 17.5552 39.7448 17.9033 39.7448H18.0241V40.0021C17.7583 40.0021 17.6277 40.0992 17.6277 40.2886V40.5411H18.0241V40.7887ZM18.1111 38.5552H17.5021V35.3798L18.1111 34.768V38.5552Z" fill="#56756C"/>
<path d="M20.8081 39.4438H20.1991V35.3798L20.8081 34.7681V39.4438Z" fill="#56756C"/>
<path d="M27.4058 37.89C27.4058 38.3125 27.2511 38.6718 26.9515 38.9825C26.6469 39.2884 26.2844 39.4438 25.8591 39.4438H23.307V37.9872C23.307 37.5599 23.4617 37.1957 23.7662 36.885C24.0707 36.5742 24.4332 36.4237 24.8537 36.4237V37.0452C24.6024 37.0452 24.3849 37.1375 24.1964 37.3268C24.0127 37.5162 23.916 37.7347 23.916 37.9872V38.832H25.5207C26.1008 38.832 26.4729 38.6718 26.6373 38.3562C26.7436 38.1425 26.7968 37.7007 26.792 37.0355L27.401 36.4237V37.89H27.4058ZM25.6947 35.1953L25.2646 35.6372L24.8247 35.1953L25.2646 34.7632L25.6947 35.1953ZM26.5648 35.1953L26.1249 35.6372L25.6947 35.1953L26.1249 34.7632L26.5648 35.1953Z" fill="#56756C"/>
<path d="M28.7882 39.4438H28.1792V35.3798L28.7882 34.7681V39.4438Z" fill="#56756C"/>
<path d="M31.0648 39.4439C31.0455 39.8566 30.8908 40.211 30.5863 40.5072C30.2866 40.7985 29.9289 40.949 29.5181 40.949H28.8752L29.5036 40.3275H29.5181C29.7743 40.3275 29.9966 40.2353 30.1803 40.0508C30.364 39.8663 30.4558 39.6478 30.4558 39.3856V37.0453L31.0648 36.4238V39.4439Z" fill="#56756C"/>
<path d="M32.9547 39.4438H31.8623V35.3798L32.4713 34.7681V38.832H32.9547V39.4438Z" fill="#56756C"/>
<path d="M34.3032 38.832V39.4438H32.8531V38.832H34.3032Z" fill="#56756C"/>
<path d="M35.6615 38.832V39.4438H34.2114V38.832H35.6615Z" fill="#56756C"/>
<path d="M37.0776 39.4438H36.5266V39.065C36.2221 39.3224 35.9273 39.4535 35.6421 39.4535C35.5937 39.4535 35.5551 39.4535 35.5212 39.4438H35.5309V38.832H35.6082C35.9563 38.7786 36.1931 38.6378 36.3139 38.4096C36.4154 38.2202 36.4686 37.9046 36.4686 37.4628L36.4589 37.0501L37.068 36.4286V37.8949C37.068 38.2396 36.9616 38.5552 36.7489 38.8368H37.0776V39.4486V39.4438ZM40.4901 39.4438H39.5475V39.0359C39.3349 39.2253 39.1077 39.3467 38.8612 39.4001C38.7258 39.4292 38.4648 39.4438 38.0782 39.4438V39.0359C37.822 39.2787 37.503 39.4146 37.126 39.4438H37.068L37.0776 38.832C37.5223 38.832 37.8026 38.6281 37.9187 38.2202C37.9573 38.0648 37.9767 37.6813 37.9767 37.0646L38.5857 36.4237V37.89C38.5857 38.2348 38.4793 38.5504 38.2667 38.832H38.5083C38.9627 38.832 39.2479 38.6281 39.3687 38.2202C39.4267 38.0406 39.4557 37.657 39.4557 37.0646L40.0647 36.4237V37.89C40.0647 38.2348 39.9535 38.5504 39.736 38.832H40.4901V39.4438ZM38.1893 35.8799L37.7591 36.312L37.329 35.8799L37.7591 35.4478L38.1893 35.8799ZM38.7403 35.205L38.3102 35.6372L37.88 35.205L38.3102 34.7632L38.7403 35.205ZM39.3059 35.8799L38.8757 36.312L38.4455 35.8799L38.8757 35.4478L39.3059 35.8799Z" fill="#56756C"/>
<path d="M42.3896 39.4438H41.3939V39.065C41.1039 39.3175 40.7656 39.4438 40.3886 39.4438H40.3789L40.3886 38.832C40.8478 38.832 41.1378 38.6232 41.2586 38.2105C41.3021 38.0308 41.3263 37.6424 41.3263 37.0355L41.9353 36.4237V37.89C41.9353 38.2348 41.829 38.5504 41.6163 38.832H42.3896V39.4438ZM41.4858 35.1953L41.0556 35.6372L40.6254 35.1953L41.0556 34.7632L41.4858 35.1953ZM42.3558 35.1953L41.9256 35.6372L41.4858 35.1953L41.9256 34.7632L42.3558 35.1953Z" fill="#56756C"/>
<path d="M43.8397 39.4438H43.2887V39.0651C42.9842 39.3224 42.6893 39.4535 42.4042 39.4535C42.3607 39.4535 42.3172 39.4535 42.2833 39.4438H42.293V38.832H42.3703C42.7183 38.7786 42.9552 38.6378 43.076 38.4096C43.1775 38.2203 43.2307 37.9047 43.2307 37.4628L43.221 37.0501L43.83 36.4286V37.895C43.83 38.2397 43.7237 38.5553 43.511 38.8369H43.8349V39.4487L43.8397 39.4438ZM46.8316 37.8901C46.8316 38.4436 46.6286 38.8466 46.2226 39.1088C45.8891 39.3321 45.4348 39.4438 44.8499 39.4438V39.036C44.5744 39.2884 44.2264 39.4244 43.801 39.4438L43.8107 38.832C44.2554 38.832 44.5454 38.6281 44.6711 38.2251C44.7291 38.0309 44.7532 37.6425 44.7484 37.0598L45.3574 36.4189V37.8852C45.3574 38.23 45.2511 38.5456 45.0384 38.8272H45.2801C45.7248 38.8272 46.0148 38.6233 46.1404 38.2203C46.1984 38.026 46.2226 37.6376 46.2178 37.055L46.8365 36.4141V37.8804L46.8316 37.8901Z" fill="#56756C"/>
<path d="M50.1474 38.832V39.4438H49.4417C49.316 39.4778 49.1662 39.3952 48.9874 39.1962C48.9149 39.2496 48.7747 39.303 48.5668 39.3612C48.3397 39.4195 48.1318 39.4486 47.9482 39.4486L47.3295 38.8272C47.9192 38.8272 48.301 38.8029 48.475 38.7495C48.8859 38.6281 49.0937 38.3416 49.0937 37.8852V35.3798L49.7027 34.7681V37.8852C49.6302 38.361 49.5094 38.6815 49.3499 38.8417L50.1474 38.832ZM48.3928 38.5553H47.7838V35.3798L48.3928 34.7681V38.5553Z" fill="#56756C"/>
<path d="M51.583 37.8901C51.583 38.3173 51.4332 38.6815 51.1286 38.9874C50.8241 39.2933 50.4616 39.4438 50.0363 39.4438H50.0266L50.0363 38.832C50.2925 38.832 50.5148 38.7398 50.6985 38.5504C50.8821 38.361 50.974 38.1425 50.974 37.8901V35.3798L51.583 34.7681V37.8901Z" fill="#56756C"/>
<path d="M56.9916 37.89C56.9916 38.3173 56.8418 38.6815 56.5373 38.9874C56.2328 39.2932 55.8703 39.4438 55.4449 39.4438H54.077V36.4237L56.9868 36.4334V37.89H56.9916ZM56.4164 35.1953L55.9766 35.6372L55.5464 35.1953L55.1162 35.6372L54.6764 35.1953L55.1162 34.7632L55.5464 35.1953L55.9766 34.7632L56.4164 35.1953ZM56.3826 37.89V37.0355H54.6909V38.832H55.4497C55.7011 38.832 55.9186 38.7397 56.1071 38.5552C56.2908 38.3707 56.3874 38.1522 56.3874 37.89H56.3826Z" fill="#56756C"/>
<path d="M61.1436 39.4439H60.6699C60.6603 39.8664 60.5008 40.2208 60.2011 40.5121C59.9014 40.8035 59.5437 40.9491 59.1329 40.9491H57.765L58.3837 40.3373C58.9347 40.3373 59.3021 40.3082 59.4857 40.2499C59.8772 40.1237 60.0706 39.8372 60.0706 39.3954V39.1284C59.7902 39.342 59.4761 39.4488 59.1329 39.4488H57.765V36.4385H60.6748V38.837H61.1388V39.4488L61.1436 39.4439ZM60.0706 37.8902V37.0454H58.3789V38.8322C58.9347 38.8322 59.3021 38.803 59.4857 38.7448C59.8772 38.6185 60.0706 38.3321 60.0706 37.8902Z" fill="#56756C"/>
<path d="M62.5163 38.832V39.4438H61.0663V38.832H62.5163Z" fill="#56756C"/>
<path d="M66.2719 38.832V39.4438H65.2569V39.0748C64.9669 39.3224 64.6333 39.4438 64.2708 39.4438H62.4486V38.832H62.903V36.4237H65.8176V37.8901C65.8176 38.2348 65.7064 38.5504 65.4889 38.832H66.2719ZM64.3627 35.2002L63.9228 35.642L63.4926 35.2002L63.9228 34.7681L64.3627 35.2002ZM65.194 37.0404H63.512V38.8369H64.2612C64.5173 38.8369 64.7397 38.7446 64.9234 38.5601C65.107 38.3756 65.1989 38.1571 65.1989 37.8949V37.0404H65.194ZM65.2182 35.2002L64.788 35.642L64.3578 35.2002L64.788 34.7681L65.2182 35.2002Z" fill="#56756C"/>
<path d="M67.7075 37.8901C67.7075 38.3173 67.5577 38.6815 67.2532 38.9874C66.9486 39.2933 66.5861 39.4438 66.1608 39.4438H66.1511L66.1608 38.832C66.417 38.832 66.6393 38.7398 66.823 38.5504C67.0067 38.361 67.0985 38.1425 67.0985 37.8901V35.3798L67.7075 34.7681V37.8901Z" fill="#56756C"/>
<path d="M69.1091 39.4438H68.5001V35.3798L69.1091 34.7681V39.4438Z" fill="#56756C"/>
<path d="M74.9578 39.4438H74.5131C74.4938 39.8565 74.3391 40.2158 74.0394 40.5119C73.7397 40.8081 73.3869 40.9538 72.976 40.9538H71.6082V37.9435L72.2172 37.3317V40.3372H72.9712C73.2225 40.3372 73.4401 40.2449 73.6286 40.0555C73.8171 39.8662 73.9089 39.6477 73.9089 39.3855V37.0404L74.5179 36.4286V38.8368H74.9578V39.4486V39.4438ZM73.3337 35.1953L72.9035 35.6372L72.4637 35.1953L72.9035 34.7632L73.3337 35.1953Z" fill="#56756C"/>
<path d="M78.7133 37.8902C78.7133 38.3174 78.5635 38.6816 78.259 38.9875C77.9544 39.2934 77.5919 39.4439 77.1666 39.4439H75.7987V39.1137C75.5184 39.3322 75.2042 39.4439 74.861 39.4439H74.8175V38.8321C75.209 38.8321 75.4797 38.6816 75.6344 38.3854C75.7455 38.1718 75.7987 37.8465 75.7987 37.3998V36.4238H78.7085V37.8902H78.7133ZM78.1043 37.8902V37.0356H76.4126V38.8321H77.1714C77.4228 38.8321 77.6403 38.7398 77.8288 38.5505C78.0124 38.366 78.1091 38.1426 78.1091 37.8902H78.1043Z" fill="#56756C"/>
<path d="M80.5791 39.4438H79.4867V35.3798L80.0957 34.7681V38.832H80.5791V39.4438Z" fill="#56756C"/>
<path d="M81.9276 38.832V39.4438H80.4775V38.832H81.9276Z" fill="#56756C"/>
<path d="M86.2826 39.4437H85.2096V39.1233C84.9292 39.3369 84.6151 39.4437 84.2719 39.4437H81.86V38.832H84.2719C84.5281 38.832 84.7504 38.7397 84.9389 38.5552C85.1274 38.3707 85.2193 38.1522 85.2193 37.89V37.0355H82.3143V36.4237C82.933 36.4237 83.3245 36.2975 83.484 36.045C83.6 35.8605 83.6532 35.4332 83.6532 34.7583L84.2622 35.3701C84.2574 35.7925 84.1462 36.1421 83.9335 36.4237H85.8234V37.89C85.8234 38.2347 85.7171 38.5503 85.4948 38.832H86.2778V39.4437H86.2826Z" fill="#56756C"/>
<path d="M90.0188 37.8902C90.0188 38.3174 89.869 38.6816 89.5645 38.9875C89.26 39.2934 88.8975 39.4439 88.4721 39.4439H87.1043V39.1137C86.8239 39.3322 86.5097 39.4439 86.1666 39.4439H86.123V38.8321C86.5146 38.8321 86.7852 38.6816 86.9399 38.3854C87.0462 38.1718 87.1043 37.8465 87.1043 37.3998V36.4238H90.0188V37.8902ZM89.4098 37.8902V37.0356H87.7181V38.8321H88.4721C88.7235 38.8321 88.941 38.7398 89.1295 38.5505C89.318 38.3611 89.4098 38.1426 89.4098 37.8902Z" fill="#56756C"/>
<path d="M95.8625 39.4438H94.804V39.1136C94.5236 39.3321 94.2095 39.4438 93.8663 39.4438H92.4984V36.4237L95.4082 36.4334V38.832H95.8529V39.4438H95.8625ZM94.8427 35.1953L94.4028 35.6372L93.9726 35.1953L93.5424 35.6372L93.1026 35.1953L93.5424 34.7632L93.9726 35.1953L94.4028 34.7632L94.8427 35.1953ZM94.8088 37.0355H93.1171V38.832H93.8663C94.3255 38.832 94.6155 38.6232 94.7363 38.2008C94.7895 38.026 94.8137 37.6376 94.8137 37.0355H94.8088Z" fill="#56756C"/>
<path d="M97.2546 38.832V39.4438H95.8046V38.832H97.2546Z" fill="#56756C"/>
<path d="M101.155 36.4237V37.8901C101.155 38.3173 101.005 38.6815 100.701 38.9874C100.396 39.2933 100.029 39.4438 99.5988 39.4438H97.1869V38.832H99.5988C99.855 38.832 100.077 38.7398 100.266 38.5553C100.449 38.3708 100.546 38.1523 100.546 37.8901V37.0355H97.6412V36.4237C98.2599 36.4237 98.6466 36.2975 98.8109 36.045C98.9269 35.8654 98.9849 35.4381 98.9849 34.7681L99.594 35.3798C99.5891 35.8071 99.478 36.1518 99.2653 36.4237H101.155Z" fill="#56756C"/>
<path d="M103.91 39.4439H103.412C103.403 39.8566 103.243 40.211 102.944 40.5072C102.644 40.7985 102.286 40.949 101.875 40.949H101.233L101.861 40.3275H101.88C102.136 40.3275 102.359 40.2353 102.542 40.0508C102.726 39.8663 102.818 39.6478 102.818 39.3856V37.0453L103.427 36.4238V38.8321H103.915V39.4439H103.91Z" fill="#56756C"/>
<path d="M105.327 39.4438H104.776V39.065C104.471 39.3224 104.176 39.4535 103.891 39.4535C103.847 39.4535 103.804 39.4535 103.77 39.4438H103.78V38.832H103.857C104.205 38.7786 104.442 38.6378 104.563 38.4096C104.664 38.2202 104.718 37.9046 104.718 37.4628L104.708 37.0501L105.317 36.4286V37.8949C105.317 38.2396 105.211 38.5552 104.998 38.8368H105.327V39.4486V39.4438ZM108.318 37.89C108.318 38.4436 108.115 38.8466 107.709 39.1087C107.376 39.3321 106.922 39.4438 106.337 39.4438V39.0359C106.061 39.2884 105.713 39.4243 105.288 39.4438L105.298 38.832C105.742 38.832 106.032 38.6281 106.158 38.2251C106.216 38.0309 106.24 37.6424 106.235 37.0598L106.844 36.4189V37.8852C106.844 38.2299 106.738 38.5455 106.525 38.8271H106.767C107.212 38.8271 107.502 38.6232 107.627 38.2202C107.685 38.026 107.709 37.6376 107.705 37.0549L108.323 36.414V37.8803L108.318 37.89ZM106.448 35.8799L106.018 36.3218L105.588 35.8799L106.018 35.4478L106.448 35.8799ZM106.999 35.205L106.569 35.6372L106.139 35.205L106.569 34.7632L106.999 35.205ZM107.564 35.8799L107.134 36.3218L106.704 35.8799L107.134 35.4478L107.564 35.8799Z" fill="#56756C"/>
<path d="M4.66909 43.794C4.66426 43.7066 4.64009 43.6289 4.60142 43.5561C4.56275 43.4832 4.50959 43.425 4.44192 43.3764C4.37425 43.3279 4.29691 43.289 4.20508 43.2647C4.11324 43.2405 4.01174 43.2259 3.90057 43.2259C3.70723 43.2259 3.55256 43.2696 3.44622 43.3521C3.33988 43.4347 3.28671 43.5561 3.28671 43.7114C3.28671 43.7648 3.29638 43.8134 3.32055 43.8522C3.34471 43.8911 3.38338 43.9251 3.44622 43.9591C3.50905 43.993 3.60089 44.027 3.71206 44.061C3.82806 44.095 3.9779 44.1339 4.16641 44.1727C4.42258 44.231 4.63526 44.2892 4.80443 44.3523C4.9736 44.4155 5.10894 44.4883 5.21528 44.5757C5.32161 44.6631 5.38928 44.765 5.43278 44.8864C5.47628 45.0078 5.49562 45.1535 5.49562 45.3234C5.49562 45.4934 5.46178 45.6487 5.38928 45.7847C5.32161 45.9206 5.22011 46.042 5.0896 46.1391C4.9591 46.2362 4.80443 46.3091 4.62076 46.3625C4.43708 46.4159 4.23408 46.4402 4.0069 46.4402C3.77973 46.4402 3.57189 46.411 3.38822 46.3576C3.20938 46.3042 3.05471 46.2217 2.92903 46.1197C2.80336 46.0129 2.70669 45.8866 2.63419 45.7313C2.56169 45.5759 2.52302 45.406 2.51819 45.2069H3.24805C3.25771 45.4011 3.32538 45.5516 3.45589 45.6536C3.58639 45.7555 3.77006 45.809 4.0069 45.809C4.24374 45.809 4.44192 45.7701 4.57725 45.6924C4.71259 45.6147 4.78026 45.5031 4.78026 45.3671C4.78026 45.2991 4.77059 45.2457 4.75126 45.1972C4.73193 45.1486 4.69809 45.1098 4.64492 45.0709C4.59175 45.0321 4.51442 44.9981 4.41292 44.969C4.31141 44.9398 4.18091 44.901 4.01657 44.867C3.74106 44.8087 3.51389 44.7456 3.33021 44.6825C3.14654 44.6194 2.9967 44.5466 2.88553 44.4592C2.77436 44.3766 2.69219 44.2795 2.64386 44.163C2.59552 44.0513 2.57136 43.9105 2.57136 43.7503C2.57136 43.5755 2.60519 43.4153 2.67286 43.2696C2.74053 43.1288 2.8372 43.0074 2.95804 42.9054C3.08371 42.8035 3.22871 42.7306 3.40272 42.6724C3.57672 42.619 3.7749 42.5898 3.98757 42.5898C4.19058 42.5898 4.37425 42.619 4.53859 42.6724C4.70293 42.7258 4.85276 42.8083 4.9736 42.9152C5.09927 43.022 5.19594 43.1434 5.26844 43.2939C5.34095 43.4395 5.38445 43.6046 5.39895 43.7891H4.65942L4.66909 43.794Z" fill="#56756C"/>
<path d="M7.66108 46.3575C7.59824 46.3575 7.5354 46.3623 7.4629 46.3672C7.3904 46.3672 7.31306 46.3672 7.22606 46.3672C7.10039 46.3672 6.99405 46.3575 6.90705 46.3332C6.82005 46.3089 6.74755 46.2798 6.68954 46.2312C6.63154 46.1827 6.59287 46.1244 6.56387 46.0516C6.53487 45.9788 6.52521 45.8914 6.52521 45.7894V44.1337H6.14819V43.6336H6.52521V42.9102H7.23089V43.6336H7.66591V44.1337H7.23089V45.668C7.23089 45.702 7.23089 45.7263 7.2454 45.7457C7.2599 45.7651 7.26956 45.7797 7.2889 45.7942C7.30823 45.804 7.33723 45.8137 7.3759 45.8185C7.41457 45.8185 7.4629 45.8234 7.51607 45.8234H7.66591V46.3526L7.66108 46.3575Z" fill="#56756C"/>
<path d="M8.51167 46.3431V43.6435H9.18352V44.1291C9.27053 43.9446 9.37686 43.8038 9.4977 43.7115C9.62337 43.6144 9.75871 43.5707 9.91338 43.5756H10.0729V44.3039C10.0101 44.299 9.93755 44.2942 9.86021 44.2942C9.43487 44.2942 9.21736 44.5078 9.21736 44.9399V46.3431H8.50684H8.51167Z" fill="#56756C"/>
<path d="M12.0788 46.4112C11.871 46.4112 11.6777 46.3772 11.5085 46.3141C11.3393 46.2461 11.1943 46.1539 11.0735 46.0325C10.9526 45.9111 10.8608 45.7606 10.798 45.5907C10.7351 45.4207 10.7013 45.2265 10.7013 45.0129C10.7013 44.7992 10.7351 44.5953 10.798 44.4205C10.8608 44.2457 10.9526 44.0904 11.0735 43.969C11.1943 43.8476 11.3345 43.7456 11.5085 43.6776C11.6777 43.6097 11.8662 43.5757 12.0788 43.5757C12.2915 43.5757 12.48 43.6097 12.6492 43.6776C12.8184 43.7456 12.9634 43.8427 13.0842 43.969C13.205 44.0952 13.2969 44.2457 13.3597 44.4205C13.4225 44.5953 13.4564 44.7944 13.4564 45.0129C13.4564 45.2314 13.4225 45.4207 13.3597 45.5907C13.2969 45.7655 13.205 45.9111 13.0842 46.0325C12.9634 46.1539 12.8184 46.2461 12.6492 46.3141C12.48 46.3821 12.2915 46.4161 12.0788 46.4161V46.4112ZM12.0788 45.8189C12.2915 45.8189 12.451 45.7509 12.5622 45.6101C12.6734 45.4693 12.7265 45.2702 12.7265 44.9983C12.7265 44.7264 12.6734 44.5176 12.5622 44.3768C12.451 44.236 12.2915 44.168 12.0788 44.168C11.8662 44.168 11.7067 44.2409 11.5955 44.3768C11.4843 44.5176 11.4312 44.7264 11.4312 44.9983C11.4312 45.2702 11.4843 45.4693 11.5955 45.6101C11.7018 45.7509 11.8662 45.8189 12.0788 45.8189Z" fill="#56756C"/>
<path d="M14.3553 46.3432V43.6437H15.0272V44.0467C15.119 43.8864 15.235 43.7699 15.3704 43.6922C15.5057 43.6145 15.6749 43.5757 15.8779 43.5757C16.0181 43.5757 16.1486 43.6 16.2597 43.6437C16.3709 43.6874 16.4676 43.7505 16.5449 43.833C16.6223 43.9156 16.6851 44.0127 16.7238 44.1341C16.7673 44.2554 16.7866 44.3865 16.7866 44.5322V46.3481H16.0761V44.6584C16.0761 44.3331 15.9311 44.168 15.6411 44.168C15.4525 44.168 15.3124 44.2263 15.2109 44.338C15.1094 44.4497 15.061 44.6147 15.061 44.8235V46.3481H14.3553V46.3432Z" fill="#56756C"/>
<path d="M19.0632 46.9064C19.2613 46.9064 19.4063 46.8579 19.4934 46.7608C19.5804 46.6637 19.6239 46.5034 19.6239 46.2801V45.9499L19.5659 46.0373C19.4112 46.2558 19.184 46.3626 18.894 46.3626C18.72 46.3626 18.5605 46.3287 18.4155 46.2607C18.2705 46.1927 18.1496 46.1004 18.0481 45.9791C17.9466 45.8577 17.8693 45.712 17.8113 45.5421C17.7581 45.3721 17.7291 45.1876 17.7291 44.9789C17.7291 44.7701 17.7581 44.5807 17.8113 44.4059C17.8645 44.2311 17.9418 44.0855 18.0433 43.9592C18.1448 43.833 18.2608 43.7407 18.401 43.6728C18.5412 43.6048 18.6958 43.5708 18.865 43.5708C19.2275 43.5708 19.4885 43.7262 19.6529 44.0369V43.6388H20.3199V46.1976C20.3199 46.6248 20.2135 46.9356 20.0057 47.1395C19.7979 47.3434 19.4692 47.4454 19.0245 47.4454C18.8408 47.4454 18.6813 47.426 18.5315 47.392C18.3865 47.358 18.2608 47.3046 18.1545 47.2318C18.0481 47.1589 17.966 47.0764 17.908 46.9793C17.85 46.8822 17.8161 46.7656 17.8065 46.6394H18.5798C18.5847 46.7316 18.6282 46.7996 18.7055 46.8385C18.7828 46.8822 18.9037 46.9016 19.068 46.9016L19.0632 46.9064ZM19.039 44.1874C18.8553 44.1874 18.7103 44.2603 18.6088 44.4011C18.5073 44.5419 18.4541 44.7409 18.4541 44.9886C18.4541 45.2362 18.5073 45.4304 18.6088 45.5664C18.7103 45.7023 18.8553 45.7703 19.039 45.7703C19.1308 45.7703 19.213 45.7509 19.2903 45.7169C19.3677 45.6829 19.4257 45.6295 19.4788 45.5615C19.532 45.4935 19.5707 45.411 19.5949 45.3139C19.6239 45.2168 19.6335 45.1051 19.6335 44.9837C19.6335 44.7312 19.5804 44.537 19.474 44.4011C19.3677 44.2651 19.2227 44.1923 19.039 44.1923V44.1874Z" fill="#56756C"/>
<path d="M23.6212 46.3432V42.6968H25.1389C25.5546 42.6968 25.8688 42.7939 26.0863 42.9881C26.299 43.1823 26.4053 43.4639 26.4053 43.8378C26.4053 44.2311 26.299 44.5321 26.0863 44.736C25.8736 44.94 25.5594 45.0419 25.1389 45.0419H24.9118C24.8103 45.0419 24.7184 45.0419 24.6314 45.0419C24.5444 45.0419 24.4574 45.0419 24.3801 45.0419V46.3383H23.6212V46.3432ZM24.3801 44.4156H25.0133C25.4386 44.4156 25.6513 44.2262 25.6513 43.8475C25.6513 43.4979 25.4386 43.328 25.0133 43.328H24.3801V44.4156Z" fill="#56756C"/>
<path d="M27.3672 42.6724H28.0825V43.3327H27.3672V42.6724ZM27.372 46.343V43.6434H28.0825V46.343H27.372Z" fill="#56756C"/>
<path d="M29.1846 46.3432V42.6968H29.8903V46.3432H29.1846Z" fill="#56756C"/>
<path d="M31.0116 46.3432V42.6968H31.7173V46.3432H31.0116Z" fill="#56756C"/>
<path d="M33.4477 46.4111C33.3221 46.4111 33.2109 46.3917 33.1094 46.3577C33.0079 46.3189 32.9209 46.2703 32.8484 46.1975C32.7759 46.1295 32.7179 46.047 32.6792 45.9547C32.6406 45.8625 32.6212 45.7508 32.6212 45.6343C32.6212 45.3915 32.6889 45.1924 32.8242 45.0419C32.9596 44.8914 33.1626 44.7992 33.4236 44.7603L33.8924 44.6923C33.9456 44.6826 33.9988 44.6778 34.0471 44.6632C34.0954 44.6535 34.1389 44.6389 34.1776 44.6195C34.2163 44.6001 34.2453 44.5758 34.2646 44.5418C34.2839 44.5078 34.2984 44.469 34.2984 44.4156C34.2984 44.3233 34.2549 44.2505 34.1728 44.2019C34.0906 44.1534 33.9746 44.1291 33.8296 44.1291C33.6943 44.1291 33.5879 44.1631 33.5106 44.2262C33.4332 44.2942 33.3946 44.3864 33.3897 44.5078H32.7082C32.7421 43.8766 33.1384 43.561 33.9069 43.561C34.0713 43.561 34.2211 43.5805 34.3516 43.6144C34.4821 43.6484 34.5981 43.7018 34.6899 43.7698C34.7818 43.8378 34.8543 43.9203 34.9075 44.0174C34.9606 44.1145 34.9848 44.2262 34.9848 44.3476V45.8576C34.9848 45.9159 34.9848 45.9693 34.9896 46.0081C34.9896 46.047 34.9993 46.081 35.0138 46.1101C35.0283 46.1392 35.0428 46.1587 35.0573 46.1781C35.0766 46.1975 35.1008 46.2121 35.1346 46.2218V46.3237H34.3661C34.3516 46.2703 34.3371 46.2169 34.3274 46.1635C34.3178 46.1101 34.3081 46.0567 34.3033 46.0033C34.0809 46.2606 33.7958 46.3917 33.4429 46.3917L33.4477 46.4111ZM34.2984 45.343V45.0371C34.2549 45.0565 34.2114 45.0808 34.1534 45.1002C34.1003 45.1196 34.0374 45.1342 33.9698 45.1487L33.7088 45.1973C33.4574 45.241 33.3317 45.3624 33.3317 45.5614C33.3317 45.6683 33.3607 45.7557 33.4187 45.8139C33.4767 45.8722 33.5541 45.9062 33.6604 45.9062C33.7426 45.9062 33.8199 45.8965 33.8973 45.8722C33.9746 45.8479 34.0423 45.8139 34.1003 45.7702C34.1583 45.7265 34.2066 45.6683 34.2453 45.5954C34.2791 45.5226 34.2984 45.4401 34.2984 45.3478V45.343Z" fill="#56756C"/>
<path d="M36.0142 46.3431V43.6435H36.6861V44.1291C36.7731 43.9446 36.8794 43.8038 37.0003 43.7115C37.1211 43.6144 37.2613 43.5707 37.4159 43.5756H37.5754V44.3039C37.5126 44.299 37.4401 44.2942 37.3628 44.2942C36.9326 44.2942 36.7199 44.5078 36.7199 44.9399V46.3431H36.0094H36.0142Z" fill="#56756C"/>
<path d="M39.9149 44.4545C39.9149 44.3477 39.8714 44.2651 39.7844 44.202C39.6974 44.1389 39.5863 44.1098 39.4413 44.1098C39.2963 44.1098 39.1996 44.1341 39.1222 44.1777C39.0449 44.2214 39.0062 44.2894 39.0062 44.3768C39.0062 44.406 39.0159 44.4351 39.0352 44.4594C39.0546 44.4836 39.0884 44.5079 39.1367 44.5322C39.1851 44.5565 39.2431 44.5759 39.3204 44.6002C39.3929 44.6244 39.4848 44.6439 39.5959 44.6681C40.0358 44.7652 40.3258 44.8721 40.466 44.9886C40.6158 45.1051 40.6883 45.2896 40.6883 45.5373C40.6883 45.6683 40.6593 45.7897 40.6061 45.8966C40.5481 46.0034 40.4708 46.0956 40.3693 46.1733C40.2678 46.251 40.1421 46.3093 40.0019 46.353C39.8569 46.3967 39.7023 46.4161 39.5283 46.4161C39.1126 46.4161 38.7936 46.3384 38.5712 46.1782C38.3489 46.0179 38.2329 45.7897 38.2184 45.4838H38.9386C38.9434 45.6101 38.9966 45.7072 39.1029 45.7752C39.2044 45.8431 39.3494 45.8771 39.5283 45.8771C39.6684 45.8771 39.7796 45.8529 39.8618 45.8043C39.9439 45.7557 39.9826 45.6878 39.9826 45.6004C39.9826 45.5712 39.9729 45.5421 39.9536 45.5178C39.9343 45.4936 39.9053 45.4693 39.8666 45.445C39.8231 45.4207 39.7699 45.4013 39.7071 45.3819C39.6394 45.3625 39.5573 45.3382 39.4606 45.3188C39.0062 45.2168 38.7017 45.11 38.5519 44.9935C38.3972 44.8818 38.3199 44.707 38.3199 44.4691C38.3199 44.338 38.3441 44.2166 38.3972 44.1049C38.4504 43.9932 38.5229 43.901 38.6196 43.8233C38.7162 43.7456 38.8274 43.6825 38.9627 43.6388C39.0981 43.5951 39.2431 43.5757 39.4026 43.5757C39.5863 43.5757 39.7506 43.5951 39.9004 43.6388C40.0503 43.6825 40.1759 43.7408 40.2871 43.8185C40.3935 43.8961 40.4756 43.9884 40.5385 44.0952C40.6013 44.202 40.6255 44.3234 40.6255 44.4545H39.9246H39.9149Z" fill="#56756C"/>
<path d="M45.4734 46.4451C45.2076 46.4451 44.9659 46.4014 44.7532 46.3091C44.5405 46.2217 44.3569 46.0955 44.2022 45.9304C44.0475 45.7653 43.9315 45.5663 43.8494 45.3332C43.7672 45.1002 43.7285 44.838 43.7285 44.5466C43.7285 44.2553 43.7672 43.9834 43.8494 43.7407C43.9315 43.5027 44.0475 43.294 44.2022 43.1289C44.352 42.9589 44.5357 42.8327 44.7532 42.7404C44.9659 42.6482 45.2076 42.6045 45.4734 42.6045C45.7392 42.6045 45.9809 42.6482 46.1984 42.7404C46.4159 42.8327 46.5948 42.9638 46.7494 43.1289C46.8993 43.2988 47.0153 43.5027 47.0975 43.7407C47.1796 43.9786 47.2183 44.2505 47.2183 44.5466C47.2183 44.8428 47.1748 45.1002 47.0975 45.3332C47.0153 45.5663 46.8993 45.7653 46.7446 45.9304C46.5899 46.0955 46.4063 46.2217 46.1936 46.3091C45.9809 46.3965 45.7392 46.4451 45.4734 46.4451ZM45.4734 45.7993C45.6281 45.7993 45.7682 45.7702 45.8891 45.7119C46.0099 45.6537 46.1163 45.5711 46.1984 45.4643C46.2806 45.3575 46.3483 45.2264 46.3918 45.0662C46.4353 44.9108 46.4594 44.736 46.4594 44.5369C46.4594 44.3379 46.4353 44.1582 46.3918 43.998C46.3483 43.8378 46.2806 43.7018 46.1984 43.5901C46.1163 43.4785 46.0099 43.3911 45.8891 43.3328C45.7682 43.2745 45.6281 43.2454 45.4734 43.2454C45.3187 43.2454 45.1786 43.2745 45.0577 43.3328C44.9369 43.3911 44.8306 43.4785 44.7484 43.5901C44.6662 43.7018 44.5985 43.8378 44.555 43.998C44.5115 44.1582 44.4874 44.3379 44.4874 44.5418C44.4874 44.7457 44.5115 44.9157 44.555 45.071C44.5985 45.2264 44.6662 45.3575 44.7484 45.4692C44.8306 45.5808 44.9369 45.6585 45.0577 45.7168C45.1786 45.7751 45.3187 45.8042 45.4734 45.8042V45.7993Z" fill="#56756C"/>
<path d="M48.9971 44.1434V46.3429H48.2914V44.1434H47.895V43.6433H48.2914V43.42C48.2914 43.1481 48.3639 42.949 48.5137 42.8276C48.6635 42.7062 48.8859 42.6479 49.1856 42.6479C49.2871 42.6479 49.3789 42.6528 49.4562 42.6674V43.2354H49.2339C49.1856 43.2354 49.1469 43.2354 49.1179 43.2452C49.0889 43.2549 49.0647 43.2694 49.0454 43.2889C49.0261 43.3083 49.0164 43.3423 49.0116 43.3763C49.0067 43.4151 49.0019 43.4636 49.0019 43.5219V43.6433H49.4611V44.1434H49.0019H48.9971Z" fill="#56756C"/>
<path d="M55.6189 45.0661C55.5948 45.2749 55.5416 45.4691 55.4594 45.6342C55.3773 45.7993 55.2613 45.9498 55.1259 46.0663C54.9906 46.1829 54.8311 46.28 54.6474 46.3431C54.4637 46.4062 54.2656 46.4402 54.048 46.4402C53.7919 46.4402 53.5599 46.3965 53.3569 46.3043C53.149 46.2169 52.975 46.0906 52.83 45.9255C52.685 45.7605 52.5738 45.5614 52.4965 45.3283C52.4192 45.0953 52.3805 44.8331 52.3805 44.5418C52.3805 44.2504 52.4192 43.9785 52.4965 43.7358C52.5738 43.4979 52.685 43.2939 52.83 43.124C52.975 42.9541 53.149 42.823 53.3569 42.7356C53.5647 42.6433 53.7919 42.5996 54.048 42.5996C54.2607 42.5996 54.4589 42.6287 54.6377 42.6919C54.8166 42.7501 54.9761 42.8375 55.1162 42.9541C55.2516 43.0657 55.3676 43.2065 55.4546 43.3668C55.5416 43.527 55.5996 43.7066 55.6238 43.9057H54.8649C54.8504 43.8086 54.8214 43.7212 54.7779 43.6387C54.7344 43.561 54.6764 43.493 54.6087 43.4347C54.5411 43.3813 54.4589 43.3376 54.3671 43.3085C54.2752 43.2794 54.1737 43.2648 54.0625 43.2648C53.9224 43.2648 53.7967 43.2939 53.6855 43.3522C53.5744 43.4105 53.4777 43.493 53.4004 43.6047C53.323 43.7163 53.265 43.8474 53.2215 44.0077C53.1829 44.163 53.1587 44.3427 53.1587 44.5418C53.1587 44.7408 53.178 44.9108 53.2215 45.0661C53.265 45.2215 53.323 45.3526 53.4004 45.4594C53.4777 45.5662 53.5744 45.6488 53.6855 45.7022C53.7967 45.7605 53.9224 45.7896 54.0625 45.7896C54.1737 45.7896 54.2752 45.775 54.3671 45.741C54.4589 45.707 54.5411 45.6585 54.6087 45.6002C54.6812 45.5371 54.7344 45.4643 54.7779 45.3769C54.8214 45.2895 54.8504 45.1875 54.8601 45.0807H55.6189V45.0661Z" fill="#56756C"/>
<path d="M57.7698 46.4112C57.5619 46.4112 57.3686 46.3772 57.1994 46.3141C57.0302 46.2461 56.8852 46.1539 56.7644 46.0325C56.6436 45.9111 56.5517 45.7606 56.4889 45.5907C56.426 45.4207 56.3922 45.2265 56.3922 45.0129C56.3922 44.7992 56.426 44.5953 56.4889 44.4205C56.5517 44.2457 56.6436 44.0904 56.7644 43.969C56.8852 43.8476 57.0254 43.7456 57.1994 43.6776C57.3686 43.6097 57.5571 43.5757 57.7698 43.5757C57.9824 43.5757 58.1709 43.6097 58.3401 43.6776C58.5093 43.7456 58.6543 43.8427 58.7751 43.969C58.896 44.0952 58.9878 44.2457 59.0506 44.4205C59.1135 44.5953 59.1473 44.7944 59.1473 45.0129C59.1473 45.2314 59.1135 45.4207 59.0506 45.5907C58.9878 45.7655 58.896 45.9111 58.7751 46.0325C58.6543 46.1539 58.5093 46.2461 58.3401 46.3141C58.1709 46.3821 57.9824 46.4161 57.7698 46.4161V46.4112ZM57.7698 45.8189C57.9824 45.8189 58.1419 45.7509 58.2531 45.6101C58.3643 45.4693 58.4174 45.2702 58.4174 44.9983C58.4174 44.7264 58.3643 44.5176 58.2531 44.3768C58.1419 44.236 57.9824 44.168 57.7698 44.168C57.5571 44.168 57.3976 44.2409 57.2864 44.3768C57.1752 44.5176 57.1221 44.7264 57.1221 44.9983C57.1221 45.2702 57.1752 45.4693 57.2864 45.6101C57.3927 45.7509 57.5571 45.8189 57.7698 45.8189Z" fill="#56756C"/>
<path d="M60.0464 46.3432V43.6437H60.7182V44.0467C60.8101 43.8864 60.9261 43.7699 61.0614 43.6922C61.1968 43.6145 61.3659 43.5757 61.5689 43.5757C61.7091 43.5757 61.8396 43.6 61.9508 43.6437C62.0619 43.6874 62.1586 43.7505 62.236 43.833C62.3133 43.9156 62.3761 44.0127 62.4148 44.1341C62.4583 44.2554 62.4776 44.3865 62.4776 44.5322V46.3481H61.7671V44.6584C61.7671 44.3331 61.6221 44.168 61.3321 44.168C61.1436 44.168 61.0034 44.2263 60.9019 44.338C60.8004 44.4497 60.7521 44.6147 60.7521 44.8235V46.3481H60.0464V46.3432Z" fill="#56756C"/>
<path d="M65.0587 44.4545C65.0587 44.3477 65.0152 44.2651 64.9282 44.202C64.8412 44.1389 64.7301 44.1098 64.5851 44.1098C64.4401 44.1098 64.3434 44.1341 64.2661 44.1777C64.1887 44.2214 64.15 44.2894 64.15 44.3768C64.15 44.406 64.1597 44.4351 64.179 44.4594C64.1984 44.4836 64.2322 44.5079 64.2805 44.5322C64.3289 44.5565 64.3869 44.5759 64.4642 44.6002C64.5416 44.6244 64.6334 44.6439 64.7397 44.6681C65.1796 44.7652 65.4696 44.8721 65.6098 44.9886C65.7596 45.1051 65.8321 45.2896 65.8321 45.5373C65.8321 45.6683 65.8031 45.7897 65.7499 45.8966C65.6968 46.0034 65.6146 46.0956 65.5131 46.1733C65.4116 46.251 65.2907 46.3093 65.1457 46.353C65.0007 46.3967 64.8461 46.4161 64.6721 46.4161C64.2564 46.4161 63.9374 46.3384 63.715 46.1782C63.4927 46.0179 63.3767 45.7897 63.3622 45.4838H64.0824C64.0872 45.6101 64.1404 45.7072 64.2467 45.7752C64.3482 45.8431 64.4932 45.8771 64.6721 45.8771C64.8122 45.8771 64.9234 45.8529 65.0056 45.8043C65.0877 45.7557 65.1264 45.6878 65.1264 45.6004C65.1264 45.5712 65.1167 45.5421 65.0974 45.5178C65.0781 45.4936 65.0491 45.4693 65.0104 45.445C64.9717 45.4207 64.9186 45.4013 64.8509 45.3819C64.7832 45.3625 64.7011 45.3382 64.6044 45.3188C64.15 45.2168 63.8455 45.11 63.6957 44.9935C63.541 44.8818 63.4637 44.707 63.4637 44.4691C63.4637 44.338 63.4927 44.2166 63.541 44.1049C63.5942 43.9932 63.6667 43.901 63.7634 43.8233C63.86 43.7456 63.9712 43.6825 64.1065 43.6388C64.2419 43.5951 64.3869 43.5757 64.5464 43.5757C64.7301 43.5757 64.8944 43.5951 65.0442 43.6388C65.1941 43.6825 65.3246 43.7408 65.4309 43.8185C65.5373 43.8961 65.6194 43.9884 65.6823 44.0952C65.7451 44.202 65.7693 44.3234 65.7693 44.4545H65.0684H65.0587Z" fill="#56756C"/>
<path d="M67.4706 43.6436V45.3332C67.4706 45.4983 67.5044 45.6245 67.5769 45.7022C67.6446 45.7799 67.7558 45.8188 67.9056 45.8188C68.0941 45.8188 68.2343 45.7654 68.331 45.6537C68.4276 45.542 68.476 45.3818 68.476 45.1681V43.6436H69.1865V46.3431H68.5098V45.9401C68.3455 46.2557 68.0603 46.4111 67.6639 46.4111C67.5238 46.4111 67.3933 46.3917 67.2821 46.348C67.1709 46.3043 67.0743 46.2412 66.9969 46.1635C66.9196 46.081 66.8616 45.9838 66.8181 45.8625C66.7746 45.7459 66.7552 45.61 66.7552 45.4643V43.6436H67.4658H67.4706Z" fill="#56756C"/>
<path d="M70.274 46.3432V42.6968H70.9797V46.3432H70.274Z" fill="#56756C"/>
<path d="M73.3095 46.3575C73.2467 46.3575 73.1838 46.3623 73.1113 46.3672C73.0388 46.3672 72.9615 46.3672 72.8745 46.3672C72.7488 46.3672 72.6425 46.3575 72.5555 46.3332C72.4685 46.3089 72.396 46.2798 72.338 46.2312C72.28 46.1827 72.2413 46.1244 72.2123 46.0516C72.1833 45.9788 72.1736 45.8914 72.1736 45.7894V44.1337H71.7966V43.6336H72.1736V42.9102H72.8793V43.6336H73.3143V44.1337H72.8793V45.668C72.8793 45.702 72.8793 45.7263 72.8938 45.7457C72.9083 45.7651 72.918 45.7797 72.9373 45.7942C72.9567 45.804 72.9857 45.8137 73.0243 45.8185C73.063 45.8185 73.1113 45.8234 73.1645 45.8234H73.3143V46.3526L73.3095 46.3575Z" fill="#56756C"/>
<path d="M74.1843 42.6724H74.8997V43.3327H74.1843V42.6724ZM74.1892 46.343V43.6434H74.8997V46.343H74.1892Z" fill="#56756C"/>
<path d="M75.9775 46.3432V43.6437H76.6494V44.0467C76.7412 43.8864 76.8572 43.7699 76.9926 43.6922C77.1279 43.6145 77.2971 43.5757 77.5001 43.5757C77.6403 43.5757 77.7659 43.6 77.8819 43.6437C77.9931 43.6874 78.0898 43.7505 78.1671 43.833C78.2444 43.9156 78.3073 44.0127 78.3459 44.1341C78.3894 44.2554 78.4088 44.3865 78.4088 44.5322V46.3481H77.6983V44.6584C77.6983 44.3331 77.5533 44.168 77.2632 44.168C77.0747 44.168 76.9346 44.2263 76.8331 44.338C76.7316 44.4497 76.6832 44.6147 76.6832 44.8235V46.3481H75.9775V46.3432Z" fill="#56756C"/>
<path d="M80.6805 46.9064C80.8786 46.9064 81.0237 46.8579 81.1107 46.7608C81.1977 46.6637 81.2412 46.5034 81.2412 46.2801V45.9499L81.1832 46.0373C81.0285 46.2558 80.8013 46.3626 80.5113 46.3626C80.3373 46.3626 80.1778 46.3287 80.0328 46.2607C79.8878 46.1927 79.767 46.1004 79.6654 45.9791C79.5639 45.8577 79.4866 45.712 79.4286 45.5421C79.3754 45.3721 79.3464 45.1876 79.3464 44.9789C79.3464 44.7701 79.3754 44.5807 79.4286 44.4059C79.4818 44.2311 79.5591 44.0855 79.6606 43.9592C79.7621 43.833 79.8781 43.7407 80.0183 43.6728C80.1585 43.6048 80.3131 43.5708 80.4823 43.5708C80.8448 43.5708 81.1058 43.7262 81.2702 44.0369V43.6388H81.9372V46.1976C81.9372 46.6248 81.8308 46.9356 81.623 47.1395C81.4152 47.3434 81.0865 47.4454 80.6418 47.4454C80.4581 47.4454 80.2986 47.426 80.1488 47.392C80.0038 47.358 79.8781 47.3046 79.7718 47.2318C79.6654 47.1589 79.5833 47.0764 79.5253 46.9793C79.4673 46.8822 79.4334 46.7656 79.4238 46.6394H80.1971C80.202 46.7316 80.2455 46.7996 80.3228 46.8385C80.4001 46.8822 80.521 46.9016 80.6853 46.9016L80.6805 46.9064ZM80.6563 44.1874C80.4726 44.1874 80.3276 44.2603 80.2261 44.4011C80.1246 44.5419 80.0715 44.7409 80.0715 44.9886C80.0715 45.2362 80.1246 45.4304 80.2261 45.5664C80.3276 45.7023 80.4726 45.7703 80.6563 45.7703C80.7481 45.7703 80.8303 45.7509 80.9077 45.7169C80.985 45.6829 81.043 45.6295 81.0962 45.5615C81.1493 45.4935 81.188 45.411 81.2122 45.3139C81.2412 45.2168 81.2508 45.1051 81.2508 44.9837C81.2508 44.7312 81.1977 44.537 81.0913 44.4011C80.985 44.2651 80.84 44.1923 80.6563 44.1923V44.1874Z" fill="#56756C"/>
<path d="M87.2106 43.794C87.2058 43.7066 87.1816 43.6289 87.1429 43.5561C87.1043 43.4832 87.0511 43.425 86.9834 43.3764C86.9158 43.3279 86.8384 43.289 86.7466 43.2647C86.6547 43.2405 86.5532 43.2259 86.4421 43.2259C86.2487 43.2259 86.0941 43.2696 85.9877 43.3521C85.8814 43.4347 85.8282 43.5561 85.8282 43.7114C85.8282 43.7648 85.8379 43.8134 85.8621 43.8522C85.8862 43.8911 85.9249 43.9251 85.9877 43.9591C86.0506 43.993 86.1424 44.027 86.2536 44.061C86.3696 44.095 86.5194 44.1339 86.7079 44.1727C86.9641 44.231 87.1768 44.2892 87.3459 44.3523C87.5151 44.4155 87.6504 44.4883 87.7568 44.5757C87.8631 44.6631 87.9308 44.765 87.9743 44.8864C88.0178 45.0078 88.0371 45.1535 88.0371 45.3234C88.0371 45.4934 88.0033 45.6487 87.9308 45.7847C87.8631 45.9206 87.7616 46.042 87.6311 46.1391C87.5006 46.2362 87.3459 46.3091 87.1623 46.3625C86.9786 46.4159 86.7756 46.4402 86.5484 46.4402C86.3212 46.4402 86.1134 46.411 85.9297 46.3576C85.7509 46.3042 85.5962 46.2217 85.4705 46.1197C85.3449 46.0129 85.2482 45.8866 85.1757 45.7313C85.1032 45.5759 85.0645 45.406 85.0597 45.2069H85.7896C85.7992 45.4011 85.8669 45.5516 85.9974 45.6536C86.1279 45.7555 86.3116 45.809 86.5484 45.809C86.7852 45.809 86.9834 45.7701 87.1188 45.6924C87.2541 45.6147 87.3218 45.5031 87.3218 45.3671C87.3218 45.2991 87.3121 45.2457 87.2928 45.1972C87.2734 45.1486 87.2396 45.1098 87.1864 45.0709C87.1333 45.0321 87.0559 44.9981 86.9544 44.969C86.8529 44.9398 86.7224 44.901 86.5581 44.867C86.2826 44.8087 86.0554 44.7456 85.8717 44.6825C85.688 44.6194 85.5382 44.5466 85.427 44.4592C85.3159 44.3766 85.2337 44.2795 85.1854 44.163C85.137 44.0513 85.1129 43.9105 85.1129 43.7503C85.1129 43.5755 85.1467 43.4153 85.2144 43.2696C85.282 43.1288 85.3787 43.0074 85.4995 42.9054C85.6252 42.8035 85.7702 42.7306 85.9442 42.6724C86.1182 42.619 86.3164 42.5898 86.5291 42.5898C86.7321 42.5898 86.9158 42.619 87.0801 42.6724C87.2444 42.7258 87.3943 42.8083 87.5151 42.9152C87.6408 43.022 87.7374 43.1434 87.8099 43.2939C87.8825 43.4395 87.926 43.6046 87.9405 43.7891H87.2009L87.2106 43.794Z" fill="#56756C"/>
<path d="M90.043 46.4112C89.8399 46.4112 89.6563 46.3772 89.4968 46.3141C89.3373 46.251 89.2068 46.1539 89.0956 46.0325C88.9844 45.9111 88.9071 45.7557 88.8491 45.5761C88.7911 45.3964 88.7621 45.1877 88.7621 44.9546C88.7621 44.741 88.7911 44.5468 88.8491 44.3768C88.9071 44.2069 88.9941 44.0612 89.1004 43.9398C89.2116 43.8185 89.3421 43.7311 89.5016 43.6679C89.6611 43.6048 89.84 43.5757 90.0381 43.5757C90.246 43.5757 90.4345 43.6097 90.5891 43.6728C90.7438 43.7359 90.8792 43.833 90.9855 43.9593C91.0918 44.0855 91.174 44.2409 91.2272 44.4205C91.2803 44.605 91.3093 44.8138 91.3093 45.0469C91.3093 45.0906 91.3093 45.1343 91.2997 45.1682H89.4678C89.4774 45.2896 89.4968 45.3916 89.5258 45.479C89.5548 45.5664 89.5934 45.6344 89.6466 45.6878C89.6998 45.7412 89.7626 45.78 89.8351 45.8092C89.9125 45.8334 89.9995 45.848 90.1058 45.848C90.159 45.848 90.2073 45.8383 90.2605 45.8237C90.3136 45.8092 90.3571 45.7849 90.4006 45.7557C90.4441 45.7266 90.478 45.6926 90.5118 45.6538C90.5408 45.6149 90.5601 45.5761 90.5698 45.5324H91.29C91.2562 45.6683 91.2078 45.7946 91.1353 45.9014C91.0628 46.0082 90.9758 46.1053 90.8647 46.1782C90.7535 46.251 90.6326 46.3093 90.4925 46.353C90.3523 46.3918 90.2025 46.4112 90.0333 46.4112H90.043ZM90.5843 44.7167C90.5505 44.3428 90.3668 44.1583 90.0333 44.1583C89.7385 44.1583 89.5548 44.3428 89.4871 44.7167H90.5843Z" fill="#56756C"/>
<path d="M92.1939 46.3431V43.6435H92.8658V44.1291C92.9528 43.9446 93.0591 43.8038 93.18 43.7115C93.3008 43.6144 93.441 43.5707 93.5956 43.5756H93.7551V44.3039C93.6923 44.299 93.6198 44.2942 93.5425 44.2942C93.1123 44.2942 92.8996 44.5078 92.8996 44.9399V46.3431H92.1891H92.1939Z" fill="#56756C"/>
<path d="M94.3062 43.6436H95.0892L95.6644 45.6585L96.2444 43.6436H96.9887L96.022 46.3431H95.2825L94.311 43.6436H94.3062Z" fill="#56756C"/>
<path d="M97.8104 42.6724H98.5258V43.3327H97.8104V42.6724ZM97.8153 46.343V43.6434H98.5258V46.343H97.8153Z" fill="#56756C"/>
<path d="M101.924 45.343C101.904 45.513 101.866 45.6635 101.798 45.7946C101.73 45.9257 101.653 46.0373 101.547 46.1296C101.44 46.2218 101.32 46.2898 101.184 46.3384C101.049 46.3869 100.889 46.4112 100.72 46.4112C100.517 46.4112 100.334 46.3821 100.179 46.3189C100.024 46.2558 99.8888 46.1684 99.7825 46.047C99.6761 45.9257 99.594 45.78 99.536 45.6101C99.478 45.4401 99.449 45.2362 99.449 45.008C99.449 44.7798 99.478 44.5904 99.536 44.4156C99.594 44.2408 99.681 44.0855 99.7922 43.9641C99.9033 43.8427 100.039 43.7407 100.193 43.6728C100.348 43.6048 100.527 43.5708 100.72 43.5708C100.894 43.5708 101.049 43.5951 101.194 43.6485C101.339 43.7019 101.465 43.7699 101.571 43.8621C101.677 43.9544 101.759 44.066 101.822 44.1923C101.885 44.3185 101.919 44.4593 101.924 44.6147H101.199C101.199 44.5467 101.179 44.4885 101.155 44.4302C101.131 44.3719 101.097 44.3282 101.054 44.2894C101.01 44.2506 100.962 44.2214 100.904 44.1971C100.846 44.1729 100.783 44.1632 100.715 44.1632C100.537 44.1632 100.401 44.236 100.309 44.3768C100.217 44.5176 100.169 44.7264 100.169 45.0031C100.169 45.2799 100.217 45.479 100.309 45.6149C100.401 45.7509 100.537 45.8237 100.715 45.8237C100.846 45.8237 100.952 45.78 101.044 45.6877C101.136 45.5955 101.184 45.479 101.199 45.3333H101.924V45.343Z" fill="#56756C"/>
<path d="M103.886 46.4112C103.683 46.4112 103.499 46.3772 103.34 46.3141C103.18 46.251 103.05 46.1539 102.939 46.0325C102.828 45.9111 102.75 45.7557 102.692 45.5761C102.634 45.3964 102.605 45.1877 102.605 44.9546C102.605 44.741 102.634 44.5468 102.692 44.3768C102.75 44.2069 102.837 44.0612 102.944 43.9398C103.05 43.8185 103.185 43.7311 103.345 43.6679C103.504 43.6048 103.683 43.5757 103.881 43.5757C104.089 43.5757 104.278 43.6097 104.432 43.6728C104.587 43.7359 104.722 43.833 104.829 43.9593C104.935 44.0855 105.017 44.2409 105.07 44.4205C105.123 44.6002 105.152 44.8138 105.152 45.0469C105.152 45.0906 105.152 45.1343 105.143 45.1682H103.311C103.321 45.2896 103.34 45.3916 103.369 45.479C103.398 45.5664 103.437 45.6344 103.49 45.6878C103.543 45.7412 103.606 45.78 103.678 45.8092C103.751 45.8383 103.843 45.848 103.949 45.848C104.002 45.848 104.05 45.8383 104.104 45.8237C104.157 45.8092 104.2 45.7849 104.244 45.7557C104.287 45.7266 104.321 45.6926 104.355 45.6538C104.389 45.6149 104.403 45.5761 104.413 45.5324H105.133C105.099 45.6683 105.051 45.7946 104.978 45.9014C104.906 46.0082 104.819 46.1053 104.708 46.1782C104.597 46.251 104.476 46.3093 104.336 46.353C104.195 46.3967 104.046 46.4112 103.876 46.4112H103.886ZM104.427 44.7167C104.394 44.3428 104.21 44.1583 103.876 44.1583C103.577 44.1583 103.398 44.3428 103.33 44.7167H104.427Z" fill="#56756C"/>
<path d="M107.56 44.4545C107.56 44.3477 107.516 44.2651 107.429 44.202C107.342 44.1389 107.231 44.1098 107.086 44.1098C106.941 44.1098 106.844 44.1341 106.767 44.1777C106.69 44.2214 106.651 44.2894 106.651 44.3768C106.651 44.406 106.661 44.4351 106.68 44.4594C106.699 44.4836 106.733 44.5079 106.781 44.5322C106.83 44.5565 106.888 44.5759 106.965 44.6002C107.042 44.6244 107.129 44.6439 107.241 44.6681C107.68 44.7652 107.97 44.8721 108.111 44.9886C108.26 45.1051 108.333 45.2896 108.333 45.5373C108.333 45.6683 108.304 45.7897 108.251 45.8966C108.198 46.0034 108.115 46.0956 108.014 46.1733C107.912 46.251 107.787 46.3093 107.647 46.353C107.506 46.3967 107.347 46.4161 107.173 46.4161C106.757 46.4161 106.438 46.3384 106.216 46.1782C105.994 46.0179 105.878 45.7897 105.863 45.4838H106.583C106.588 45.6101 106.641 45.7072 106.748 45.7752C106.854 45.8431 106.994 45.8771 107.173 45.8771C107.313 45.8771 107.424 45.8529 107.506 45.8043C107.589 45.7557 107.627 45.6878 107.627 45.6004C107.627 45.5712 107.618 45.5421 107.598 45.5178C107.579 45.4936 107.55 45.4693 107.511 45.445C107.473 45.4207 107.415 45.4013 107.352 45.3819C107.289 45.3625 107.202 45.3382 107.105 45.3188C106.651 45.2168 106.346 45.11 106.197 44.9935C106.042 44.8818 105.965 44.707 105.965 44.4691C105.965 44.338 105.989 44.2166 106.042 44.1049C106.095 43.9932 106.168 43.901 106.264 43.8233C106.361 43.7456 106.472 43.6825 106.607 43.6388C106.743 43.5951 106.888 43.5757 107.047 43.5757C107.231 43.5757 107.395 43.5951 107.545 43.6388C107.695 43.6825 107.821 43.7408 107.932 43.8185C108.043 43.8961 108.12 43.9884 108.183 44.0952C108.246 44.202 108.27 44.3234 108.27 44.4545H107.569H107.56Z" fill="#56756C"/>
</g>
<defs>
<clipPath id="clip0_1_1103">
<rect width="109" height="47" fill="white" transform="translate(0 0.450195)"/>
</clipPath>
</defs>
</svg>