<svg xmlns="http://www.w3.org/2000/svg" width="136" height="41" viewBox="0 0 136 41" fill="none">
<g clip-path="url(#clip0_1_1246)">
<path d="M130.5 0.950195H5.5C3.01472 0.950195 1 2.96491 1 5.4502V35.4502C1 37.9355 3.01472 39.9502 5.5 39.9502H130.5C132.985 39.9502 135 37.9355 135 35.4502V5.4502C135 2.96491 132.985 0.950195 130.5 0.950195Z" fill="#0F0F0F"/>
<path d="M130.5 0.950195H5.5C3.01472 0.950195 1 2.96491 1 5.4502V35.4502C1 37.9355 3.01472 39.9502 5.5 39.9502H130.5C132.985 39.9502 135 37.9355 135 35.4502V5.4502C135 2.96491 132.985 0.950195 130.5 0.950195Z" stroke="#59595D"/>
<path d="M107.435 30.4503H109.301V17.9483H107.435V30.4503ZM124.242 22.4523L122.103 27.8723H122.039L119.819 22.4523H117.809L121.139 30.0273L119.24 34.2413H121.186L126.317 22.4523H124.242ZM113.659 29.0303C113.049 29.0303 112.196 28.7243 112.196 27.9683C112.196 27.0033 113.258 26.6343 114.174 26.6343C114.994 26.6343 115.381 26.8103 115.879 27.0523C115.81 27.5945 115.548 28.0936 115.14 28.4573C114.732 28.8209 114.206 29.0244 113.659 29.0303ZM113.885 22.1793C112.534 22.1793 111.135 22.7743 110.556 24.0933L112.212 24.7843C112.566 24.0933 113.225 23.8683 113.917 23.8683C114.882 23.8683 115.863 24.4463 115.879 25.4763V25.6043C115.541 25.4113 114.817 25.1223 113.933 25.1223C112.147 25.1223 110.33 26.1023 110.33 27.9363C110.33 29.6093 111.794 30.6863 113.434 30.6863C114.688 30.6863 115.381 30.1243 115.814 29.4643H115.879V30.4303H117.681V25.6363C117.681 23.4163 116.023 22.1793 113.885 22.1793ZM102.353 23.9743H99.699V19.6893H102.353C103.748 19.6893 104.54 20.8433 104.54 21.8313C104.54 22.8003 103.748 23.9743 102.353 23.9743ZM102.305 17.9483H97.833V30.4503H99.7V25.7143H102.306C104.374 25.7143 106.407 24.2173 106.407 21.8313C106.407 19.4463 104.373 17.9483 102.305 17.9483ZM77.923 29.0323C76.634 29.0323 75.555 27.9523 75.555 26.4723C75.555 24.9723 76.635 23.8773 77.923 23.8773C79.196 23.8773 80.195 24.9723 80.195 26.4713C80.195 27.9533 79.195 29.0323 77.923 29.0323ZM80.066 23.1523H80C79.582 22.6523 78.776 22.2023 77.761 22.2023C75.634 22.2023 73.685 24.0713 73.685 26.4723C73.685 28.8553 75.635 30.7083 77.761 30.7083C78.776 30.7083 79.581 30.2573 80.001 29.7413H80.065V30.3533C80.065 31.9813 79.195 32.8503 77.793 32.8503C76.65 32.8503 75.941 32.0293 75.651 31.3363L74.024 32.0133C74.491 33.1403 75.731 34.5263 77.794 34.5263C79.984 34.5263 81.837 33.2373 81.837 30.0963V22.4593H80.065L80.066 23.1523ZM83.127 30.4503H84.996V17.9483H83.128L83.127 30.4503ZM87.751 26.3263C87.702 24.6823 89.024 23.8453 89.974 23.8453C90.715 23.8453 91.344 24.2153 91.554 24.7473L87.751 26.3263ZM93.551 24.9083C93.196 23.9583 92.117 22.2023 89.909 22.2023C87.719 22.2023 85.898 23.9253 85.898 26.4553C85.898 28.8393 87.703 30.7083 90.118 30.7083C92.068 30.7083 93.196 29.5163 93.663 28.8233L92.213 27.8563C91.73 28.5663 91.07 29.0323 90.119 29.0323C89.169 29.0323 88.492 28.5973 88.057 27.7433L93.743 25.3913L93.551 24.9083ZM48.242 23.5073V25.3113H52.56C52.431 26.3263 52.093 27.0673 51.577 27.5823C50.949 28.2103 49.966 28.9033 48.242 28.9033C45.584 28.9033 43.506 26.7613 43.506 24.1033C43.506 21.4443 45.584 19.3023 48.242 19.3023C49.676 19.3023 50.723 19.8663 51.497 20.5913L52.77 19.3183C51.69 18.2873 50.256 17.4983 48.242 17.4983C44.601 17.4983 41.54 20.4623 41.54 24.1033C41.54 27.7433 44.6 30.7083 48.242 30.7083C50.208 30.7083 51.69 30.0633 52.85 28.8553C54.042 27.6633 54.413 25.9883 54.413 24.6343C54.413 24.2163 54.38 23.8293 54.316 23.5073H48.242ZM59.322 29.0323C58.032 29.0323 56.92 27.9693 56.92 26.4553C56.92 24.9253 58.032 23.8773 59.321 23.8773C60.61 23.8773 61.721 24.9243 61.721 26.4553C61.721 27.9693 60.611 29.0323 59.322 29.0323ZM59.322 22.2023C56.968 22.2023 55.052 23.9903 55.052 26.4553C55.052 28.9033 56.968 30.7083 59.322 30.7083C61.673 30.7083 63.59 28.9033 63.59 26.4553C63.59 23.9903 61.674 22.2023 59.322 22.2023ZM68.634 29.0323C67.346 29.0323 66.234 27.9693 66.234 26.4553C66.234 24.9253 67.346 23.8773 68.634 23.8773C69.924 23.8773 71.034 24.9243 71.034 26.4553C71.034 27.9693 69.924 29.0323 68.634 29.0323ZM68.634 22.2023C66.282 22.2023 64.365 23.9903 64.365 26.4553C64.365 28.9033 66.282 30.7083 68.635 30.7083C70.987 30.7083 72.904 28.9033 72.904 26.4553C72.904 23.9903 70.987 22.2023 68.634 22.2023ZM44.977 13.6843C44.081 13.6843 43.31 13.3693 42.688 12.7473C42.066 12.1253 41.751 11.3473 41.751 10.4413C41.751 9.53527 42.066 8.75727 42.688 8.13427C43.31 7.51227 44.081 7.19727 44.978 7.19727C45.434 7.19727 45.861 7.27627 46.268 7.44027C46.675 7.60427 47.008 7.83227 47.272 8.13027L47.333 8.20127L46.634 8.90127L46.564 8.81527C46.3832 8.59527 46.151 8.4232 45.888 8.31427C45.5999 8.19362 45.2902 8.13338 44.978 8.13727C44.6821 8.13069 44.388 8.185 44.114 8.29681C43.8399 8.40863 43.5918 8.57556 43.385 8.78727V8.78827C42.957 9.23327 42.742 9.77427 42.742 10.4413C42.742 11.1083 42.957 11.6493 43.385 12.0943C43.5917 12.3061 43.8398 12.4733 44.1138 12.5853C44.3879 12.6972 44.682 12.7517 44.978 12.7453C45.556 12.7453 46.034 12.5843 46.41 12.2653C46.76 11.9673 46.97 11.5653 47.044 11.0533H44.878V10.1313H47.98L47.994 10.2163C48.019 10.3783 48.037 10.5343 48.037 10.6843C48.037 11.5443 47.775 12.2473 47.26 12.7643C46.68 13.3793 45.915 13.6843 44.977 13.6843ZM71.919 13.6843C71.021 13.6843 70.259 13.3693 69.646 12.7473C69.031 12.1323 68.726 11.3533 68.726 10.4413C68.726 9.52827 69.031 8.74927 69.646 8.13427C70.259 7.51227 71.021 7.19727 71.919 7.19727C72.816 7.19727 73.578 7.51227 74.192 8.14327C74.806 8.75827 75.112 9.53627 75.112 10.4413C75.112 11.3533 74.807 12.1323 74.192 12.7473C73.578 13.3693 72.808 13.6843 71.919 13.6843ZM48.925 13.5503V7.33127H52.639V8.27127H49.899V9.98027H52.37V10.9023H49.898V12.6113H52.638V13.5503H48.925ZM54.912 13.5503V8.27227H53.23V7.33227H57.566V8.27227H55.885V13.5503H54.912ZM60.338 13.5503V7.33127H61.311V13.5503H60.338ZM63.761 13.5503V8.27227H62.081V7.33227H66.416V8.27227H64.735V13.5503H63.761ZM75.976 13.5503V7.33127H77.073L79.867 11.8043L79.843 10.9543V7.33127H80.816V13.5503H79.853L76.925 8.85227L76.949 9.70027V13.5503H75.976ZM71.919 12.7453C72.551 12.7453 73.066 12.5303 73.487 12.0953V12.0943C73.914 11.6673 74.123 11.1183 74.123 10.4413C74.123 9.76527 73.913 9.21427 73.488 8.78827L73.487 8.78727C73.067 8.35227 72.551 8.13727 71.919 8.13727C71.287 8.13727 70.771 8.35127 70.343 8.78727C69.924 9.22327 69.716 9.76527 69.716 10.4413C69.716 11.1183 69.924 11.6583 70.343 12.0953C70.771 12.5303 71.287 12.7453 71.919 12.7453Z" fill="white"/>
<path d="M21.214 19.873L10.567 31.173L10.569 31.18C10.6836 31.6081 10.8956 32.0039 11.1884 32.3365C11.4812 32.6691 11.847 32.9295 12.2571 33.0973C12.6672 33.2652 13.1105 33.336 13.5525 33.3042C13.9945 33.2724 14.4232 33.1389 14.805 32.914L14.839 32.894L26.823 25.979L21.213 19.873H21.214Z" fill="#EA4335"/>
<path d="M31.986 17.9504L31.976 17.9424L26.802 14.9434L20.972 20.1304L26.822 25.9784L31.968 23.0084C32.4245 22.7631 32.8063 22.3991 33.073 21.9548C33.3397 21.5105 33.4815 21.0024 33.4833 20.4842C33.4852 19.966 33.347 19.4569 33.0835 19.0108C32.8199 18.5646 32.4407 18.1989 31.986 17.9504Z" fill="#FBBC04"/>
<path d="M10.567 9.72705C10.502 9.96833 10.4694 10.2172 10.47 10.4671V30.434C10.47 30.6901 10.503 30.9381 10.568 31.1741L21.58 20.163L10.567 9.72705Z" fill="#4285F4"/>
<path d="M21.293 20.4502L26.803 14.9412L14.833 8.00118C14.4507 7.77192 14.0204 7.63447 13.576 7.59963C13.1316 7.5648 12.6852 7.63353 12.2718 7.80042C11.8585 7.96731 11.4894 8.22782 11.1938 8.56145C10.8982 8.89509 10.6839 9.29275 10.568 9.72318V9.72718L21.293 20.4502Z" fill="#34A853"/>
</g>
<defs>
<clipPath id="clip0_1_1246">
<rect width="135" height="40" fill="white" transform="translate(0.5 0.450195)"/>
</clipPath>
</defs>
</svg>