<svg xmlns="http://www.w3.org/2000/svg" width="40" height="45" viewBox="0 0 40 45" fill="none">
<g clip-path="url(#clip0_1_978)">
<path d="M39.8681 11.065C38.2235 10.3071 36.4338 9.91572 34.6231 9.91796C27.6961 9.91796 22.0801 15.533 22.0801 22.46C22.0801 29.387 27.6951 35.002 34.6221 35.002C36.4941 35.002 38.2711 34.592 39.8671 33.855C36.0671 39.925 29.3201 43.96 21.6321 43.96C9.75906 43.96 0.133057 34.334 0.133057 22.46C0.133057 10.586 9.75906 0.959961 21.6331 0.959961C29.3211 0.959961 36.0671 4.99596 39.8681 11.065Z" fill="#EF4444"/>
<path d="M39.8681 22.46C39.8777 23.1549 39.7491 23.8448 39.4898 24.4897C39.2305 25.1345 38.8456 25.7214 38.3576 26.2162C37.8695 26.711 37.288 27.1039 36.6469 27.3721C36.0057 27.6403 35.3176 27.7784 34.6226 27.7784C33.9276 27.7784 33.2395 27.6403 32.5983 27.3721C31.9571 27.1039 31.3756 26.711 30.8876 26.2162C30.3995 25.7214 30.0147 25.1345 29.7554 24.4897C29.4961 23.8448 29.3675 23.1549 29.3771 22.46C29.4039 21.0867 29.9683 19.7786 30.949 18.8169C31.9297 17.8551 33.2485 17.3164 34.6221 17.3164C35.9957 17.3164 37.3145 17.8551 38.2952 18.8169C39.2759 19.7786 39.8413 21.0867 39.8681 22.46Z" fill="#EF4444"/>
</g>
<defs>
<clipPath id="clip0_1_978">
<rect width="40" height="44" fill="white" transform="translate(0 0.459961)"/>
</clipPath>
</defs>
</svg>