<svg xmlns="http://www.w3.org/2000/svg" width="40" height="45" viewBox="0 0 40 45" fill="none">
<g clip-path="url(#clip0_1_1012)">
<path d="M18.353 1.32705C18.7695 1.08657 19.242 0.959961 19.723 0.959961C20.2039 0.959961 20.6764 1.08657 21.093 1.32705L37.34 10.7071C37.7565 10.9475 38.1024 11.2935 38.3429 11.71C38.5834 12.1265 38.71 12.5991 38.71 13.0801V23.5501L21.503 13.6351C21.3079 13.5176 21.0913 13.4402 20.8659 13.4074C20.6406 13.3746 20.411 13.3871 20.1905 13.4441C19.97 13.5012 19.7631 13.6016 19.5819 13.7395C19.4007 13.8774 19.2488 14.0501 19.1351 14.2474C19.0214 14.4447 18.9482 14.6628 18.9198 14.8887C18.8914 15.1147 18.9083 15.344 18.9695 15.5633C19.0308 15.7827 19.1351 15.9876 19.2765 16.1661C19.4179 16.3446 19.5935 16.4932 19.793 16.6031L38.71 27.5051V31.84C38.71 32.321 38.5834 32.7936 38.3429 33.2101C38.1024 33.6267 37.7565 33.9726 37.34 34.2131L21.093 43.5931C20.6764 43.8335 20.2039 43.9601 19.723 43.9601C19.242 43.9601 18.7695 43.8335 18.353 43.5931L2.10696 34.2131C1.69042 33.9726 1.34452 33.6267 1.10403 33.2101C0.863544 32.7936 0.736946 32.321 0.736962 31.84V21.4001L17.829 31.2831C18.2223 31.5105 18.6898 31.5723 19.1288 31.455C19.5677 31.3377 19.942 31.0509 20.1695 30.6576C20.3969 30.2642 20.4587 29.7967 20.3414 29.3578C20.2241 28.9188 19.9373 28.5445 19.544 28.3171L0.735962 17.444V13.0801C0.735946 12.5991 0.862544 12.1265 1.10303 11.71C1.34352 11.2935 1.68942 10.9475 2.10596 10.7071L18.353 1.32705Z" fill="#80C1FF"/>
</g>
<defs>
<clipPath id="clip0_1_1012">
<rect width="39" height="44" fill="white" transform="translate(0.5 0.459961)"/>
</clipPath>
</defs>
</svg>