<svg xmlns="http://www.w3.org/2000/svg" width="40" height="45" viewBox="0 0 40 45" fill="none">
<g clip-path="url(#clip0_1_971)">
<path d="M18.575 1.32705C18.9916 1.08657 19.4641 0.959961 19.945 0.959961C20.426 0.959961 20.8985 1.08657 21.315 1.32705L37.561 10.7071C37.9776 10.9475 38.3235 11.2935 38.564 11.71C38.8044 12.1265 38.931 12.5991 38.931 13.0801V23.5501L21.725 13.6351C21.3321 13.4186 20.8699 13.365 20.4379 13.4856C20.0058 13.6063 19.6383 13.8917 19.4143 14.2804C19.1904 14.6691 19.1279 15.1301 19.2402 15.5644C19.3525 15.9987 19.6307 16.3717 20.015 16.6031L38.93 27.5051V31.84C38.93 32.321 38.8034 32.7936 38.563 33.2101C38.3225 33.6267 37.9766 33.9726 37.56 34.2131L21.314 43.5931C20.8975 43.8335 20.425 43.9601 19.944 43.9601C19.4631 43.9601 18.9906 43.8335 18.574 43.5931L2.32703 34.2131C1.91049 33.9726 1.56459 33.6267 1.3241 33.2101C1.08361 32.7936 0.957015 32.321 0.957031 31.84V21.4001L18.05 31.2831C18.4433 31.5105 18.9109 31.5723 19.3498 31.455C19.7888 31.3377 20.1631 31.0509 20.3905 30.6576C20.618 30.2642 20.6798 29.7967 20.5625 29.3578C20.4452 28.9188 20.1583 28.5445 19.765 28.3171L0.957031 17.444V13.0801C0.957015 12.5991 1.08361 12.1265 1.3241 11.71C1.56459 11.2935 1.91049 10.9475 2.32703 10.7071L18.575 1.32705Z" fill="#06B6D4"/>
</g>
<defs>
<clipPath id="clip0_1_971">
<rect width="39" height="44" fill="white" transform="translate(0.5 0.459961)"/>
</clipPath>
</defs>
</svg>