<svg xmlns="http://www.w3.org/2000/svg" width="44" height="45" viewBox="0 0 44 45" fill="none">
<g clip-path="url(#clip0_1_1002)">
<path d="M21.666 43.96C33.54 43.96 43.166 34.334 43.166 22.46C43.166 10.586 33.54 0.959961 21.666 0.959961C20.29 0.959961 18.944 1.08996 17.639 1.33596V13.956C18.8976 13.3598 20.2733 13.0516 21.666 13.054C23.5389 13.0541 25.3692 13.6134 26.9223 14.6601C28.4754 15.7068 29.6806 17.1934 30.3836 18.9294C31.0866 20.6654 31.2554 22.5717 30.8682 24.4041C30.4811 26.2366 29.5557 27.9118 28.2107 29.2151C26.8656 30.5184 25.1621 31.3904 23.3183 31.7196C21.4745 32.0487 19.5745 31.8199 17.8616 31.0625C16.1486 30.3051 14.7008 29.0536 13.7036 27.4682C12.7063 25.8829 12.2051 24.0359 12.264 22.164V3.11796C5.10202 6.60696 0.166016 13.957 0.166016 22.46C0.166016 34.334 9.79202 43.96 21.666 43.96Z" fill="#EAB308"/>
<path d="M21.666 26.4912C20.6304 26.4914 19.6345 26.093 18.8847 25.3786C18.1349 24.6642 17.6889 23.6886 17.639 22.6542V22.2662C17.677 21.4781 17.9454 20.7186 18.411 20.0816C18.8765 19.4446 19.5187 18.9583 20.2581 18.6828C20.9974 18.4074 21.8013 18.355 22.5701 18.532C23.339 18.7091 24.0389 19.1079 24.5833 19.679C25.1276 20.2502 25.4924 20.9684 25.6324 21.7449C25.7724 22.5213 25.6815 23.3218 25.3709 24.047C25.0603 24.7723 24.5437 25.3905 23.8851 25.8249C23.2266 26.2594 22.455 26.4911 21.666 26.4912Z" fill="#EAB308"/>
</g>
<defs>
<clipPath id="clip0_1_1002">
<rect width="44" height="44" fill="white" transform="translate(0 0.459961)"/>
</clipPath>
</defs>
</svg>