<svg xmlns="http://www.w3.org/2000/svg" width="21" height="21" viewBox="0 0 21 21" fill="none">
<g clip-path="url(#clip0_1_1404)">
<mask id="mask0_1_1404" style="mask-type:luminance" maskUnits="userSpaceOnUse" x="0" y="0" width="21" height="21">
<path d="M20.87 0.600098H0.869995V20.6001H20.87V0.600098Z" fill="white"/>
</mask>
<g mask="url(#mask0_1_1404)">
<path fill-rule="evenodd" clip-rule="evenodd" d="M3.55577 8.9336C3.43414 9.46961 3.36992 10.0274 3.36992 10.6003C3.36992 11.1731 3.43414 11.7309 3.55577 12.2669H6.83858C6.76041 11.7229 6.71498 11.1722 6.70342 10.6176C6.70319 10.606 6.70319 10.5945 6.70342 10.5829C6.71498 10.0283 6.76041 9.47761 6.83858 8.9336H3.55577ZM4.14952 7.26693H7.18589C7.56858 5.87428 8.17174 4.54864 8.97466 3.34179C6.85725 3.89312 5.10391 5.34647 4.14952 7.26693ZM10.8699 3.55926C10.0035 4.67549 9.34655 5.93186 8.92358 7.26693H12.8163C12.3933 5.93186 11.7363 4.67549 10.8699 3.55926ZM13.215 8.9336H8.52482C8.4347 9.48205 8.38262 10.0389 8.37011 10.6003C8.38262 11.1617 8.4347 11.7185 8.52482 12.2669H13.215C13.3051 11.7185 13.3572 11.1617 13.3697 10.6003C13.3572 10.0389 13.3051 9.48205 13.215 8.9336ZM14.9013 12.2669C14.9794 11.7229 15.0249 11.1722 15.0364 10.6176C15.0366 10.606 15.0366 10.5945 15.0364 10.5829C15.0249 10.0283 14.9794 9.47761 14.9013 8.9336H18.1841C18.3057 9.46961 18.3699 10.0274 18.3699 10.6003C18.3699 11.1731 18.3057 11.7309 18.1841 12.2669H14.9013ZM12.8163 13.9336H8.92358C9.34655 15.2687 10.0035 16.525 10.8699 17.6413C11.7363 16.525 12.3933 15.2687 12.8163 13.9336ZM8.97466 17.8587C8.17174 16.6519 7.56858 15.3262 7.18589 13.9336H4.14952C5.10391 15.8541 6.85725 17.3074 8.97466 17.8587ZM12.7652 17.8587C13.5681 16.6519 14.1712 15.3262 14.5539 13.9336H17.5903C16.6359 15.8541 14.8826 17.3074 12.7652 17.8587ZM17.5903 7.26693H14.5539C14.1712 5.87428 13.5681 4.54864 12.7652 3.34179C14.8826 3.89312 16.6359 5.34647 17.5903 7.26693ZM1.70325 10.6003C1.70325 5.53765 5.8073 1.43359 10.8699 1.43359C15.9325 1.43359 20.0366 5.53765 20.0366 10.6003C20.0366 15.6629 15.9325 19.7669 10.8699 19.7669C5.8073 19.7669 1.70325 15.6629 1.70325 10.6003Z" fill="#56756C"/>
</g>
</g>
<defs>
<clipPath id="clip0_1_1404">
<rect width="20" height="20" fill="white" transform="translate(0.869995 0.600098)"/>
</clipPath>
</defs>
</svg>