<svg xmlns="http://www.w3.org/2000/svg" width="110" height="48" viewBox="0 0 110 48" fill="none">
<g clip-path="url(#clip0_1_1273)">
<path d="M49.1174 30.2764C47.8365 30.2861 46.5943 30.2861 46.5943 30.2861C45.8451 30.3006 45.0959 30.3006 44.3516 30.2764H49.1174Z" fill="#56756C"/>
<path d="M88.7762 26.5956V26.6393H88.7472V26.5811C88.7472 26.5811 88.7617 26.5908 88.7762 26.5956Z" fill="#56756C"/>
<path d="M91.6134 9.85939C92.0243 9.37385 92.4351 8.88831 92.846 8.40278C92.9233 8.31538 92.9958 8.21342 93.0925 8.16001C93.223 8.08718 93.3825 8.05804 93.5275 8.00949C93.4888 8.15515 93.4888 8.34451 93.397 8.44162C92.7976 9.07282 89.7139 12.2191 88.752 13.1368C88.5297 13.3504 88.1623 13.53 87.8578 13.53L68.8864 13.5398C68.7365 13.5398 68.5867 13.5203 68.3015 13.5009C68.4804 13.2727 68.5915 13.1076 68.7269 12.9668C69.6162 12.054 70.4959 11.1315 71.4191 10.2527C71.627 10.0585 71.9943 9.94193 72.2891 9.94193H86.1709C86.7606 9.94193 87.2005 9.79627 87.5823 9.34472C88.0898 8.74265 88.636 8.16972 89.216 7.52881L91.2896 9.79627C91.3959 9.81569 91.5023 9.83511 91.6134 9.85453V9.85939Z" fill="#56756C"/>
<path d="M20.4742 21.3281C20.4065 21.3573 20.3195 21.3718 20.2131 21.3718C20.2131 21.3718 19.5896 21.3475 18.8743 21.3427V21.3281H20.4742Z" fill="#56756C"/>
<path d="M25.8635 21.3281C25.7958 21.3573 25.7088 21.3718 25.5928 21.3718H23.7561C23.5241 21.367 23.3694 21.367 23.2776 21.3281H25.8635Z" fill="#56756C"/>
<path d="M31.4559 23.8286V23.8432H29.4065L31.4559 23.8286Z" fill="#56756C"/>
<path d="M3.88085 17.1426C3.93402 17.0989 4.11769 17.128 4.18053 17.1863L6.20093 19.1236C6.37493 19.3032 6.47644 19.614 6.4861 19.8713L6.49577 22.0368C6.49577 22.2844 6.57311 22.4058 6.83895 22.3961H8.11499C8.35666 22.4009 8.44367 22.299 8.43883 22.0611L8.42433 20.3763C8.41467 20.2112 8.318 20.0218 8.20683 19.8956L7.14346 18.8128C6.94045 18.6186 6.95495 18.4681 7.14346 18.2787L8.15849 17.2591C8.35666 17.0455 8.49684 17.0358 8.70468 17.2591L10.6091 19.1964C10.7637 19.3615 10.8942 19.5994 10.8942 19.8519C10.8942 20.1189 10.8942 24.4499 10.8942 24.4499C10.9136 24.7995 10.8024 24.9209 10.4544 24.916L6.78095 24.9015C6.58277 24.9015 6.35077 24.7752 6.20093 24.6393C6.17676 24.6101 4.22403 22.6437 4.22403 22.6437C4.09353 22.5029 4.00652 22.2747 3.99686 22.0853C3.96786 21.5658 4.01136 21.0414 3.97269 20.5219C3.95336 20.2937 3.85185 20.0364 3.70685 19.8616C3.32984 19.4149 2.90449 19.0119 2.39697 18.4875C2.89966 18.0214 3.37334 17.5747 3.86152 17.1474L3.88085 17.1426Z" fill="#56756C"/>
<path d="M21.378 11.2773C22.0257 11.9717 22.6492 12.6417 23.3066 13.3506C23.6836 12.9816 23.9736 12.6951 24.2636 12.4086C24.5633 12.1076 24.863 11.8017 25.1578 11.4958C25.3077 11.3405 25.4333 11.3308 25.5928 11.4958C26.197 12.1173 26.806 12.734 27.4199 13.3409C27.5987 13.5205 27.5649 13.6419 27.4006 13.8021C26.8012 14.3945 26.2067 14.9868 25.6267 15.5938C25.4237 15.8074 25.2835 15.7686 25.1046 15.5792C24.66 15.1179 24.2056 14.6664 23.7609 14.21C23.3694 13.8118 23.3743 13.8118 22.9731 14.2246C22.5622 14.6421 22.1514 15.0597 21.7357 15.4724C21.6245 15.5841 21.4989 15.6812 21.3635 15.8074C20.6482 15.0937 19.9521 14.3993 19.2658 13.6953C19.2175 13.6468 19.232 13.4525 19.29 13.3991C19.9666 12.7 20.653 12.0154 21.3829 11.2773H21.378Z" fill="#56756C"/>
<path d="M4.65415 11.2773C5.30184 11.9717 5.92536 12.6417 6.58271 13.3506C6.95972 12.9816 7.24973 12.6951 7.53974 12.4086C7.83942 12.1076 8.13909 11.8017 8.43394 11.4958C8.58378 11.3405 8.70945 11.3308 8.86895 11.4958C9.47314 12.1173 10.0822 12.734 10.696 13.3409C10.8748 13.5205 10.841 13.6419 10.6767 13.8021C10.0773 14.3945 9.4828 14.9868 8.90279 15.5938C8.69978 15.8074 8.55961 15.7686 8.38077 15.5792C7.93609 15.1179 7.48174 14.6664 7.03706 14.21C6.64555 13.8118 6.65038 13.8118 6.2492 14.2246C5.83835 14.6421 5.42751 15.0597 5.01183 15.4724C4.90066 15.5841 4.77499 15.6812 4.63965 15.8074C3.92429 15.0937 3.22827 14.3993 2.54191 13.6953C2.49358 13.6468 2.50808 13.4525 2.56608 13.3991C3.24277 12.7 3.92913 12.0154 4.65898 11.2773H4.65415Z" fill="#56756C"/>
<path d="M35.5063 2.00353C34.8731 1.42089 34.2351 0.838241 33.6116 0.236175C33.4231 0.0468157 33.2974 0.124502 33.1524 0.275018C32.9832 0.444956 32.8189 0.610039 32.6594 0.779977C32.4854 0.610039 32.3259 0.444956 32.1567 0.275018C32.0117 0.129357 31.886 0.0468157 31.6927 0.236175C31.074 0.833386 30.436 1.41603 29.8028 2.00353C29.5321 2.25115 29.4016 2.53762 29.4113 2.91634V3.52326H29.3871C29.3775 3.80973 29.3726 16.0258 29.3871 21.3279H28.4929C28.4929 20.7744 28.4833 20.2355 28.4784 19.6868C28.4784 19.4974 28.3769 19.2692 28.2464 19.1333C27.5987 18.4632 26.9366 17.7981 26.2647 17.1571C26.1245 17.0261 25.9022 16.9241 25.7185 16.9144C24.3603 16.8901 23.0021 16.8998 21.6439 16.8998H20.6288V20.9589C20.6385 21.1628 20.5853 21.2745 20.4742 21.3328C20.4065 21.3619 20.3195 21.3765 20.2132 21.3765C20.2132 21.3765 19.5896 21.3522 18.8743 21.3473V21.3328C18.8743 20.4054 18.8743 18.4341 18.884 17.3028C18.884 17.0115 18.8018 16.895 18.4973 16.8998C17.2454 16.9095 15.9984 16.895 14.7417 16.9144C14.558 16.9144 14.3356 17.0163 14.1955 17.1474C13.5188 17.7981 12.8663 18.4632 12.2186 19.1381C12.0881 19.2692 11.9866 19.5023 11.9866 19.6868C11.9624 21.0512 11.9721 22.4155 11.9624 23.7799V24.7995H16.008C16.327 24.7898 16.4237 24.9112 16.414 25.2219L16.4237 28.7955C16.4237 29.3635 16.3705 29.8539 16.1772 30.2764C16.0322 30.592 15.8147 30.8687 15.4667 31.1066C15.3845 31.1649 15.3072 31.2523 15.2637 31.3494C15.2347 31.4077 15.254 31.5048 15.254 31.6504C15.3942 31.5533 15.4812 31.5193 15.544 31.4611C15.9355 31.0678 16.3222 30.6745 16.7137 30.2812C17.3759 29.616 18.0381 28.946 18.6906 28.2759C18.8018 28.1594 18.8598 27.9458 18.8646 27.7807C18.8791 27.3923 18.8743 24.7024 18.8743 23.8527C22.6541 23.843 31.886 23.8236 31.886 23.8236V4.1933C31.886 4.09134 31.8957 3.99423 31.915 3.90684C31.9537 3.67863 32.0552 3.48927 32.2486 3.31448C32.3887 3.18339 32.5241 3.05229 32.6546 2.9212C32.7851 3.062 32.9156 3.1931 33.0557 3.31448C33.2249 3.46985 33.3168 3.62037 33.3699 3.80487C33.3603 6.25684 33.3941 23.5225 33.3941 23.5225L35.8737 23.508C35.8737 23.508 35.8978 5.81985 35.9027 3.51355V2.91634C35.9027 2.53762 35.7722 2.25115 35.5112 2.00353H35.5063ZM16.414 21.6581C16.414 22.2941 16.414 22.3087 15.7954 22.2844C15.4908 22.2698 14.6208 22.2164 14.1616 22.3427C14.1906 22.3038 14.2293 22.2699 14.2631 22.231C14.3791 22.1048 14.4516 21.8814 14.4613 21.6969C14.4855 21.0414 14.471 19.7353 14.471 19.7353C14.471 19.478 14.5677 19.3712 14.8287 19.3858L15.9839 19.3761C16.3125 19.3615 16.443 19.4634 16.4285 19.8082L16.4189 21.6532L16.414 21.6581ZM25.8635 21.3279C25.7958 21.357 25.7088 21.3716 25.5928 21.3716H23.7561C23.5241 21.3668 23.3694 21.3668 23.2776 21.3279C23.1181 21.2745 23.1181 21.1288 23.1326 20.7453C23.1471 20.4394 23.2003 19.5557 23.0649 19.0944C23.1084 19.1236 23.1471 19.1624 23.1809 19.1964C23.3066 19.3226 23.5289 19.3955 23.7126 19.4003C24.3651 19.4246 25.6653 19.4052 25.6653 19.4052C25.9215 19.4003 26.0279 19.4926 26.0134 19.7548V20.9201C26.0279 21.1337 25.9892 21.2648 25.8587 21.3231L25.8635 21.3279Z" fill="#56756C"/>
<path d="M31.9151 3.90674C31.9151 4.98463 31.8861 4.19321 31.8861 4.19321C31.8861 4.09124 31.8958 3.99413 31.9151 3.90674Z" fill="#56756C"/>
<path d="M15.0317 26.6347C9.14934 26.6347 4.84271 26.6396 4.28685 26.6444C4.02585 26.6444 3.6875 26.7076 3.52316 26.8678C2.40663 27.97 1.32876 29.1013 0.134888 30.3345C0.835744 30.9852 1.51243 31.5775 2.15045 32.2087C2.44046 32.4952 2.62897 32.4515 2.88514 32.1941C3.39749 31.6795 3.90501 31.1551 4.46569 30.6938C4.73154 30.4802 5.11821 30.286 5.44689 30.286C8.14398 30.286 11.3437 30.2811 14.7852 30.2763C14.9785 29.8539 15.0317 29.3635 15.0317 28.7954V26.6299V26.6347Z" fill="#BBC8C4"/>
<path d="M58.9971 29.7324C59.0067 30.1791 58.8376 30.2859 58.4171 30.2859C57.257 30.2762 55.4686 30.2713 54.0573 30.2713H44.3516C37.0724 30.2713 26.8737 30.2713 18.1106 30.2811C18.7728 29.6159 19.435 28.9507 20.0875 28.2758C20.1987 28.1593 20.2567 27.9456 20.2615 27.7805C20.276 27.4018 20.276 27.0134 20.2712 26.6347H47.3919C47.5369 26.5521 47.6045 26.3919 47.5949 26.1103V21.5123C47.5949 21.5123 49.7893 23.6195 50.6883 24.4692C51.0895 24.8479 51.249 25.2509 51.2248 25.7996C51.2007 26.3336 51.2007 26.5521 51.3988 26.6395C51.5293 26.7075 51.7565 26.7075 52.1335 26.7075H54.8016C54.9853 26.7221 55.1158 26.6978 55.2076 26.6395C55.3768 26.5521 55.4348 26.3628 55.4106 26.0715V24.3866C55.4251 23.9982 55.2656 23.8671 54.9031 23.8671C54.9031 23.8671 53.0132 23.8914 52.0707 23.8525C51.8097 23.8428 51.481 23.7409 51.3022 23.5661C50.292 22.6047 48.2136 20.4441 48.0686 20.2256H49.0691C51.0363 20.2353 53.0084 20.2256 54.9756 20.2547C55.2463 20.2644 55.5701 20.4101 55.7683 20.5994C56.7495 21.5317 57.7065 22.4882 58.6394 23.4738C58.8279 23.6729 58.9826 23.9982 58.9826 24.2701C59.0116 26.0957 58.9874 27.9214 59.0067 29.7421L58.9971 29.7324Z" fill="#56756C"/>
<path d="M54.009 30.2764H54.0622C54.0042 30.3055 53.98 30.3152 54.009 30.2764Z" fill="#56756C"/>
<path d="M55.2077 26.6348C55.111 26.693 54.9805 26.7173 54.8017 26.7076H52.1336C51.7566 26.7027 51.5294 26.7027 51.3989 26.6348H55.2077Z" fill="#56756C"/>
<path d="M44.1037 21.1915L41.39 18.4655C41.2503 18.3252 41.0238 18.3252 40.8842 18.4655L38.1704 21.1915C38.0308 21.3318 38.0308 21.5593 38.1704 21.6996L40.8842 24.4256C41.0239 24.566 41.2503 24.566 41.39 24.4256L44.1037 21.6996C44.2434 21.5593 44.2434 21.3318 44.1037 21.1915Z" fill="#BBC8C4"/>
<path d="M109.13 29.7325C109.13 30.1792 108.961 30.286 108.55 30.286C106.37 30.2714 95.2241 30.2957 94.4798 30.2714C94.2332 30.2569 93.9287 30.1743 93.7596 30.0092C93.3101 29.5625 92.9669 29.2372 92.6865 28.9508C92.3869 29.2566 92.092 29.5577 91.7778 29.849C91.5458 30.0675 91.1592 30.2132 90.8256 30.252C90.323 30.3103 60.7033 30.2908 60.7033 30.2908H60.5438V30.15C60.5342 30.1063 60.5342 29.9024 60.5293 29.5577C60.4762 25.7268 60.5003 4.81956 60.5148 4.33403H60.5293C60.5438 3.7708 60.742 3.34839 61.1335 2.98423C62.1051 2.08113 63.0863 1.18289 64.0481 0.26037C64.3478 -0.026097 64.5363 0.100143 64.7586 0.328345C65.4498 1.02752 66.141 1.72184 66.8515 2.40644C67.1367 2.67834 67.0642 2.8677 66.8129 3.10562C66.1652 3.73196 65.561 4.40686 64.9036 5.00892C64.488 5.38764 64.3526 5.8052 64.3526 6.35872L64.3816 26.6008C70.09 26.6299 85.9825 26.6396 88.7569 26.6299H90.7918C91.2268 26.6445 91.4105 26.4988 91.396 26.0327C91.396 26.0327 91.3573 25.6006 91.4105 24.5518C91.425 24.2459 91.5845 23.8818 91.7972 23.6535C92.4884 22.9252 93.2279 22.2455 94.0641 21.4444C92.8509 20.2548 91.7537 19.1672 90.6275 18.1087C90.4728 17.9631 90.1683 17.9194 89.9363 17.9194L70.4235 17.8902C69.9015 17.8902 69.51 18.0213 69.1523 18.4146C68.5868 19.0409 67.9536 19.6187 67.3639 20.2305C67.1319 20.4636 66.9579 20.5315 66.6969 20.2596C66.0588 19.5896 65.4015 18.9293 64.7441 18.2738C64.5315 18.0602 64.4155 17.8805 64.6861 17.594C65.5513 16.6909 66.402 15.7539 67.2527 14.8265C67.6104 14.4381 68.0164 14.2487 68.5771 14.2487C77.5915 14.2633 84.2859 14.273 93.3004 14.2487C93.8514 14.2487 94.2381 14.4089 94.6151 14.8022C95.5818 15.8315 96.592 16.8172 97.578 17.8222C97.7182 17.9533 97.8342 18.1087 97.9985 18.2981C97.1333 19.1818 96.3116 20.0509 95.4465 20.8811C95.0839 21.2307 94.9389 21.5949 94.9438 22.0998C94.9728 23.94 94.9341 24.1197 94.9679 25.9599C94.9679 26.222 94.9293 26.4502 94.8423 26.6445C96.012 26.6445 97.1237 26.6882 97.1237 26.6882C97.5684 26.6979 97.7424 26.5571 97.7279 26.0909V21.4929C97.7279 21.4929 99.9271 23.6001 100.831 24.4498C101.232 24.8286 101.392 25.2315 101.367 25.7802C101.324 26.6784 101.353 26.6833 102.267 26.6833H104.935C105.428 26.7076 105.573 26.5134 105.553 26.0472L105.544 24.3624C105.568 23.974 105.403 23.8429 105.041 23.8429C105.041 23.8429 103.146 23.8672 102.199 23.8283C101.938 23.8186 101.619 23.7167 101.43 23.5419C100.42 22.5805 98.3417 20.4199 98.1967 20.2014H99.1972C101.164 20.2111 103.137 20.2014 105.104 20.2305C105.374 20.2402 105.698 20.3859 105.901 20.5752C106.873 21.5075 107.835 22.464 108.763 23.4496C108.951 23.6487 109.106 23.974 109.111 24.2459C109.14 26.0715 109.111 27.8971 109.135 29.7179L109.13 29.7325Z" fill="#56756C"/>
<path d="M6.50534 39.0937H5.44681V38.7635C5.16647 38.982 4.85229 39.0937 4.50911 39.0937H3.14124V36.0736L6.051 36.0833V38.4819H6.49568V39.0937H6.50534ZM5.48548 34.8452L5.04563 35.2871L4.61545 34.8452L4.18527 35.2871L3.74542 34.8452L4.18527 34.4131L4.61545 34.8452L5.04563 34.4131L5.48548 34.8452ZM5.45164 36.6854H3.75992V38.4819H4.50911C4.96829 38.4819 5.2583 38.2731 5.37914 37.8507C5.43231 37.6759 5.45648 37.2875 5.45648 36.6854H5.45164Z" fill="#56756C"/>
<path d="M7.89743 38.4819V39.0937H6.44739V38.4819H7.89743Z" fill="#56756C"/>
<path d="M9.30394 37.5401C9.30394 37.9673 9.1541 38.3315 8.85443 38.6374C8.55475 38.9433 8.18741 39.0938 7.75723 39.0938H7.74756L7.75723 38.482C8.21641 38.482 8.50642 38.2732 8.62725 37.8508C8.67559 37.6857 8.69492 37.2973 8.69492 36.6855L9.30394 36.0737V37.5401ZM8.79643 40.162L8.35658 40.5941L7.9264 40.162L8.35658 39.7298L8.79643 40.162ZM9.65679 40.162L9.22661 40.5941L8.79643 40.162L9.22661 39.7298L9.65679 40.162Z" fill="#56756C"/>
<path d="M11.5806 39.0938C11.5612 39.5065 11.4066 39.8609 11.102 40.1571C10.8024 40.4484 10.4447 40.5989 10.0338 40.5989H9.39099L10.0193 39.9774H10.0338C10.29 39.9774 10.5124 39.8852 10.696 39.7007C10.8797 39.5162 10.9715 39.2977 10.9715 39.0355V36.6952L11.5806 36.0737V39.0938Z" fill="#56756C"/>
<path d="M12.9918 39.0937H12.3828V35.0297L12.9918 34.418V39.0937Z" fill="#56756C"/>
<path d="M16.6943 37.5401C16.6943 37.9625 16.5445 38.3218 16.2496 38.6325C15.9499 38.9384 15.5923 39.0938 15.1766 39.0938H13.7845V38.482H15.1573C15.4134 38.482 15.6358 38.3897 15.8146 38.2052C15.9935 38.0207 16.0853 37.8022 16.0853 37.5401V36.6855H14.4032V37.2536L13.7942 37.8751V36.0737H16.6991V37.5401H16.6943Z" fill="#56756C"/>
<path d="M19.5461 37.5302C19.5461 38.0255 19.3721 38.4139 19.0241 38.6955C18.7051 38.9626 18.2943 39.0937 17.7964 39.0937L17.1777 38.4722C17.7674 38.4722 18.1493 38.4479 18.3233 38.3945C18.7341 38.2731 18.942 37.9866 18.942 37.5302V35.0249L19.551 34.4131V37.5302H19.5461ZM18.1541 40.4386H17.3566V40.191H17.5112C17.5112 39.6617 17.6853 39.3947 18.0333 39.3947H18.1541V39.652C17.8883 39.652 17.7578 39.7491 17.7578 39.9385V40.191H18.1541V40.4386ZM18.2411 38.2051H17.6321V35.0297L18.2411 34.4179V38.2051Z" fill="#56756C"/>
<path d="M20.9381 39.0937H20.3291V35.0297L20.9381 34.418V39.0937Z" fill="#56756C"/>
<path d="M27.5358 37.5399C27.5358 37.9624 27.3811 38.3217 27.0815 38.6324C26.777 38.9383 26.4144 39.0937 25.9891 39.0937H23.437V37.6371C23.437 37.2098 23.5917 36.8456 23.8962 36.5349C24.2007 36.2241 24.5632 36.0736 24.9837 36.0736V36.6951C24.7324 36.6951 24.5149 36.7874 24.3264 36.9767C24.1427 37.1661 24.046 37.3846 24.046 37.6371V38.4819H25.6507C26.2308 38.4819 26.6029 38.3217 26.7673 38.0061C26.8736 37.7924 26.9268 37.3506 26.922 36.6854L27.531 36.0736V37.5399H27.5358ZM25.8248 34.8452L25.3946 35.2871L24.9547 34.8452L25.3946 34.4131L25.8248 34.8452ZM26.6948 34.8452L26.2549 35.2871L25.8248 34.8452L26.2549 34.4131L26.6948 34.8452Z" fill="#56756C"/>
<path d="M28.9182 39.0937H28.3092V35.0297L28.9182 34.418V39.0937Z" fill="#56756C"/>
<path d="M31.1948 39.0938C31.1755 39.5065 31.0208 39.8609 30.7163 40.1571C30.4166 40.4484 30.0589 40.5989 29.6481 40.5989H29.0052L29.6336 39.9774H29.6481C29.9043 39.9774 30.1266 39.8852 30.3103 39.7007C30.494 39.5162 30.5858 39.2977 30.5858 39.0355V36.6952L31.1948 36.0737V39.0938Z" fill="#56756C"/>
<path d="M33.0847 39.0937H31.9923V35.0297L32.6013 34.418V38.4819H33.0847V39.0937Z" fill="#56756C"/>
<path d="M34.4332 38.4819V39.0937H32.9832V38.4819H34.4332Z" fill="#56756C"/>
<path d="M35.7915 38.4819V39.0937H34.3414V38.4819H35.7915Z" fill="#56756C"/>
<path d="M37.2076 39.0937H36.6566V38.7149C36.3521 38.9723 36.0573 39.1034 35.7721 39.1034C35.7237 39.1034 35.6851 39.1034 35.6512 39.0937H35.6609V38.4819H35.7382C36.0863 38.4285 36.3231 38.2877 36.4439 38.0595C36.5454 37.8701 36.5986 37.5545 36.5986 37.1127L36.5889 36.7L37.198 36.0785V37.5448C37.198 37.8895 37.0916 38.2051 36.879 38.4867H37.2076V39.0985V39.0937ZM40.6201 39.0937H39.6775V38.6858C39.4649 38.8752 39.2377 38.9966 38.9912 39.05C38.8558 39.0791 38.5948 39.0937 38.2082 39.0937V38.6858C37.952 38.9286 37.633 39.0645 37.256 39.0937H37.198L37.2076 38.4819C37.6523 38.4819 37.9327 38.278 38.0487 37.8701C38.0873 37.7147 38.1067 37.3312 38.1067 36.7145L38.7157 36.0736V37.5399C38.7157 37.8847 38.6093 38.2003 38.3967 38.4819H38.6383C39.0927 38.4819 39.3779 38.278 39.4987 37.8701C39.5567 37.6905 39.5857 37.3069 39.5857 36.7145L40.1947 36.0736V37.5399C40.1947 37.8847 40.0836 38.2003 39.866 38.4819H40.6201V39.0937ZM38.3193 35.5298L37.8892 35.962L37.459 35.5298L37.8892 35.0977L38.3193 35.5298ZM38.8704 34.8549L38.4402 35.2871L38.01 34.8549L38.4402 34.4131L38.8704 34.8549ZM39.4359 35.5298L39.0057 35.962L38.5755 35.5298L39.0057 35.0977L39.4359 35.5298Z" fill="#56756C"/>
<path d="M42.5196 39.0937H41.5239V38.7149C41.2339 38.9674 40.8956 39.0937 40.5186 39.0937H40.5089L40.5186 38.4819C40.9778 38.4819 41.2678 38.2731 41.3886 37.8604C41.4321 37.6808 41.4563 37.2923 41.4563 36.6854L42.0653 36.0736V37.5399C42.0653 37.8847 41.959 38.2003 41.7463 38.4819H42.5196V39.0937ZM41.6158 34.8452L41.1856 35.2871L40.7554 34.8452L41.1856 34.4131L41.6158 34.8452ZM42.4858 34.8452L42.0556 35.2871L41.6158 34.8452L42.0556 34.4131L42.4858 34.8452Z" fill="#56756C"/>
<path d="M43.9697 39.0937H43.4187V38.715C43.1142 38.9723 42.8193 39.1034 42.5342 39.1034C42.4907 39.1034 42.4472 39.1034 42.4133 39.0937H42.423V38.4819H42.5003C42.8483 38.4285 43.0852 38.2877 43.206 38.0595C43.3075 37.8702 43.3607 37.5546 43.3607 37.1127L43.351 36.7L43.96 36.0785V37.5449C43.96 37.8896 43.8537 38.2052 43.641 38.4868H43.9649V39.0986L43.9697 39.0937ZM46.9616 37.54C46.9616 38.0935 46.7586 38.4965 46.3526 38.7587C46.0191 38.982 45.5648 39.0937 44.9799 39.0937V38.6859C44.7044 38.9383 44.3564 39.0743 43.931 39.0937L43.9407 38.4819C44.3854 38.4819 44.6754 38.278 44.8011 37.875C44.8591 37.6808 44.8832 37.2924 44.8784 36.7097L45.4874 36.0688V37.5351C45.4874 37.8799 45.3811 38.1955 45.1684 38.4771H45.4101C45.8548 38.4771 46.1448 38.2732 46.2705 37.8702C46.3285 37.6759 46.3526 37.2875 46.3478 36.7049L46.9665 36.064V37.5303L46.9616 37.54Z" fill="#56756C"/>
<path d="M50.2774 38.4819V39.0937H49.5717C49.446 39.1277 49.2962 39.0451 49.1174 38.8461C49.0449 38.8995 48.9047 38.9529 48.6968 39.0112C48.4697 39.0694 48.2618 39.0985 48.0782 39.0985L47.4595 38.4771C48.0492 38.4771 48.431 38.4528 48.605 38.3994C49.0159 38.278 49.2237 37.9915 49.2237 37.5351V35.0297L49.8327 34.418V37.5351C49.7602 38.0109 49.6394 38.3314 49.4799 38.4916L50.2774 38.4819ZM48.5228 38.2052H47.9138V35.0297L48.5228 34.418V38.2052Z" fill="#56756C"/>
<path d="M51.713 37.54C51.713 37.9672 51.5632 38.3314 51.2587 38.6373C50.9541 38.9432 50.5916 39.0937 50.1663 39.0937H50.1566L50.1663 38.4819C50.4225 38.4819 50.6448 38.3897 50.8285 38.2003C51.0121 38.0109 51.104 37.7925 51.104 37.54V35.0297L51.713 34.418V37.54Z" fill="#56756C"/>
<path d="M57.1216 37.5399C57.1216 37.9672 56.9718 38.3314 56.6673 38.6373C56.3628 38.9432 56.0003 39.0937 55.5749 39.0937H54.207V36.0736L57.1168 36.0833V37.5399H57.1216ZM56.5464 34.8452L56.1066 35.2871L55.6764 34.8452L55.2462 35.2871L54.8064 34.8452L55.2462 34.4131L55.6764 34.8452L56.1066 34.4131L56.5464 34.8452ZM56.5126 37.5399V36.6854H54.8209V38.4819H55.5797C55.8311 38.4819 56.0486 38.3896 56.2371 38.2051C56.4208 38.0206 56.5174 37.8021 56.5174 37.5399H56.5126Z" fill="#56756C"/>
<path d="M61.2736 39.0939H60.7999C60.7903 39.5163 60.6308 39.8707 60.3311 40.162C60.0314 40.4534 59.6737 40.599 59.2629 40.599H57.895L58.5137 39.9872C59.0647 39.9872 59.4321 39.9581 59.6157 39.8998C60.0073 39.7736 60.2006 39.4871 60.2006 39.0453V38.7783C59.9202 38.9919 59.6061 39.0987 59.2629 39.0987H57.895V36.0884H60.8048V38.4869H61.2688V39.0987L61.2736 39.0939ZM60.2006 37.5401V36.6953H58.5089V38.4821C59.0647 38.4821 59.4321 38.4529 59.6157 38.3947C60.0073 38.2684 60.2006 37.982 60.2006 37.5401Z" fill="#56756C"/>
<path d="M62.6463 38.4819V39.0937H61.1963V38.4819H62.6463Z" fill="#56756C"/>
<path d="M66.4019 38.4819V39.0937H65.3869V38.7247C65.0969 38.9723 64.7634 39.0937 64.4008 39.0937H62.5786V38.4819H63.033V36.0736H65.9476V37.54C65.9476 37.8847 65.8364 38.2003 65.6189 38.4819H66.4019ZM64.4927 34.8501L64.0528 35.2919L63.6226 34.8501L64.0528 34.418L64.4927 34.8501ZM65.324 36.6903H63.642V38.4868H64.3912C64.6473 38.4868 64.8697 38.3945 65.0534 38.21C65.237 38.0255 65.3289 37.807 65.3289 37.5448V36.6903H65.324ZM65.3482 34.8501L64.918 35.2919L64.4878 34.8501L64.918 34.418L65.3482 34.8501Z" fill="#56756C"/>
<path d="M67.8375 37.54C67.8375 37.9672 67.6877 38.3314 67.3832 38.6373C67.0787 38.9432 66.7161 39.0937 66.2908 39.0937H66.2811L66.2908 38.4819C66.547 38.4819 66.7693 38.3897 66.953 38.2003C67.1367 38.0109 67.2285 37.7925 67.2285 37.54V35.0297L67.8375 34.418V37.54Z" fill="#56756C"/>
<path d="M69.2391 39.0937H68.6301V35.0297L69.2391 34.418V39.0937Z" fill="#56756C"/>
<path d="M75.0878 39.0937H74.6431C74.6238 39.5064 74.4691 39.8657 74.1694 40.1618C73.8697 40.458 73.5169 40.6037 73.106 40.6037H71.7382V37.5934L72.3472 36.9816V39.9871H73.1012C73.3525 39.9871 73.5701 39.8948 73.7586 39.7054C73.9471 39.5161 74.0389 39.2976 74.0389 39.0354V36.6903L74.6479 36.0785V38.4867H75.0878V39.0985V39.0937ZM73.4637 34.8452L73.0335 35.2871L72.5937 34.8452L73.0335 34.4131L73.4637 34.8452Z" fill="#56756C"/>
<path d="M78.8433 37.5401C78.8433 37.9673 78.6935 38.3315 78.389 38.6374C78.0844 38.9433 77.7219 39.0938 77.2966 39.0938H75.9287V38.7636C75.6484 38.9821 75.3342 39.0938 74.991 39.0938H74.9475V38.482C75.339 38.482 75.6097 38.3315 75.7644 38.0353C75.8755 37.8217 75.9287 37.4964 75.9287 37.0497V36.0737H78.8385V37.5401H78.8433ZM78.2343 37.5401V36.6855H76.5426V38.482H77.3014C77.5528 38.482 77.7703 38.3897 77.9588 38.2004C78.1425 38.0159 78.2391 37.7925 78.2391 37.5401H78.2343Z" fill="#56756C"/>
<path d="M80.7091 39.0937H79.6167V35.0297L80.2257 34.418V38.4819H80.7091V39.0937Z" fill="#56756C"/>
<path d="M82.0576 38.4819V39.0937H80.6075V38.4819H82.0576Z" fill="#56756C"/>
<path d="M86.4126 39.0936H85.3396V38.7732C85.0593 38.9868 84.7451 39.0936 84.4019 39.0936H81.99V38.4819H84.4019C84.6581 38.4819 84.8804 38.3896 85.0689 38.2051C85.2574 38.0206 85.3493 37.8021 85.3493 37.5399V36.6854H82.4443V36.0736C83.063 36.0736 83.4545 35.9474 83.614 35.6949C83.73 35.5104 83.7832 35.0831 83.7832 34.4082L84.3922 35.02C84.3874 35.4424 84.2762 35.792 84.0636 36.0736H85.9534V37.5399C85.9534 37.8846 85.8471 38.2002 85.6248 38.4819H86.4078V39.0936H86.4126Z" fill="#56756C"/>
<path d="M90.1488 37.5401C90.1488 37.9673 89.999 38.3315 89.6945 38.6374C89.39 38.9433 89.0275 39.0938 88.6021 39.0938H87.2343V38.7636C86.9539 38.9821 86.6397 39.0938 86.2966 39.0938H86.2531V38.482C86.6446 38.482 86.9152 38.3315 87.0699 38.0353C87.1762 37.8217 87.2343 37.4964 87.2343 37.0497V36.0737H90.1488V37.5401ZM89.5398 37.5401V36.6855H87.8481V38.482H88.6021C88.8535 38.482 89.071 38.3897 89.2595 38.2004C89.448 38.011 89.5398 37.7925 89.5398 37.5401Z" fill="#56756C"/>
<path d="M95.9925 39.0937H94.934V38.7635C94.6537 38.982 94.3395 39.0937 93.9963 39.0937H92.6284V36.0736L95.5382 36.0833V38.4819H95.9829V39.0937H95.9925ZM94.9727 34.8452L94.5328 35.2871L94.1026 34.8452L93.6725 35.2871L93.2326 34.8452L93.6725 34.4131L94.1026 34.8452L94.5328 34.4131L94.9727 34.8452ZM94.9388 36.6854H93.2471V38.4819H93.9963C94.4555 38.4819 94.7455 38.2731 94.8663 37.8507C94.9195 37.6759 94.9437 37.2875 94.9437 36.6854H94.9388Z" fill="#56756C"/>
<path d="M97.3846 38.4819V39.0937H95.9346V38.4819H97.3846Z" fill="#56756C"/>
<path d="M101.285 36.0736V37.54C101.285 37.9672 101.135 38.3314 100.831 38.6373C100.526 38.9432 100.159 39.0937 99.7288 39.0937H97.3169V38.4819H99.7288C99.985 38.4819 100.207 38.3897 100.396 38.2052C100.579 38.0207 100.676 37.8022 100.676 37.54V36.6854H97.7712V36.0736C98.3899 36.0736 98.7766 35.9474 98.9409 35.6949C99.0569 35.5153 99.1149 35.088 99.1149 34.418L99.724 35.0297C99.7191 35.457 99.608 35.8017 99.3953 36.0736H101.285Z" fill="#56756C"/>
<path d="M104.04 39.0938H103.542C103.533 39.5065 103.373 39.8609 103.074 40.1571C102.774 40.4484 102.416 40.5989 102.005 40.5989H101.363L101.991 39.9774H102.01C102.266 39.9774 102.489 39.8852 102.672 39.7007C102.856 39.5162 102.948 39.2977 102.948 39.0355V36.6952L103.557 36.0737V38.482H104.045V39.0938H104.04Z" fill="#56756C"/>
<path d="M105.457 39.0937H104.906V38.7149C104.601 38.9723 104.306 39.1034 104.021 39.1034C103.977 39.1034 103.934 39.1034 103.9 39.0937H103.91V38.4819H103.987C104.335 38.4285 104.572 38.2877 104.693 38.0595C104.794 37.8701 104.848 37.5545 104.848 37.1127L104.838 36.7L105.447 36.0785V37.5448C105.447 37.8895 105.341 38.2051 105.128 38.4867H105.457V39.0985V39.0937ZM108.448 37.5399C108.448 38.0935 108.245 38.4965 107.839 38.7586C107.506 38.982 107.052 39.0937 106.467 39.0937V38.6858C106.191 38.9383 105.843 39.0742 105.418 39.0937L105.428 38.4819C105.872 38.4819 106.162 38.278 106.288 37.875C106.346 37.6808 106.37 37.2923 106.365 36.7097L106.974 36.0688V37.5351C106.974 37.8798 106.868 38.1954 106.655 38.477H106.897C107.342 38.477 107.632 38.2731 107.757 37.8701C107.815 37.6759 107.839 37.2875 107.835 36.7048L108.453 36.0639V37.5302L108.448 37.5399ZM106.578 35.5298L106.148 35.9717L105.718 35.5298L106.148 35.0977L106.578 35.5298ZM107.129 34.8549L106.699 35.2871L106.269 34.8549L106.699 34.4131L107.129 34.8549ZM107.694 35.5298L107.264 35.9717L106.834 35.5298L107.264 35.0977L107.694 35.5298Z" fill="#56756C"/>
<path d="M4.7991 43.4439C4.79426 43.3565 4.7701 43.2788 4.73143 43.206C4.69276 43.1331 4.63959 43.0749 4.57192 43.0263C4.50425 42.9778 4.42692 42.9389 4.33508 42.9146C4.24324 42.8904 4.14174 42.8758 4.03057 42.8758C3.83723 42.8758 3.68256 42.9195 3.57622 43.002C3.46989 43.0846 3.41672 43.206 3.41672 43.3613C3.41672 43.4147 3.42638 43.4633 3.45055 43.5021C3.47472 43.541 3.51339 43.575 3.57622 43.609C3.63906 43.6429 3.73089 43.6769 3.84206 43.7109C3.95807 43.7449 4.10791 43.7838 4.29641 43.8226C4.55259 43.8809 4.76526 43.9391 4.93443 44.0022C5.10361 44.0654 5.23894 44.1382 5.34528 44.2256C5.45162 44.313 5.51929 44.415 5.56279 44.5363C5.60629 44.6577 5.62562 44.8034 5.62562 44.9733C5.62562 45.1433 5.59179 45.2986 5.51929 45.4346C5.45162 45.5705 5.35011 45.6919 5.21961 45.789C5.08911 45.8861 4.93443 45.959 4.75076 46.0124C4.56709 46.0658 4.36408 46.0901 4.13691 46.0901C3.90973 46.0901 3.70189 46.0609 3.51822 46.0075C3.33938 45.9541 3.18471 45.8716 3.05904 45.7696C2.93337 45.6628 2.8367 45.5365 2.7642 45.3812C2.69169 45.2258 2.65303 45.0559 2.64819 44.8568H3.37805C3.38772 45.051 3.45539 45.2015 3.58589 45.3035C3.71639 45.4054 3.90007 45.4589 4.13691 45.4589C4.37375 45.4589 4.57192 45.42 4.70726 45.3423C4.8426 45.2646 4.91027 45.153 4.91027 45.017C4.91027 44.949 4.9006 44.8956 4.88127 44.8471C4.86193 44.7985 4.8281 44.7597 4.77493 44.7208C4.72176 44.682 4.64442 44.648 4.54292 44.6189C4.44142 44.5897 4.31091 44.5509 4.14658 44.5169C3.87107 44.4587 3.64389 44.3955 3.46022 44.3324C3.27655 44.2693 3.12671 44.1965 3.01554 44.1091C2.90437 44.0265 2.8222 43.9294 2.77386 43.8129C2.72553 43.7012 2.70136 43.5604 2.70136 43.4002C2.70136 43.2254 2.7352 43.0652 2.80287 42.9195C2.87053 42.7787 2.9672 42.6573 3.08804 42.5553C3.21371 42.4534 3.35872 42.3806 3.53272 42.3223C3.70673 42.2689 3.9049 42.2397 4.11757 42.2397C4.32058 42.2397 4.50425 42.2689 4.66859 42.3223C4.83293 42.3757 4.98277 42.4582 5.10361 42.5651C5.22928 42.6719 5.32595 42.7933 5.39845 42.9438C5.47095 43.0894 5.51445 43.2545 5.52895 43.439H4.78943L4.7991 43.4439Z" fill="#56756C"/>
<path d="M7.79108 46.0074C7.72824 46.0074 7.66541 46.0122 7.59291 46.0171C7.5204 46.0171 7.44307 46.0171 7.35607 46.0171C7.2304 46.0171 7.12406 46.0074 7.03706 45.9831C6.95005 45.9588 6.87755 45.9297 6.81955 45.8811C6.76155 45.8326 6.72288 45.7743 6.69388 45.7015C6.66488 45.6287 6.65521 45.5413 6.65521 45.4393V43.7836H6.2782V43.2835H6.65521V42.5601H7.3609V43.2835H7.79591V43.7836H7.3609V45.3179C7.3609 45.3519 7.3609 45.3762 7.3754 45.3956C7.3899 45.415 7.39957 45.4296 7.4189 45.4442C7.43824 45.4539 7.46724 45.4636 7.5059 45.4684C7.54457 45.4684 7.59291 45.4733 7.64608 45.4733H7.79591V46.0025L7.79108 46.0074Z" fill="#56756C"/>
<path d="M8.64167 45.993V43.2934H9.31353V43.779C9.40053 43.5945 9.50687 43.4537 9.62771 43.3614C9.75338 43.2643 9.88871 43.2206 10.0434 43.2255H10.2029V43.9538C10.1401 43.9489 10.0676 43.9441 9.99022 43.9441C9.56487 43.9441 9.34736 44.1577 9.34736 44.5898V45.993H8.63684H8.64167Z" fill="#56756C"/>
<path d="M12.2088 46.0611C12.001 46.0611 11.8077 46.0271 11.6385 45.964C11.4693 45.896 11.3243 45.8038 11.2035 45.6824C11.0826 45.561 10.9908 45.4105 10.928 45.2406C10.8651 45.0706 10.8313 44.8764 10.8313 44.6628C10.8313 44.4491 10.8651 44.2452 10.928 44.0704C10.9908 43.8956 11.0826 43.7403 11.2035 43.6189C11.3243 43.4975 11.4645 43.3955 11.6385 43.3275C11.8077 43.2596 11.9962 43.2256 12.2088 43.2256C12.4215 43.2256 12.61 43.2596 12.7792 43.3275C12.9484 43.3955 13.0934 43.4926 13.2142 43.6189C13.335 43.7451 13.4269 43.8956 13.4897 44.0704C13.5526 44.2452 13.5864 44.4443 13.5864 44.6628C13.5864 44.8813 13.5526 45.0706 13.4897 45.2406C13.4269 45.4154 13.335 45.561 13.2142 45.6824C13.0934 45.8038 12.9484 45.896 12.7792 45.964C12.61 46.032 12.4215 46.066 12.2088 46.066V46.0611ZM12.2088 45.4688C12.4215 45.4688 12.581 45.4008 12.6922 45.26C12.8034 45.1192 12.8565 44.9201 12.8565 44.6482C12.8565 44.3763 12.8034 44.1675 12.6922 44.0267C12.581 43.8859 12.4215 43.8179 12.2088 43.8179C11.9962 43.8179 11.8367 43.8908 11.7255 44.0267C11.6143 44.1675 11.5612 44.3763 11.5612 44.6482C11.5612 44.9201 11.6143 45.1192 11.7255 45.26C11.8318 45.4008 11.9962 45.4688 12.2088 45.4688Z" fill="#56756C"/>
<path d="M14.4854 45.9931V43.2936H15.1572V43.6966C15.249 43.5363 15.365 43.4198 15.5004 43.3421C15.6357 43.2644 15.8049 43.2256 16.0079 43.2256C16.1481 43.2256 16.2786 43.2499 16.3897 43.2936C16.5009 43.3373 16.5976 43.4004 16.6749 43.4829C16.7523 43.5655 16.8151 43.6626 16.8538 43.784C16.8973 43.9053 16.9166 44.0364 16.9166 44.1821V45.998H16.2061V44.3083C16.2061 43.983 16.0611 43.8179 15.7711 43.8179C15.5826 43.8179 15.4424 43.8762 15.3409 43.9879C15.2394 44.0996 15.191 44.2646 15.191 44.4734V45.998H14.4854V45.9931Z" fill="#56756C"/>
<path d="M19.1932 46.5563C19.3913 46.5563 19.5364 46.5078 19.6234 46.4107C19.7104 46.3136 19.7539 46.1533 19.7539 45.93V45.5998L19.6959 45.6872C19.5412 45.9057 19.314 46.0125 19.024 46.0125C18.85 46.0125 18.6905 45.9786 18.5455 45.9106C18.4005 45.8426 18.2796 45.7504 18.1781 45.629C18.0766 45.5076 17.9993 45.3619 17.9413 45.192C17.8881 45.022 17.8591 44.8375 17.8591 44.6288C17.8591 44.42 17.8881 44.2306 17.9413 44.0558C17.9945 43.881 18.0718 43.7354 18.1733 43.6091C18.2748 43.4829 18.3908 43.3906 18.531 43.3227C18.6712 43.2547 18.8258 43.2207 18.995 43.2207C19.3575 43.2207 19.6185 43.3761 19.7829 43.6868V43.2887H20.4499V45.8475C20.4499 46.2747 20.3435 46.5855 20.1357 46.7894C19.9279 46.9933 19.5992 47.0953 19.1545 47.0953C18.9708 47.0953 18.8113 47.0759 18.6615 47.0419C18.5165 47.0079 18.3908 46.9545 18.2845 46.8817C18.1781 46.8088 18.096 46.7263 18.038 46.6292C17.98 46.5321 17.9461 46.4155 17.9365 46.2893H18.7098C18.7147 46.3816 18.7582 46.4495 18.8355 46.4884C18.9128 46.5321 19.0337 46.5515 19.198 46.5515L19.1932 46.5563ZM19.169 43.8373C18.9853 43.8373 18.8403 43.9102 18.7388 44.051C18.6373 44.1918 18.5842 44.3909 18.5842 44.6385C18.5842 44.8861 18.6373 45.0803 18.7388 45.2163C18.8403 45.3522 18.9853 45.4202 19.169 45.4202C19.2608 45.4202 19.343 45.4008 19.4203 45.3668C19.4977 45.3328 19.5557 45.2794 19.6089 45.2114C19.662 45.1434 19.7007 45.0609 19.7249 44.9638C19.7539 44.8667 19.7635 44.755 19.7635 44.6336C19.7635 44.3811 19.7104 44.1869 19.604 44.051C19.4977 43.915 19.3527 43.8422 19.169 43.8422V43.8373Z" fill="#56756C"/>
<path d="M23.7512 45.9931V42.3467H25.2689C25.6846 42.3467 25.9988 42.4438 26.2163 42.638C26.429 42.8322 26.5353 43.1138 26.5353 43.4877C26.5353 43.881 26.429 44.182 26.2163 44.3859C26.0036 44.5899 25.6894 44.6918 25.2689 44.6918H25.0418C24.9403 44.6918 24.8484 44.6918 24.7614 44.6918C24.6744 44.6918 24.5874 44.6918 24.5101 44.6918V45.9882H23.7512V45.9931ZM24.5101 44.0655H25.1433C25.5686 44.0655 25.7813 43.8761 25.7813 43.4974C25.7813 43.1478 25.5686 42.9779 25.1433 42.9779H24.5101V44.0655Z" fill="#56756C"/>
<path d="M27.4972 42.3223H28.2125V42.9826H27.4972V42.3223ZM27.502 45.9929V43.2933H28.2125V45.9929H27.502Z" fill="#56756C"/>
<path d="M29.3146 45.9931V42.3467H30.0203V45.9931H29.3146Z" fill="#56756C"/>
<path d="M31.1416 45.9931V42.3467H31.8473V45.9931H31.1416Z" fill="#56756C"/>
<path d="M33.5777 46.061C33.4521 46.061 33.3409 46.0416 33.2394 46.0076C33.1379 45.9688 33.0509 45.9202 32.9784 45.8474C32.9059 45.7794 32.8479 45.6969 32.8092 45.6046C32.7706 45.5124 32.7512 45.4007 32.7512 45.2842C32.7512 45.0414 32.8189 44.8423 32.9542 44.6918C33.0896 44.5413 33.2926 44.4491 33.5536 44.4102L34.0224 44.3422C34.0756 44.3325 34.1288 44.3277 34.1771 44.3131C34.2254 44.3034 34.2689 44.2888 34.3076 44.2694C34.3463 44.25 34.3753 44.2257 34.3946 44.1917C34.4139 44.1577 34.4284 44.1189 34.4284 44.0655C34.4284 43.9732 34.3849 43.9004 34.3028 43.8518C34.2206 43.8033 34.1046 43.779 33.9596 43.779C33.8243 43.779 33.7179 43.813 33.6406 43.8761C33.5632 43.9441 33.5246 44.0363 33.5197 44.1577H32.8382C32.8721 43.5265 33.2684 43.2109 34.0369 43.2109C34.2013 43.2109 34.3511 43.2304 34.4816 43.2643C34.6121 43.2983 34.7281 43.3517 34.82 43.4197C34.9118 43.4877 34.9843 43.5702 35.0375 43.6673C35.0906 43.7645 35.1148 43.8761 35.1148 43.9975V45.5075C35.1148 45.5658 35.1148 45.6192 35.1196 45.658C35.1196 45.6969 35.1293 45.7309 35.1438 45.76C35.1583 45.7891 35.1728 45.8086 35.1873 45.828C35.2066 45.8474 35.2308 45.862 35.2646 45.8717V45.9736H34.4961C34.4816 45.9202 34.4671 45.8668 34.4574 45.8134C34.4478 45.76 34.4381 45.7066 34.4333 45.6532C34.2109 45.9105 33.9258 46.0416 33.5729 46.0416L33.5777 46.061ZM34.4284 44.9929V44.687C34.3849 44.7064 34.3414 44.7307 34.2834 44.7501C34.2303 44.7695 34.1674 44.7841 34.0998 44.7986L33.8388 44.8472C33.5874 44.8909 33.4617 45.0123 33.4617 45.2114C33.4617 45.3182 33.4907 45.4056 33.5487 45.4638C33.6067 45.5221 33.6841 45.5561 33.7904 45.5561C33.8726 45.5561 33.9499 45.5464 34.0273 45.5221C34.1046 45.4978 34.1723 45.4638 34.2303 45.4201C34.2883 45.3764 34.3366 45.3182 34.3753 45.2453C34.4091 45.1725 34.4284 45.09 34.4284 44.9977V44.9929Z" fill="#56756C"/>
<path d="M36.1442 45.993V43.2934H36.8161V43.779C36.9031 43.5945 37.0094 43.4537 37.1303 43.3614C37.2511 43.2643 37.3913 43.2206 37.546 43.2255H37.7055V43.9538C37.6426 43.9489 37.5701 43.9441 37.4928 43.9441C37.0626 43.9441 36.8499 44.1577 36.8499 44.5898V45.993H36.1394H36.1442Z" fill="#56756C"/>
<path d="M40.0449 44.1044C40.0449 43.9976 40.0014 43.915 39.9144 43.8519C39.8274 43.7888 39.7163 43.7597 39.5713 43.7597C39.4263 43.7597 39.3296 43.784 39.2523 43.8277C39.1749 43.8713 39.1362 43.9393 39.1362 44.0267C39.1362 44.0559 39.1459 44.085 39.1652 44.1093C39.1846 44.1335 39.2184 44.1578 39.2668 44.1821C39.3151 44.2064 39.3731 44.2258 39.4504 44.2501C39.5229 44.2743 39.6148 44.2938 39.7259 44.318C40.1658 44.4152 40.4558 44.522 40.596 44.6385C40.7458 44.755 40.8183 44.9395 40.8183 45.1872C40.8183 45.3183 40.7893 45.4396 40.7361 45.5465C40.6781 45.6533 40.6008 45.7455 40.4993 45.8232C40.3978 45.9009 40.2721 45.9592 40.1319 46.0029C39.9869 46.0466 39.8323 46.066 39.6583 46.066C39.2426 46.066 38.9236 45.9883 38.7012 45.8281C38.4789 45.6678 38.3629 45.4396 38.3484 45.1337H39.0686C39.0734 45.26 39.1266 45.3571 39.2329 45.4251C39.3344 45.493 39.4794 45.527 39.6583 45.527C39.7984 45.527 39.9096 45.5028 39.9918 45.4542C40.0739 45.4056 40.1126 45.3377 40.1126 45.2503C40.1126 45.2211 40.1029 45.192 40.0836 45.1677C40.0643 45.1435 40.0353 45.1192 39.9966 45.0949C39.9531 45.0706 39.8999 45.0512 39.8371 45.0318C39.7694 45.0124 39.6873 44.9881 39.5906 44.9687C39.1362 44.8667 38.8317 44.7599 38.6819 44.6434C38.5272 44.5317 38.4499 44.3569 38.4499 44.119C38.4499 43.9879 38.4741 43.8665 38.5272 43.7548C38.5804 43.6431 38.6529 43.5509 38.7496 43.4732C38.8462 43.3955 38.9574 43.3324 39.0927 43.2887C39.2281 43.245 39.3731 43.2256 39.5326 43.2256C39.7163 43.2256 39.8806 43.245 40.0304 43.2887C40.1803 43.3324 40.306 43.3907 40.4171 43.4684C40.5235 43.546 40.6056 43.6383 40.6685 43.7451C40.7313 43.8519 40.7555 43.9733 40.7555 44.1044H40.0546H40.0449Z" fill="#56756C"/>
<path d="M45.6034 46.095C45.3376 46.095 45.0959 46.0513 44.8832 45.959C44.6705 45.8716 44.4869 45.7454 44.3322 45.5803C44.1775 45.4152 44.0615 45.2162 43.9794 44.9831C43.8972 44.7501 43.8585 44.4879 43.8585 44.1965C43.8585 43.9052 43.8972 43.6333 43.9794 43.3906C44.0615 43.1526 44.1775 42.9439 44.3322 42.7788C44.482 42.6088 44.6657 42.4826 44.8832 42.3903C45.0959 42.2981 45.3376 42.2544 45.6034 42.2544C45.8693 42.2544 46.1109 42.2981 46.3284 42.3903C46.5459 42.4826 46.7248 42.6137 46.8795 42.7788C47.0293 42.9487 47.1453 43.1526 47.2275 43.3906C47.3096 43.6285 47.3483 43.9004 47.3483 44.1965C47.3483 44.4927 47.3048 44.7501 47.2275 44.9831C47.1453 45.2162 47.0293 45.4152 46.8746 45.5803C46.7199 45.7454 46.5363 45.8716 46.3236 45.959C46.1109 46.0464 45.8693 46.095 45.6034 46.095ZM45.6034 45.4492C45.7581 45.4492 45.8983 45.4201 46.0191 45.3618C46.1399 45.3036 46.2463 45.221 46.3284 45.1142C46.4106 45.0074 46.4783 44.8763 46.5218 44.7161C46.5653 44.5607 46.5894 44.3859 46.5894 44.1868C46.5894 43.9878 46.5653 43.8081 46.5218 43.6479C46.4783 43.4877 46.4106 43.3517 46.3284 43.24C46.2463 43.1284 46.1399 43.041 46.0191 42.9827C45.8983 42.9244 45.7581 42.8953 45.6034 42.8953C45.4487 42.8953 45.3086 42.9244 45.1877 42.9827C45.0669 43.041 44.9606 43.1284 44.8784 43.24C44.7962 43.3517 44.7285 43.4877 44.685 43.6479C44.6415 43.8081 44.6174 43.9878 44.6174 44.1917C44.6174 44.3956 44.6415 44.5656 44.685 44.7209C44.7285 44.8763 44.7962 45.0074 44.8784 45.1191C44.9606 45.2307 45.0669 45.3084 45.1877 45.3667C45.3086 45.425 45.4487 45.4541 45.6034 45.4541V45.4492Z" fill="#56756C"/>
<path d="M49.1271 43.7933V45.9928H48.4214V43.7933H48.025V43.2932H48.4214V43.0699C48.4214 42.798 48.4939 42.5989 48.6437 42.4775C48.7936 42.3561 49.0159 42.2979 49.3156 42.2979C49.4171 42.2979 49.5089 42.3027 49.5862 42.3173V42.8854H49.3639C49.3156 42.8854 49.2769 42.8853 49.2479 42.8951C49.2189 42.9048 49.1947 42.9193 49.1754 42.9388C49.1561 42.9582 49.1464 42.9922 49.1416 43.0262C49.1367 43.065 49.1319 43.1136 49.1319 43.1718V43.2932H49.5911V43.7933H49.1319H49.1271Z" fill="#56756C"/>
<path d="M55.7489 44.716C55.7248 44.9248 55.6716 45.119 55.5894 45.2841C55.5073 45.4492 55.3913 45.5997 55.2559 45.7162C55.1206 45.8328 54.9611 45.9299 54.7774 45.993C54.5937 46.0561 54.3956 46.0901 54.1781 46.0901C53.9219 46.0901 53.6899 46.0464 53.4869 45.9542C53.279 45.8668 53.105 45.7405 52.96 45.5754C52.815 45.4104 52.7038 45.2113 52.6265 44.9782C52.5492 44.7452 52.5105 44.483 52.5105 44.1917C52.5105 43.9003 52.5492 43.6284 52.6265 43.3857C52.7038 43.1478 52.815 42.9438 52.96 42.7739C53.105 42.604 53.279 42.4729 53.4869 42.3855C53.6947 42.2932 53.9219 42.2495 54.1781 42.2495C54.3907 42.2495 54.5889 42.2786 54.7677 42.3418C54.9466 42.4 55.1061 42.4874 55.2463 42.604C55.3816 42.7156 55.4976 42.8564 55.5846 43.0167C55.6716 43.1769 55.7296 43.3565 55.7538 43.5556H54.9949C54.9804 43.4585 54.9514 43.3711 54.9079 43.2886C54.8644 43.2109 54.8064 43.1429 54.7387 43.0846C54.6711 43.0312 54.5889 42.9875 54.4971 42.9584C54.4052 42.9293 54.3037 42.9147 54.1925 42.9147C54.0524 42.9147 53.9267 42.9438 53.8155 43.0021C53.7044 43.0604 53.6077 43.1429 53.5304 43.2546C53.453 43.3662 53.395 43.4973 53.3515 43.6576C53.3129 43.8129 53.2887 43.9926 53.2887 44.1917C53.2887 44.3907 53.308 44.5607 53.3515 44.716C53.395 44.8714 53.453 45.0025 53.5304 45.1093C53.6077 45.2161 53.7044 45.2987 53.8155 45.3521C53.9267 45.4104 54.0524 45.4395 54.1925 45.4395C54.3037 45.4395 54.4052 45.4249 54.4971 45.3909C54.5889 45.357 54.6711 45.3084 54.7387 45.2501C54.8112 45.187 54.8644 45.1142 54.9079 45.0268C54.9514 44.9394 54.9804 44.8374 54.9901 44.7306H55.7489V44.716Z" fill="#56756C"/>
<path d="M57.8998 46.0611C57.6919 46.0611 57.4986 46.0271 57.3294 45.964C57.1602 45.896 57.0152 45.8038 56.8944 45.6824C56.7736 45.561 56.6817 45.4105 56.6189 45.2406C56.5561 45.0706 56.5222 44.8764 56.5222 44.6628C56.5222 44.4491 56.5561 44.2452 56.6189 44.0704C56.6817 43.8956 56.7736 43.7403 56.8944 43.6189C57.0152 43.4975 57.1554 43.3955 57.3294 43.3275C57.4986 43.2596 57.6871 43.2256 57.8998 43.2256C58.1124 43.2256 58.3009 43.2596 58.4701 43.3275C58.6393 43.3955 58.7843 43.4926 58.9051 43.6189C59.026 43.7451 59.1178 43.8956 59.1806 44.0704C59.2435 44.2452 59.2773 44.4443 59.2773 44.6628C59.2773 44.8813 59.2435 45.0706 59.1806 45.2406C59.1178 45.4154 59.026 45.561 58.9051 45.6824C58.7843 45.8038 58.6393 45.896 58.4701 45.964C58.3009 46.032 58.1124 46.066 57.8998 46.066V46.0611ZM57.8998 45.4688C58.1124 45.4688 58.2719 45.4008 58.3831 45.26C58.4943 45.1192 58.5474 44.9201 58.5474 44.6482C58.5474 44.3763 58.4943 44.1675 58.3831 44.0267C58.2719 43.8859 58.1124 43.8179 57.8998 43.8179C57.6871 43.8179 57.5276 43.8908 57.4164 44.0267C57.3052 44.1675 57.2521 44.3763 57.2521 44.6482C57.2521 44.9201 57.3052 45.1192 57.4164 45.26C57.5227 45.4008 57.6871 45.4688 57.8998 45.4688Z" fill="#56756C"/>
<path d="M60.1764 45.9931V43.2936H60.8482V43.6966C60.9401 43.5363 61.0561 43.4198 61.1914 43.3421C61.3268 43.2644 61.4959 43.2256 61.6989 43.2256C61.8391 43.2256 61.9696 43.2499 62.0808 43.2936C62.192 43.3373 62.2886 43.4004 62.366 43.4829C62.4433 43.5655 62.5061 43.6626 62.5448 43.784C62.5883 43.9053 62.6076 44.0364 62.6076 44.1821V45.998H61.8971V44.3083C61.8971 43.983 61.7521 43.8179 61.4621 43.8179C61.2736 43.8179 61.1334 43.8762 61.0319 43.9879C60.9304 44.0996 60.8821 44.2646 60.8821 44.4734V45.998H60.1764V45.9931Z" fill="#56756C"/>
<path d="M65.1887 44.1044C65.1887 43.9976 65.1452 43.915 65.0582 43.8519C64.9712 43.7888 64.8601 43.7597 64.7151 43.7597C64.5701 43.7597 64.4734 43.784 64.3961 43.8277C64.3187 43.8713 64.28 43.9393 64.28 44.0267C64.28 44.0559 64.2897 44.085 64.309 44.1093C64.3284 44.1335 64.3622 44.1578 64.4106 44.1821C64.4589 44.2064 64.5169 44.2258 64.5942 44.2501C64.6716 44.2743 64.7634 44.2938 64.8697 44.318C65.3096 44.4152 65.5996 44.522 65.7398 44.6385C65.8896 44.755 65.9621 44.9395 65.9621 45.1872C65.9621 45.3183 65.9331 45.4396 65.8799 45.5465C65.8268 45.6533 65.7446 45.7455 65.6431 45.8232C65.5416 45.9009 65.4208 45.9592 65.2757 46.0029C65.1307 46.0466 64.9761 46.066 64.8021 46.066C64.3864 46.066 64.0674 45.9883 63.845 45.8281C63.6227 45.6678 63.5067 45.4396 63.4922 45.1337H64.2124C64.2172 45.26 64.2704 45.3571 64.3767 45.4251C64.4782 45.493 64.6232 45.527 64.8021 45.527C64.9422 45.527 65.0534 45.5028 65.1356 45.4542C65.2177 45.4056 65.2564 45.3377 65.2564 45.2503C65.2564 45.2211 65.2467 45.192 65.2274 45.1677C65.2081 45.1435 65.1791 45.1192 65.1404 45.0949C65.1017 45.0706 65.0486 45.0512 64.9809 45.0318C64.9132 45.0124 64.8311 44.9881 64.7344 44.9687C64.28 44.8667 63.9755 44.7599 63.8257 44.6434C63.671 44.5317 63.5937 44.3569 63.5937 44.119C63.5937 43.9879 63.6227 43.8665 63.671 43.7548C63.7242 43.6431 63.7967 43.5509 63.8934 43.4732C63.99 43.3955 64.1012 43.3324 64.2365 43.2887C64.3719 43.245 64.5169 43.2256 64.6764 43.2256C64.8601 43.2256 65.0244 43.245 65.1742 43.2887C65.3241 43.3324 65.4546 43.3907 65.5609 43.4684C65.6673 43.546 65.7494 43.6383 65.8123 43.7451C65.8751 43.8519 65.8993 43.9733 65.8993 44.1044H65.1984H65.1887Z" fill="#56756C"/>
<path d="M67.6006 43.2935V44.9831C67.6006 45.1482 67.6344 45.2744 67.7069 45.3521C67.7746 45.4298 67.8858 45.4687 68.0356 45.4687C68.2241 45.4687 68.3643 45.4153 68.461 45.3036C68.5576 45.1919 68.606 45.0317 68.606 44.818V43.2935H69.3165V45.993H68.6398V45.59C68.4755 45.9056 68.1903 46.061 67.794 46.061C67.6538 46.061 67.5233 46.0416 67.4121 45.9979C67.3009 45.9542 67.2043 45.8911 67.1269 45.8134C67.0496 45.7309 66.9916 45.6337 66.9481 45.5124C66.9046 45.3958 66.8853 45.2599 66.8853 45.1142V43.2935H67.5958H67.6006Z" fill="#56756C"/>
<path d="M70.4041 45.9931V42.3467H71.1097V45.9931H70.4041Z" fill="#56756C"/>
<path d="M73.4395 46.0074C73.3767 46.0074 73.3138 46.0122 73.2413 46.0171C73.1688 46.0171 73.0915 46.0171 73.0045 46.0171C72.8788 46.0171 72.7725 46.0074 72.6855 45.9831C72.5985 45.9588 72.526 45.9297 72.468 45.8811C72.41 45.8326 72.3713 45.7743 72.3423 45.7015C72.3133 45.6287 72.3037 45.5413 72.3037 45.4393V43.7836H71.9266V43.2835H72.3037V42.5601H73.0093V43.2835H73.4444V43.7836H73.0093V45.3179C73.0093 45.3519 73.0093 45.3762 73.0238 45.3956C73.0383 45.415 73.048 45.4296 73.0673 45.4442C73.0867 45.4539 73.1157 45.4636 73.1543 45.4684C73.193 45.4684 73.2413 45.4733 73.2945 45.4733H73.4444V46.0025L73.4395 46.0074Z" fill="#56756C"/>
<path d="M74.3143 42.3223H75.0297V42.9826H74.3143V42.3223ZM74.3192 45.9929V43.2933H75.0297V45.9929H74.3192Z" fill="#56756C"/>
<path d="M76.1075 45.9931V43.2936H76.7794V43.6966C76.8712 43.5363 76.9872 43.4198 77.1226 43.3421C77.2579 43.2644 77.4271 43.2256 77.6301 43.2256C77.7703 43.2256 77.8959 43.2499 78.0119 43.2936C78.1231 43.3373 78.2198 43.4004 78.2971 43.4829C78.3744 43.5655 78.4373 43.6626 78.476 43.784C78.5195 43.9053 78.5388 44.0364 78.5388 44.1821V45.998H77.8283V44.3083C77.8283 43.983 77.6833 43.8179 77.3933 43.8179C77.2047 43.8179 77.0646 43.8762 76.9631 43.9879C76.8616 44.0996 76.8132 44.2646 76.8132 44.4734V45.998H76.1075V45.9931Z" fill="#56756C"/>
<path d="M80.8105 46.5563C81.0087 46.5563 81.1537 46.5078 81.2407 46.4107C81.3277 46.3136 81.3712 46.1533 81.3712 45.93V45.5998L81.3132 45.6872C81.1585 45.9057 80.9313 46.0125 80.6413 46.0125C80.4673 46.0125 80.3078 45.9786 80.1628 45.9106C80.0178 45.8426 79.897 45.7504 79.7955 45.629C79.6939 45.5076 79.6166 45.3619 79.5586 45.192C79.5054 45.022 79.4764 44.8375 79.4764 44.6288C79.4764 44.42 79.5054 44.2306 79.5586 44.0558C79.6118 43.881 79.6891 43.7354 79.7906 43.6091C79.8921 43.4829 80.0081 43.3906 80.1483 43.3227C80.2885 43.2547 80.4431 43.2207 80.6123 43.2207C80.9748 43.2207 81.2358 43.3761 81.4002 43.6868V43.2887H82.0672V45.8475C82.0672 46.2747 81.9608 46.5855 81.753 46.7894C81.5452 46.9933 81.2165 47.0953 80.7718 47.0953C80.5881 47.0953 80.4286 47.0759 80.2788 47.0419C80.1338 47.0079 80.0081 46.9545 79.9018 46.8817C79.7954 46.8088 79.7133 46.7263 79.6553 46.6292C79.5973 46.5321 79.5634 46.4155 79.5538 46.2893H80.3271C80.332 46.3816 80.3755 46.4495 80.4528 46.4884C80.5301 46.5321 80.651 46.5515 80.8153 46.5515L80.8105 46.5563ZM80.7863 43.8373C80.6026 43.8373 80.4576 43.9102 80.3561 44.051C80.2546 44.1918 80.2015 44.3909 80.2015 44.6385C80.2015 44.8861 80.2546 45.0803 80.3561 45.2163C80.4576 45.3522 80.6026 45.4202 80.7863 45.4202C80.8781 45.4202 80.9603 45.4008 81.0377 45.3668C81.115 45.3328 81.173 45.2794 81.2262 45.2114C81.2793 45.1434 81.318 45.0609 81.3422 44.9638C81.3712 44.8667 81.3808 44.755 81.3808 44.6336C81.3808 44.3811 81.3277 44.1869 81.2213 44.051C81.115 43.915 80.97 43.8422 80.7863 43.8422V43.8373Z" fill="#56756C"/>
<path d="M87.3406 43.4439C87.3358 43.3565 87.3116 43.2788 87.2729 43.206C87.2343 43.1331 87.1811 43.0749 87.1134 43.0263C87.0458 42.9778 86.9684 42.9389 86.8766 42.9146C86.7848 42.8904 86.6832 42.8758 86.5721 42.8758C86.3787 42.8758 86.2241 42.9195 86.1177 43.002C86.0114 43.0846 85.9582 43.206 85.9582 43.3613C85.9582 43.4147 85.9679 43.4633 85.9921 43.5021C86.0162 43.541 86.0549 43.575 86.1177 43.609C86.1806 43.6429 86.2724 43.6769 86.3836 43.7109C86.4996 43.7449 86.6494 43.7838 86.8379 43.8226C87.0941 43.8809 87.3068 43.9391 87.4759 44.0022C87.6451 44.0654 87.7804 44.1382 87.8868 44.2256C87.9931 44.313 88.0608 44.415 88.1043 44.5363C88.1478 44.6577 88.1671 44.8034 88.1671 44.9733C88.1671 45.1433 88.1333 45.2986 88.0608 45.4346C87.9931 45.5705 87.8916 45.6919 87.7611 45.789C87.6306 45.8861 87.4759 45.959 87.2923 46.0124C87.1086 46.0658 86.9056 46.0901 86.6784 46.0901C86.4512 46.0901 86.2434 46.0609 86.0597 46.0075C85.8809 45.9541 85.7262 45.8716 85.6005 45.7696C85.4749 45.6628 85.3782 45.5365 85.3057 45.3812C85.2332 45.2258 85.1945 45.0559 85.1897 44.8568H85.9196C85.9292 45.051 85.9969 45.2015 86.1274 45.3035C86.2579 45.4054 86.4416 45.4589 86.6784 45.4589C86.9153 45.4589 87.1134 45.42 87.2488 45.3423C87.3841 45.2646 87.4518 45.153 87.4518 45.017C87.4518 44.949 87.4421 44.8956 87.4228 44.8471C87.4034 44.7985 87.3696 44.7597 87.3164 44.7208C87.2633 44.682 87.1859 44.648 87.0844 44.6189C86.9829 44.5897 86.8524 44.5509 86.6881 44.5169C86.4126 44.4587 86.1854 44.3955 86.0017 44.3324C85.8181 44.2693 85.6682 44.1965 85.557 44.1091C85.4459 44.0265 85.3637 43.9294 85.3154 43.8129C85.267 43.7012 85.2429 43.5604 85.2429 43.4002C85.2429 43.2254 85.2767 43.0652 85.3444 42.9195C85.412 42.7787 85.5087 42.6573 85.6295 42.5553C85.7552 42.4534 85.9002 42.3806 86.0742 42.3223C86.2482 42.2689 86.4464 42.2397 86.6591 42.2397C86.8621 42.2397 87.0458 42.2689 87.2101 42.3223C87.3744 42.3757 87.5243 42.4582 87.6451 42.5651C87.7708 42.6719 87.8675 42.7933 87.94 42.9438C88.0125 43.0894 88.056 43.2545 88.0705 43.439H87.3309L87.3406 43.4439Z" fill="#56756C"/>
<path d="M90.173 46.0611C89.97 46.0611 89.7863 46.0271 89.6268 45.964C89.4673 45.9009 89.3368 45.8038 89.2256 45.6824C89.1144 45.561 89.0371 45.4056 88.9791 45.226C88.9211 45.0464 88.8921 44.8376 88.8921 44.6045C88.8921 44.3909 88.9211 44.1967 88.9791 44.0267C89.0371 43.8568 89.1241 43.7111 89.2304 43.5897C89.3416 43.4684 89.4721 43.381 89.6316 43.3178C89.7911 43.2547 89.97 43.2256 90.1681 43.2256C90.376 43.2256 90.5645 43.2596 90.7191 43.3227C90.8738 43.3858 91.0092 43.4829 91.1155 43.6092C91.2218 43.7354 91.304 43.8908 91.3572 44.0704C91.4103 44.2549 91.4393 44.4637 91.4393 44.6968C91.4393 44.7405 91.4393 44.7842 91.4297 44.8181H89.5978C89.6074 44.9395 89.6268 45.0415 89.6558 45.1289C89.6848 45.2163 89.7235 45.2843 89.7766 45.3377C89.8298 45.3911 89.8926 45.4299 89.9651 45.4591C90.0425 45.4833 90.1295 45.4979 90.2358 45.4979C90.289 45.4979 90.3373 45.4882 90.3905 45.4736C90.4436 45.4591 90.4871 45.4348 90.5306 45.4056C90.5741 45.3765 90.608 45.3425 90.6418 45.3037C90.6708 45.2648 90.6902 45.226 90.6998 45.1823H91.42C91.3862 45.3183 91.3378 45.4445 91.2653 45.5513C91.1928 45.6581 91.1058 45.7552 90.9947 45.8281C90.8835 45.9009 90.7627 45.9592 90.6225 46.0029C90.4823 46.0417 90.3325 46.0611 90.1633 46.0611H90.173ZM90.7143 44.3666C90.6805 43.9927 90.4968 43.8082 90.1633 43.8082C89.8685 43.8082 89.6848 43.9927 89.6171 44.3666H90.7143Z" fill="#56756C"/>
<path d="M92.3239 45.993V43.2934H92.9958V43.779C93.0828 43.5945 93.1891 43.4537 93.31 43.3614C93.4308 43.2643 93.571 43.2206 93.7256 43.2255H93.8851V43.9538C93.8223 43.9489 93.7498 43.9441 93.6725 43.9441C93.2423 43.9441 93.0296 44.1577 93.0296 44.5898V45.993H92.3191H92.3239Z" fill="#56756C"/>
<path d="M94.4362 43.2935H95.2192L95.7944 45.3084L96.3744 43.2935H97.1187L96.152 45.993H95.4125L94.441 43.2935H94.4362Z" fill="#56756C"/>
<path d="M97.9404 42.3223H98.6558V42.9826H97.9404V42.3223ZM97.9453 45.9929V43.2933H98.6558V45.9929H97.9453Z" fill="#56756C"/>
<path d="M102.054 44.9929C102.034 45.1629 101.996 45.3134 101.928 45.4445C101.86 45.5756 101.783 45.6872 101.677 45.7795C101.57 45.8717 101.45 45.9397 101.314 45.9883C101.179 46.0368 101.019 46.0611 100.85 46.0611C100.647 46.0611 100.464 46.032 100.309 45.9688C100.154 45.9057 100.019 45.8183 99.9125 45.6969C99.8062 45.5756 99.724 45.4299 99.666 45.26C99.608 45.09 99.579 44.8861 99.579 44.6579C99.579 44.4297 99.608 44.2403 99.666 44.0655C99.724 43.8907 99.811 43.7354 99.9222 43.614C100.033 43.4926 100.169 43.3906 100.323 43.3227C100.478 43.2547 100.657 43.2207 100.85 43.2207C101.024 43.2207 101.179 43.245 101.324 43.2984C101.469 43.3518 101.595 43.4198 101.701 43.512C101.807 43.6043 101.889 43.716 101.952 43.8422C102.015 43.9684 102.049 44.1092 102.054 44.2646H101.329C101.329 44.1966 101.309 44.1384 101.285 44.0801C101.261 44.0218 101.227 43.9781 101.184 43.9393C101.14 43.9005 101.092 43.8713 101.034 43.847C100.976 43.8228 100.913 43.8131 100.845 43.8131C100.667 43.8131 100.531 43.8859 100.439 44.0267C100.348 44.1675 100.299 44.3763 100.299 44.653C100.299 44.9298 100.348 45.1289 100.439 45.2648C100.531 45.4008 100.667 45.4736 100.845 45.4736C100.976 45.4736 101.082 45.4299 101.174 45.3376C101.266 45.2454 101.314 45.1289 101.329 44.9832H102.054V44.9929Z" fill="#56756C"/>
<path d="M104.016 46.0611C103.813 46.0611 103.629 46.0271 103.47 45.964C103.31 45.9009 103.18 45.8038 103.069 45.6824C102.958 45.561 102.88 45.4056 102.822 45.226C102.764 45.0464 102.735 44.8376 102.735 44.6045C102.735 44.3909 102.764 44.1967 102.822 44.0267C102.88 43.8568 102.967 43.7111 103.074 43.5897C103.18 43.4684 103.315 43.381 103.475 43.3178C103.634 43.2547 103.813 43.2256 104.011 43.2256C104.219 43.2256 104.408 43.2596 104.562 43.3227C104.717 43.3858 104.852 43.4829 104.959 43.6092C105.065 43.7354 105.147 43.8908 105.2 44.0704C105.253 44.2501 105.282 44.4637 105.282 44.6968C105.282 44.7405 105.282 44.7842 105.273 44.8181H103.441C103.451 44.9395 103.47 45.0415 103.499 45.1289C103.528 45.2163 103.567 45.2843 103.62 45.3377C103.673 45.3911 103.736 45.4299 103.808 45.4591C103.881 45.4882 103.973 45.4979 104.079 45.4979C104.132 45.4979 104.18 45.4882 104.234 45.4736C104.287 45.4591 104.33 45.4348 104.374 45.4056C104.417 45.3765 104.451 45.3425 104.485 45.3037C104.519 45.2648 104.533 45.226 104.543 45.1823H105.263C105.229 45.3183 105.181 45.4445 105.108 45.5513C105.036 45.6581 104.949 45.7552 104.838 45.8281C104.727 45.9009 104.606 45.9592 104.466 46.0029C104.325 46.0466 104.176 46.0611 104.006 46.0611H104.016ZM104.557 44.3666C104.524 43.9927 104.34 43.8082 104.006 43.8082C103.707 43.8082 103.528 43.9927 103.46 44.3666H104.557Z" fill="#56756C"/>
<path d="M107.69 44.1044C107.69 43.9976 107.646 43.915 107.559 43.8519C107.472 43.7888 107.361 43.7597 107.216 43.7597C107.071 43.7597 106.974 43.784 106.897 43.8277C106.82 43.8713 106.781 43.9393 106.781 44.0267C106.781 44.0559 106.791 44.085 106.81 44.1093C106.829 44.1335 106.863 44.1578 106.911 44.1821C106.96 44.2064 107.018 44.2258 107.095 44.2501C107.172 44.2743 107.259 44.2938 107.371 44.318C107.81 44.4152 108.1 44.522 108.241 44.6385C108.39 44.755 108.463 44.9395 108.463 45.1872C108.463 45.3183 108.434 45.4396 108.381 45.5465C108.328 45.6533 108.245 45.7455 108.144 45.8232C108.042 45.9009 107.917 45.9592 107.777 46.0029C107.636 46.0466 107.477 46.066 107.303 46.066C106.887 46.066 106.568 45.9883 106.346 45.8281C106.124 45.6678 106.008 45.4396 105.993 45.1337H106.713C106.718 45.26 106.771 45.3571 106.878 45.4251C106.984 45.493 107.124 45.527 107.303 45.527C107.443 45.527 107.554 45.5028 107.636 45.4542C107.719 45.4056 107.757 45.3377 107.757 45.2503C107.757 45.2211 107.748 45.192 107.728 45.1677C107.709 45.1435 107.68 45.1192 107.641 45.0949C107.603 45.0706 107.545 45.0512 107.482 45.0318C107.419 45.0124 107.332 44.9881 107.235 44.9687C106.781 44.8667 106.476 44.7599 106.327 44.6434C106.172 44.5317 106.095 44.3569 106.095 44.119C106.095 43.9879 106.119 43.8665 106.172 43.7548C106.225 43.6431 106.298 43.5509 106.394 43.4732C106.491 43.3955 106.602 43.3324 106.737 43.2887C106.873 43.245 107.018 43.2256 107.177 43.2256C107.361 43.2256 107.525 43.245 107.675 43.2887C107.825 43.3324 107.951 43.3907 108.062 43.4684C108.173 43.546 108.25 43.6383 108.313 43.7451C108.376 43.8519 108.4 43.9733 108.4 44.1044H107.699H107.69Z" fill="#56756C"/>
</g>
<defs>
<clipPath id="clip0_1_1273">
<rect width="109" height="47" fill="white" transform="translate(0.130005 0.100098)"/>
</clipPath>
</defs>
</svg>