<svg xmlns="http://www.w3.org/2000/svg" width="20" height="20" viewBox="0 0 20 20" fill="none">
<rect y="0.00012207" width="20" height="20" rx="10" fill="white"/>
<mask id="path-2-inside-1_1_615" fill="white">
<path d="M0 10.0001C0 4.47727 4.47715 0.00012207 10 0.00012207C15.5228 0.00012207 20 4.47727 20 10.0001C20 15.523 15.5228 20.0001 10 20.0001C4.47715 20.0001 0 15.523 0 10.0001Z"/>
</mask>
<path d="M10 19.0001C5.02944 19.0001 1 14.9707 1 10.0001H-1C-1 16.0753 3.92487 21.0001 10 21.0001V19.0001ZM19 10.0001C19 14.9707 14.9706 19.0001 10 19.0001V21.0001C16.0751 21.0001 21 16.0753 21 10.0001H19ZM10 1.00012C14.9706 1.00012 19 5.02956 19 10.0001H21C21 3.92499 16.0751 -0.999878 10 -0.999878V1.00012ZM10 -0.999878C3.92487 -0.999878 -1 3.92499 -1 10.0001H1C1 5.02956 5.02944 1.00012 10 1.00012V-0.999878Z" fill="black" fill-opacity="0.2" mask="url(#path-2-inside-1_1_615)"/>
</svg>